<svg width="57" height="64" viewBox="0 0 57 64" fill="none" xmlns="http://www.w3.org/2000/svg">
<g clip-path="url(#clip0_1348_838)">
<path d="M46.4874 33.709C46.4589 28.4824 48.8193 24.5376 53.597 21.6324C50.9238 17.8015 46.8855 15.6938 41.5533 15.2808C36.5054 14.8821 30.9884 18.2288 28.9692 18.2288C26.8363 18.2288 21.9449 15.4232 18.1057 15.4232C10.1714 15.5514 1.73935 21.7606 1.73935 34.3925C1.73935 38.1237 2.42187 41.9783 3.78692 45.9564C5.60699 51.1829 12.1763 64 19.03 63.7864C22.6132 63.7009 25.1442 61.2372 29.8082 61.2372C34.3299 61.2372 36.6761 63.7864 40.6717 63.7864C47.5822 63.6867 53.5259 52.0374 55.2606 46.7966C45.9897 42.4246 46.4874 33.9795 46.4874 33.709ZM38.4393 10.3249C42.3211 5.71073 41.9656 1.50957 41.8519 0C38.425 0.199377 34.4579 2.33556 32.197 4.97018C29.7086 7.78994 28.244 11.279 28.5569 15.2096C32.2681 15.4944 35.6523 13.5861 38.4393 10.3249Z" fill="black"/>
</g>
<defs>
<clipPath id="clip0_1348_838">
<rect width="57" height="64" fill="white"/>
</clipPath>
</defs>
</svg>
