<svg width="68" height="117" viewBox="0 0 68 117" fill="none" xmlns="http://www.w3.org/2000/svg">
<path d="M37.5665 113.481C37.664 113.485 37.7605 113.46 37.8429 113.41C37.9254 113.359 37.9898 113.286 38.0274 113.198C38.0651 113.111 38.0741 113.015 38.0534 112.923C38.0326 112.83 37.9831 112.746 37.9114 112.682L37.8788 112.557C37.8831 112.547 37.8874 112.537 37.8918 112.527C37.99 112.302 38.1545 112.111 38.3648 111.976C38.575 111.842 38.8215 111.771 39.0734 111.772C39.3253 111.773 39.5713 111.846 39.7805 111.981C39.9897 112.117 40.1528 112.31 40.2492 112.535C40.6348 113.434 41.1257 114.335 41.2466 115.285C41.2998 115.706 41.2774 116.131 41.1802 116.544C42.0858 114.632 42.5561 112.553 42.5591 110.449C42.5593 109.921 42.529 109.394 42.4684 108.869C42.4183 108.439 42.3487 108.012 42.2598 107.588C41.7744 105.287 40.7322 103.131 39.2189 101.296C38.4864 100.909 37.8941 100.314 37.5217 99.5913C37.3868 99.3315 37.2914 99.0541 37.2386 98.7678C37.3212 98.7783 37.5501 97.5601 37.4878 97.4853C37.603 97.3162 37.809 97.2321 37.9348 97.067C38.5602 96.2461 39.4219 96.3894 39.8718 97.505C40.8327 97.9745 40.842 98.7532 40.2524 99.5022C39.8773 99.9786 39.8257 100.623 39.4966 101.133C39.5304 101.175 39.5656 101.216 39.5995 101.258C40.2185 102.029 40.7581 102.856 41.2103 103.729C41.1003 102.751 41.2316 101.762 41.5934 100.844C41.96 99.9874 42.6471 99.2663 43.2523 98.5261C43.4123 98.3272 43.6297 98.1788 43.8769 98.0995C44.124 98.0202 44.3899 98.0137 44.641 98.0807C44.892 98.1477 45.1169 98.2852 45.2872 98.4759C45.4575 98.6666 45.5655 98.9019 45.5977 99.1521C45.599 99.163 45.6002 99.1739 45.6014 99.1848C45.5115 99.2339 45.4235 99.286 45.3374 99.3411C45.2293 99.4111 45.1455 99.511 45.097 99.6279C45.0485 99.7447 45.0376 99.873 45.0658 99.996C45.0939 100.119 45.1597 100.231 45.2547 100.317C45.3496 100.403 45.4691 100.459 45.5977 100.478L45.6108 100.48C45.5788 100.794 45.5222 101.105 45.4415 101.41C46.2179 104.317 44.5418 105.375 42.1487 105.423C42.0959 105.449 42.0444 105.475 41.9916 105.5C42.446 106.747 42.731 108.046 42.8395 109.363C42.9009 110.141 42.8973 110.922 42.8287 111.699L42.8327 111.671C43.0061 110.807 43.4822 110.028 44.1805 109.464C45.2177 108.64 46.683 108.336 47.8019 107.673C47.9208 107.599 48.0591 107.559 48.2004 107.559C48.3417 107.559 48.4802 107.598 48.5995 107.671C48.7187 107.744 48.8139 107.849 48.8736 107.973C48.9334 108.097 48.9553 108.235 48.9367 108.371L48.9321 108.4C48.7653 108.465 48.6029 108.541 48.4459 108.626C48.356 108.676 48.268 108.728 48.1819 108.783C48.0738 108.853 47.99 108.953 47.9415 109.069C47.893 109.186 47.8821 109.315 47.9103 109.438C47.9384 109.56 48.0042 109.672 48.0991 109.758C48.1941 109.845 48.3136 109.901 48.4422 109.92L48.4553 109.922C48.4648 109.923 48.473 109.925 48.4824 109.926C48.1974 110.585 47.7974 111.191 47.2999 111.719C46.8145 114.256 44.7297 114.497 42.4995 113.758H42.4982C42.2535 114.787 41.8989 115.789 41.4403 116.747H37.6612C37.6476 116.707 37.6355 116.665 37.6233 116.624C37.9731 116.646 38.3242 116.625 38.669 116.564C38.3886 116.231 38.1082 115.895 37.8278 115.562C37.8215 115.556 37.8157 115.549 37.8102 115.542C37.668 115.372 37.5244 115.203 37.3822 115.032L37.3821 115.032C37.3745 114.51 37.4366 113.988 37.5665 113.481Z" fill="#F2F2F2"/>
<path d="M64.8042 110.181L62.5959 111.571L56.0062 103.986L59.2656 101.935L64.8042 110.181Z" fill="#A0616A"/>
<path d="M66.38 112.363L59.589 116.638L59.5331 116.554C59.0773 115.876 58.9187 115.05 59.092 114.258C59.2654 113.466 59.7565 112.773 60.4575 112.332L61.0862 110.639L64.0126 110.094L64.6054 109.72L66.38 112.363Z" fill="#2F2E41"/>
<path d="M26.9578 113.824L24.3236 113.824L23.0706 103.987L26.9584 103.987L26.9578 113.824Z" fill="#A0616A"/>
<path d="M27.0506 116.484L18.9501 116.484V116.385C18.9502 115.575 19.2824 114.799 19.8737 114.226C20.4649 113.654 21.2669 113.332 22.1031 113.332L23.5829 112.246L26.3436 113.333L27.0507 113.333L27.0506 116.484Z" fill="#2F2E41"/>
<path d="M54.2241 53.1259L30.6024 53.6287L28.261 56.4621C28.261 56.4621 28.4634 55.4631 28.2832 56.5604C28.103 57.6576 23.5459 79.5347 24.4073 80.2684C25.2688 81.0021 22.7739 86.0679 22.5906 86.3769C22.4074 86.6858 20.4325 101.934 22.5906 103.188L23.4014 108.511H27.1737C27.1737 108.511 30.9527 104.277 30.1922 103.51C29.4317 102.742 31.6068 100.19 31.6899 98.8215C31.7731 97.453 32.5673 91.2459 31.952 90.2506C31.3366 89.2554 30.5048 85.5204 32.0658 84.0725C33.6267 82.6245 40.9068 64.8312 40.9068 64.8312C40.9068 64.8312 43.0224 85.6911 43.0174 87.329C43.011 89.4591 44.4558 88.4049 44.4558 90.2749C44.4558 90.6527 49.1605 100.363 52.3225 103.398L58.8612 108.267L61.879 106.076V102.911C61.879 102.911 59.0823 97.0384 58.1067 96.0939C57.1311 95.1494 53.5288 92.2583 53.5288 90.936C53.5288 89.6137 51.8331 89.1531 52.9736 87.4C54.1142 85.6469 53.7239 84.8913 53.3337 84.1357C52.9435 83.3801 53.6835 52.4214 53.6835 52.4214L54.2241 53.1259Z" fill="#2F2E41"/>
<path d="M12.3911 14.7422C12.8586 14.658 13.3416 14.7537 13.7374 15.009C14.1331 15.2643 14.4104 15.659 14.5101 16.1091C14.5289 16.2009 14.5398 16.2941 14.5427 16.3877L26.1712 20.7076L23.772 24.0754L12.6789 18.1325C12.2772 18.1141 11.8932 17.9676 11.5867 17.7157C11.2801 17.4638 11.0683 17.1208 10.9844 16.7401C10.9387 16.5231 10.9377 16.2994 10.9813 16.082C11.0249 15.8646 11.1124 15.6576 11.2387 15.4729C11.3649 15.2881 11.5275 15.1293 11.7172 15.0054C11.9068 14.8815 12.1199 14.795 12.3441 14.7509C12.3597 14.7478 12.3754 14.7449 12.3911 14.7422Z" fill="#A0616A"/>
<path d="M18.9614 22.0027C18.9614 22.0027 21.7835 23.4943 25.1477 25.1227C25.3809 25.2345 25.6147 25.3479 25.8544 25.4611C27.893 26.4348 30.0668 27.425 31.8976 28.1415C33.8514 28.9097 35.4175 29.3705 36.0179 29.1793C36.0684 29.1647 36.1159 29.1417 36.1583 29.1115C37.7308 27.9583 36.5075 29.097 37.6669 29.8711C38.8304 30.6456 38.2081 29.3041 39.5985 27.8731C40.9855 26.4433 40.3923 27.5816 41.5671 28.6283C41.9332 28.9569 43.7504 28.2088 46.0713 27.0279C45.4821 24.6788 45.1368 22.5929 45.1368 22.5929C44.6234 21.2415 43.9639 19.9464 43.1693 18.7293C38.8945 20.1837 35.3667 21.4057 35.2081 21.5242C34.7974 21.8274 33.6688 21.8404 32.3374 21.6347C32.1477 21.6052 31.7753 21.5128 31.2762 21.3741C30.8352 21.2527 30.2995 21.0964 29.7026 20.9199C29.0301 20.7168 28.0582 20.823 27.5077 20.2461C25.9137 18.5829 26.7642 19.9459 26.5046 19.9357C26.2085 19.9234 25.7403 20.0458 25.4181 19.9911C25.3339 19.9865 25.2538 19.9544 25.1908 19.9001C25.1278 19.8458 25.0857 19.7724 25.0713 19.6919C25.0597 19.6233 25.0582 19.5534 25.0669 19.4844C25.1279 18.931 24.7448 19.0171 24.3813 19.0924C24.2358 19.137 24.0813 19.1472 23.9309 19.1221C22.1364 18.5517 20.7731 18.1082 20.7731 18.1082L20.5394 18.6143L20.5383 18.6167L19.151 21.5987L18.9614 22.0027Z" fill="#D9D9D9"/>
<path d="M53.8448 57.3147C55.7825 60.9468 53.6644 65.1252 53.6644 65.1252L28.3204 56.6467L28.5721 52.7526L30.9502 50.8543L30.0254 50.2737L30.0401 50.2169L31.7325 44.2397L32.8649 40.242L33.2634 38.837L33.8925 36.6119L34.9139 33.0061L35.6353 30.4621L36.5769 27.1346L37.4241 24.1337L37.5793 23.5896L37.9568 22.2557L38.1225 21.667L38.4559 20.4975L39.3304 17.4054C39.7194 17.4021 40.108 17.3783 40.4943 17.3343C40.8844 17.2957 40.9725 15.3142 41.3982 15.2574C43.51 14.9731 45.7833 14.362 47.1821 15.0137C47.6058 15.2106 48.0965 15.8685 48.5746 16.6014C49.1639 17.5028 49.7323 18.5139 50.1328 18.9077C50.649 19.4204 51.1112 19.9815 51.5127 20.5827C51.5209 20.5921 51.528 20.6023 51.5337 20.6133C52.1641 21.5702 52.6771 22.5949 53.0625 23.6668C53.3683 24.498 53.617 25.3478 53.807 26.2107C53.9454 26.8279 54.058 27.4506 54.1447 28.0786C54.3289 29.3826 54.4207 30.6972 54.4194 32.0133C54.4194 32.0133 53.8406 34.8171 53.4442 38.0675C53.1506 40.4653 52.9556 43.1047 53.1674 45.0437C53.2932 46.2212 53.57 47.1389 54.065 47.5876C56.2229 49.5407 54.4382 51.6421 54.0377 52.0643C54.1992 51.9628 54.627 51.9608 55.2289 53.9688C55.361 54.4053 53.5637 56.7909 53.8448 57.3147Z" fill="#D9D9D9"/>
<path d="M44.4616 14.2089C48.0531 14.2089 50.9647 11.3902 50.9647 7.91319C50.9647 4.43614 48.0531 1.61743 44.4616 1.61743C40.87 1.61743 37.9585 4.43614 37.9585 7.91319C37.9585 11.3902 40.87 14.2089 44.4616 14.2089Z" fill="#A0616A"/>
<path d="M48.7945 12.6067C48.6855 12.361 48.7799 11.8271 49.193 10.9094C49.6837 10.4424 49.5369 9.27907 48.6981 9.53083L48.7002 9.62422C47.3957 5.80526 39.2944 7.53989 39.8146 4.49776C39.716 5.18602 39.0953 4.53228 38.4556 4.30082C38.204 4.21149 37.751 5.73623 37.6252 5.09263C37.5622 4.76575 36.6121 4.98172 36.5681 4.69749C37.2035 4.20819 38.5794 3.0055 38.8038 2.25023C38.3469 2.56316 37.8543 2.82408 37.3358 3.02783C38.8818 -0.630605 41.1554 -0.29733 43.1658 0.563065C44.4135 1.09705 46.4059 -0.600286 48.1025 0.240251C50.9127 1.62897 53.2531 5.55756 52.1542 7.19803C53.6956 9.15726 49.2706 13.6949 48.7945 12.6067Z" fill="#2F2E41"/>
<path d="M6.27692 116.5C6.27681 116.566 6.28416 116.631 6.29856 116.692C6.31296 116.752 6.33412 116.808 6.36082 116.854C6.38752 116.9 6.41924 116.937 6.45415 116.962C6.48906 116.987 6.52646 117 6.56422 117H67.7127C67.7889 117 67.862 116.947 67.9159 116.854C67.9697 116.76 68 116.633 68 116.5C68 116.367 67.9697 116.24 67.9159 116.146C67.862 116.053 67.7889 116 67.7127 116H6.56422C6.52646 116 6.48906 116.013 6.45415 116.038C6.41924 116.063 6.38752 116.1 6.36082 116.146C6.33412 116.192 6.31296 116.248 6.29856 116.308C6.28416 116.369 6.27681 116.434 6.27692 116.5Z" fill="#CCCCCC"/>
<path d="M10.427 38.4787C15.1823 38.4787 19.0373 34.7466 19.0373 30.1429C19.0373 25.5392 15.1823 21.8071 10.427 21.8071C5.67166 21.8071 1.81671 25.5392 1.81671 30.1429C1.81671 34.7466 5.67166 38.4787 10.427 38.4787Z" fill="#3484F4"/>
<path d="M11.9981 14.8564C10.8635 14.1681 10.0582 14.0585 10.1358 14.9071H10.1652C10.6721 14.9063 11.1781 14.9491 11.6772 15.035C11.9792 15.0855 12.2782 15.1519 12.5727 15.234C12.3735 15.0959 12.1826 14.968 11.9981 14.8564ZM18.6229 21.3167C18.1676 19.5412 17.1283 17.9571 15.6618 16.8034C15.2932 16.5104 14.8997 16.2482 14.4853 16.0197C13.883 15.6838 13.2407 15.42 12.5727 15.234C14.2609 16.4258 16.4021 18.5941 17.5555 20.7462C18.0525 21.67 18.3671 22.5917 18.3839 23.4323C18.4093 24.346 18.2702 25.2569 17.9728 26.1244C16.9096 29.178 13.9002 31.1473 10.205 31.1473C6.6902 31.1473 3.85066 29.3668 2.649 26.563C2.22984 25.5695 2.01815 24.5054 2.02615 23.4323C2.02615 18.8885 10.8258 18.2652 10.1652 15.104C10.151 15.0391 10.1412 14.9733 10.1358 14.9071C8.32521 14.9138 6.56179 15.4668 5.09096 16.489C3.62013 17.5113 2.51505 18.952 1.92949 20.6107C1.34393 22.2694 1.30701 24.0636 1.82389 25.7435C2.34076 27.4235 3.38571 28.9056 4.81333 29.9838C6.24094 31.0619 7.98021 31.6825 9.7891 31.759C11.598 31.8355 13.3865 31.3642 14.9058 30.4106C16.4251 29.4571 17.5996 28.0688 18.2658 26.4389C18.932 24.809 19.0569 23.0185 18.6229 21.3167Z" fill="#3F3D56"/>
<path d="M10.0773 35.8071C10.4773 35.4862 10.9909 35.3291 11.5088 35.3692C12.0266 35.4093 12.5079 35.6434 12.8501 36.0218C12.9185 36.0998 12.98 36.1831 13.0341 36.2709L26.5048 34.4128L26.063 38.8616L12.2127 38.8951C11.8192 39.0842 11.3722 39.1419 10.9414 39.0591C10.5105 38.9764 10.1201 38.7579 9.83103 38.4377C9.66834 38.254 9.54463 38.0411 9.46695 37.8111C9.38926 37.5811 9.35913 37.3385 9.37827 37.0973C9.39741 36.856 9.46545 36.6208 9.5785 36.4049C9.69155 36.1891 9.84741 35.997 10.0372 35.8395C10.0504 35.8285 10.0638 35.8177 10.0773 35.8071Z" fill="#A0616A"/>
<path d="M53.0625 23.6668C50.1433 28.576 46.5173 34.2811 45.5442 34.0537C43.8497 33.6598 43.7931 32.2671 43.2541 34.346C42.7131 36.4271 44.0406 37.3854 42.5097 37.2473C40.9766 37.1031 41.5177 35.3876 40.6495 37.2961C40.5153 37.5925 39.9386 37.8463 39.0578 38.0615C37.6862 38.4005 35.5786 38.6502 33.2633 38.837C31.8163 38.9507 30.2896 39.0421 28.8111 39.1132C24.3505 39.3243 20.3366 39.3568 20.3366 39.3568L20.2946 38.8756L19.9821 35.3125L19.9276 34.7094C19.9276 34.7094 23.153 34.1268 26.4015 33.5035C29.3144 32.9451 32.2483 32.3564 32.9005 32.1229C34.2847 31.6357 35.3542 31.0428 35.5786 30.5433C35.5949 30.5147 35.6139 30.4875 35.6352 30.4621C35.8282 30.2104 36.5034 29.445 37.487 28.3527C40.0539 25.5022 44.7137 20.4265 48.3628 16.4653C48.4341 16.51 48.5033 16.5547 48.5746 16.6013C49.1639 17.5028 49.7322 18.5139 50.1328 18.9077C50.6489 19.4204 51.1112 19.9815 51.5127 20.5827C51.5209 20.5921 51.5279 20.6023 51.5336 20.6132C52.164 21.5702 52.6771 22.5949 53.0625 23.6668Z" fill="#D9D9D9"/>
</svg>
