<svg width="205" height="64" viewBox="0 0 205 64" fill="none" xmlns="http://www.w3.org/2000/svg">
<path d="M25.5502 22.8364V29.6727H42.0483C41.6103 33.4545 40.2963 36.3636 38.2523 38.2545C35.9162 40.5818 32.1202 43.2 25.5502 43.2C15.4761 43.2 7.59205 35.0545 7.59205 25.0182C7.59205 14.9818 15.3301 6.83636 25.5502 6.83636C30.9522 6.83636 35.0402 9.01818 37.9603 11.7818L42.7783 6.98182C38.6903 3.05455 33.1422 0 25.5502 0C11.6801 0 0 11.2 0 25.0182C0 38.8364 11.6801 50.0364 25.5502 50.0364C32.9962 50.0364 38.6903 47.5636 43.0703 43.0545C47.5963 38.5455 49.0563 32.1455 49.0563 27.0545C49.0563 25.4545 48.9103 24 48.7643 22.8364H25.5502Z" fill="#4285F4"/>
<path d="M69.4965 17.1636C60.5904 17.1636 53.1443 23.9999 53.1443 33.309C53.1443 42.6181 60.4444 49.4545 69.4965 49.4545C78.5485 49.4545 85.8486 42.7636 85.8486 33.4545C85.8486 23.9999 78.5485 17.1636 69.4965 17.1636ZM69.4965 43.1999C64.5324 43.1999 60.2984 39.1272 60.2984 33.4545C60.2984 27.6363 64.5324 23.709 69.4965 23.709C74.4605 23.709 78.6945 27.6363 78.6945 33.4545C78.6945 39.1272 74.4605 43.1999 69.4965 43.1999Z" fill="#EA4335"/>
<path d="M149.359 20.7999H149.067C147.461 18.909 144.395 17.1636 140.453 17.1636C132.277 17.1636 125.269 24.1454 125.269 33.309C125.269 42.3272 132.277 49.4545 140.453 49.4545C144.395 49.4545 147.461 47.709 149.067 45.8181H149.359V48.1454C149.359 54.2545 146.001 57.5999 140.745 57.5999C136.365 57.5999 133.737 54.5454 132.569 51.7818L126.437 54.3999C128.189 58.6181 133.007 63.9999 140.891 63.9999C149.213 63.9999 156.367 59.0545 156.367 47.1272V18.0363H149.651V20.7999H149.359ZM141.183 43.1999C136.219 43.1999 132.569 38.9818 132.569 33.4545C132.569 27.7818 136.365 23.709 141.183 23.709C146.001 23.709 149.797 27.9272 149.797 33.5999C149.943 39.1272 146.147 43.1999 141.183 43.1999Z" fill="#4285F4"/>
<path d="M105.851 17.1636C96.9446 17.1636 89.4986 23.9999 89.4986 33.309C89.4986 42.6181 96.7986 49.4545 105.851 49.4545C114.903 49.4545 122.203 42.7636 122.203 33.4545C122.203 23.9999 114.903 17.1636 105.851 17.1636ZM105.851 43.1999C100.887 43.1999 96.6526 39.1272 96.6526 33.4545C96.6526 27.6363 100.887 23.709 105.851 23.709C110.815 23.709 115.049 27.6363 115.049 33.4545C115.049 39.1272 110.815 43.1999 105.851 43.1999Z" fill="#FBBC05"/>
<path d="M161.769 0.727051H168.777V49.5998H161.769V0.727051Z" fill="#34A853"/>
<path d="M190.385 43.1999C186.735 43.1999 184.253 41.5999 182.501 38.2545L204.255 29.3818L203.525 27.4908C202.211 23.8545 197.977 17.1636 189.655 17.1636C181.333 17.1636 174.325 23.709 174.325 33.309C174.325 42.3272 181.187 49.4545 190.385 49.4545C197.831 49.4545 202.065 44.9454 203.963 42.3272L198.415 38.6908C196.517 41.4545 194.035 43.1999 190.385 43.1999ZM189.947 23.2727C192.867 23.2727 195.349 24.7272 196.079 26.7636L181.479 32.8727C181.333 26.1818 186.297 23.2727 189.947 23.2727Z" fill="#EA4335"/>
</svg>
