<svg width="65" height="64" viewBox="0 0 65 64" fill="none" xmlns="http://www.w3.org/2000/svg">
<path d="M14.0466 58.0457C17.3866 44.1921 13.4216 43.7181 13.4216 36.996C13.4216 34.7553 15.1887 29.3905 15.4472 26.7835C16.0506 20.7939 14.5637 22.3883 18.9382 17.95L19.1967 11.788C21.3947 9.67657 22.4937 7.78059 25.1873 8.44849C26.825 13.3177 23.722 11.788 23.4203 17.476C25.252 19.9106 26.4802 20.1476 27.8594 23.207C29.6048 27.0851 28.355 27.0421 31.652 30.2954C36.5005 30.8556 39.4311 30.8771 42.9005 27.3868C43.2668 23.6595 41.1119 23.9826 43.3099 20.5569C44.8183 18.2085 46.3052 16.9373 49.1281 17.8853C50.0547 21.548 45.8958 22.3021 47.1887 26.3742C52.7698 26.9343 54.0628 19.2427 58.3294 18.8549C58.3294 27.0636 49.753 28.1409 49.5591 34.8199C49.4298 38.9997 53.1362 50.5048 56.8857 52.961C60.1826 47.8979 63.7382 42.3823 64.1476 36.2634C67.0136 -5.49129 11.7624 -13.0968 1.26811 23.4655C0.729384 25.34 0.406152 27.236 0.25531 29.1319V33.9796C1.18191 46.0019 8.59471 56.5591 14.0466 58.0457Z" fill="#EF4635"/>
<path d="M30.2082 63.6477C45.1415 65.4144 43.5685 60.8038 40.6163 43.8045C39.4526 37.104 38.0951 33.5705 30.1435 34.1954C25.1873 40.0772 27.687 51.5393 27.8594 56.5593C27.9887 60.5237 27.3206 60.7822 30.2082 63.6477ZM47.3826 59.5541C49.8823 59.2525 50.3133 58.7354 52.3388 57.1195C52.6621 53.6938 50.3133 48.1782 46.65 47.0794C44.926 50.3974 45.4217 56.3008 47.3826 59.5541ZM22.7738 62.3981C22.7738 58.2183 23.291 49.5787 21.1361 46.6054C18.2701 47.4457 19.1536 49.9018 19.1321 55.1373C19.1105 58.9724 18.3994 62.0103 22.7738 62.3981Z" fill="#EF4635"/>
</svg>
