<svg width="68" height="117" viewBox="0 0 68 117" fill="none" xmlns="http://www.w3.org/2000/svg">
<g clip-path="url(#clip0_1315_1608)">
<path d="M9.51342 116.735C9.51342 116.882 9.63209 117 9.77986 117H67.7336C67.8813 117 68 116.882 68 116.735C68 116.588 67.8813 116.47 67.7336 116.47H9.77986C9.63209 116.47 9.51342 116.588 9.51342 116.735Z" fill="#484565"/>
<path d="M39.9904 0.0733862C39.9904 0.0733862 35.0848 -1.10904 32.1159 6.0345C29.6418 11.9889 27.8865 15.1688 29.8948 17.3288C30.6136 18.1015 31.639 18.5179 32.6958 18.5535L44.0026 18.9232C44.0026 18.9232 48.1537 8.09651 45.6304 4.18181C43.1071 0.26489 39.9904 0.0733862 39.9904 0.0733862Z" fill="#2F2E41"/>
<path d="M42.3324 18.0237L36.8939 19.803V12.0159H41.8286L42.3324 18.0237Z" fill="#F6A6A9"/>
<path d="M38.1589 112.384H33.063L30.1098 85.3105H37.9843L38.1589 112.384Z" fill="#F6A6A9"/>
<path d="M28.1014 116.735C27.5663 116.735 27.0894 116.722 26.7289 116.688C25.3743 116.566 24.0847 115.573 23.4354 114.991C23.1443 114.731 23.0503 114.314 23.2025 113.956C23.3122 113.698 23.5294 113.506 23.7981 113.43L27.3737 112.415L33.1637 108.529L33.2287 108.645C33.2533 108.687 33.822 109.707 34.0123 110.395C34.084 110.658 34.0661 110.876 33.9563 111.043C33.8802 111.161 33.775 111.228 33.6877 111.266C33.7929 111.375 34.122 111.596 35.1318 111.756C36.6095 111.99 36.9185 110.467 36.9319 110.402L36.9409 110.351L36.9857 110.322C37.6887 109.872 38.1208 109.667 38.2709 109.709C38.3649 109.736 38.5194 109.783 38.9381 113.929C38.9806 114.058 39.2739 115.014 39.0746 115.924C38.8575 116.918 34.4982 116.575 33.625 116.497C33.6003 116.499 30.3359 116.731 28.0992 116.731V116.735H28.1014Z" fill="#2F2E41"/>
<path d="M49.6672 112.384H44.5736L41.6181 85.3105H49.4926L49.6672 112.384Z" fill="#F6A6A9"/>
<path d="M39.612 116.735C39.0769 116.735 38.6 116.722 38.2395 116.688C36.8849 116.566 35.5953 115.573 34.946 114.991C34.6549 114.731 34.5609 114.314 34.7131 113.956C34.8228 113.698 35.04 113.506 35.3087 113.43L38.8843 112.415L44.6743 108.529L44.7393 108.645C44.7639 108.687 45.3326 109.707 45.5229 110.395C45.5946 110.658 45.5766 110.876 45.4669 111.043C45.3908 111.161 45.2856 111.228 45.1982 111.266C45.3035 111.375 45.6326 111.596 46.6424 111.756C48.1201 111.99 48.4291 110.467 48.4425 110.402L48.4515 110.351L48.4963 110.322C49.1993 109.872 49.6314 109.667 49.7814 109.709C49.8755 109.736 50.03 109.783 50.4487 113.929C50.4912 114.058 50.7845 115.014 50.5852 115.924C50.368 116.918 46.0088 116.575 45.1356 116.497C45.1109 116.499 41.8465 116.731 39.6098 116.731V116.735H39.612Z" fill="#2F2E41"/>
<path d="M51.1338 45.8874H26.3796L35.2773 16.7632H45.1468L51.1338 45.8874Z" fill="#DDDEDF"/>
<path d="M25.7057 62.2298C25.4102 64.0134 24.2145 65.2938 23.0346 65.0867C21.8547 64.8797 21.136 63.2675 21.4315 61.4838C21.539 60.769 21.8233 60.0943 22.2599 59.5131L23.6078 51.9709L27.2775 52.7347L25.5579 60.0876C25.7841 60.7824 25.8356 61.5172 25.7079 62.2298H25.7057Z" fill="#F6A6A9"/>
<path d="M36.8357 16.7676C36.8357 16.7676 30.6874 16.6073 30.0404 18.215C29.3933 19.825 21.7897 58.1213 21.7897 58.1213H26.805L36.8357 16.7676Z" fill="#DDDEDF"/>
<path d="M38.141 13.8551C41.1347 13.8551 43.5616 11.4415 43.5616 8.46406C43.5616 5.48666 41.1347 3.073 38.141 3.073C35.1473 3.073 32.7204 5.48666 32.7204 8.46406C32.7204 11.4415 35.1473 13.8551 38.141 13.8551Z" fill="#F6A6A9"/>
<path d="M38.9918 1.85257C38.9918 1.85257 32.0331 12.147 33.204 18.5691L29.156 16.0461C29.156 16.0461 32.0062 3.04613 36.2535 2.03739L38.9918 1.85034V1.85257Z" fill="#2F2E41"/>
<path d="M45.9886 45.8875H29.7448L20.8561 82.1685C20.6926 83.7006 21.6688 85.1302 23.1667 85.5288C28.0432 86.827 39.7441 88.6685 57.4566 83.5425C59.1605 83.0504 60.1278 81.2622 59.5926 79.5788L45.9886 45.8897V45.8875Z" fill="#2F2E41"/>
<path d="M24.0802 21.9293L23.9683 21.818L23.8563 21.9293C18.4089 16.516 9.58059 16.5227 4.13763 21.9405C-1.30532 27.3605 -1.41503 36.2498 4.0324 41.6631L23.9817 61.4838L43.9176 41.6386C49.3605 36.2186 49.2463 27.3293 43.8011 21.916C38.3537 16.5026 29.5254 16.5093 24.0824 21.9271L24.0802 21.9293Z" fill="#3484F4"/>
<path d="M38.8127 19.4889L43.313 17.1931C45.3706 16.436 47.6656 16.6898 49.506 17.8812C55.1035 21.5019 66.1372 29.485 61.395 33.4309C55.146 38.6326 46.6984 29.407 46.6984 29.407L38.8127 19.4889Z" fill="#DDDEDF"/>
<path d="M38.7142 23.4124C37.1491 22.4949 36.3812 20.9228 37.0013 19.9007C37.6215 18.8809 39.3926 18.7985 40.9599 19.7159C41.5913 20.0744 42.1219 20.5821 42.507 21.1967L49.0896 25.1738L47.0476 28.3002L40.774 24.047C40.0396 24.0047 39.3321 23.7865 38.7119 23.4101H38.7142V23.4124Z" fill="#F6A6A9"/>
<path d="M43.1876 27.0177L45.0594 22.5708L54.2057 25.5814L50.115 32.3531L43.1876 27.0177Z" fill="#DDDEDF"/>
</g>
<defs>
<clipPath id="clip0_1315_1608">
<rect width="68" height="117" fill="white"/>
</clipPath>
</defs>
</svg>
