<svg width="389" height="64" viewBox="0 0 389 64" fill="none" xmlns="http://www.w3.org/2000/svg">
<g clip-path="url(#clip0_1348_937)">
<path d="M3.21865e-06 63.9961H389V0.00390625H3.21865e-06V63.9961Z" fill="#009989"/>
<path d="M3.21865e-06 63.9961H389V0.00390625H3.21865e-06V63.9961Z" stroke="#009989" stroke-width="3.14465"/>
<path d="M48.4415 54.0308C70.9008 54.0308 89.1519 45.3357 89.1519 32.8304C89.1519 21.9859 70.8518 11.5322 48.3926 11.5322C42.9613 11.5322 38.3618 11.5322 33.3219 12.5092V13.6816C39.634 14.512 44.8206 16.2706 45.1142 18.9573C45.4078 21.644 41.6401 22.3279 30.1903 23.3537C15.8536 24.6238 10.0798 28.8248 9.73724 36.0544C9.29686 45.4823 25.9333 54.0308 48.4415 54.0308Z" fill="white" stroke="white" stroke-width="3.14465"/>
<path d="M42.5209 13.9259C42.5209 13.9259 47.7075 15.0495 47.6586 19.2505C47.6097 24.4773 39.5361 24.575 32.8326 25.3078C25.3462 26.0893 21.1381 26.6267 17.4194 28.5806C15.2664 29.7042 12.2327 31.4627 12.037 36.2011C11.8902 41.1837 19.4255 46.1663 24.4654 47.7783C29.0649 49.2926 32.6858 50.4161 35.9642 50.8069L36.062 50.4161C36.062 50.4161 29.016 48.8041 25.1994 45.6289C22.2635 43.1865 20.5999 40.7929 21.2849 37.5689C21.9699 34.296 25.1994 30.6811 33.3219 29.4599C41.8358 28.1898 46.9247 27.8968 51.2795 26.2359C55.4386 24.6239 55.8301 21.5952 55.8301 20.7159C55.8301 19.8367 55.2918 16.2707 51.1816 14.8541C46.9736 13.3886 45.6525 13.4374 42.5209 13.4863V13.9259Z" fill="#FBB907"/>
<path d="M50.9859 13.877C50.9859 13.877 60.7232 14.6586 63.3165 19.9831C65.9098 25.3076 59.6956 28.8248 57.4448 29.5575C55.194 30.2902 50.6923 31.3161 49.2244 31.5115C47.7565 31.7069 41.5912 32.7815 39.8786 33.5143C38.166 34.2959 33.6155 35.7613 33.3219 40.1577C33.0283 44.5541 36.6003 47.3874 40.4169 48.9506C44.2335 50.5137 50.4966 52.0769 57.5916 51.393C64.6376 50.6603 74.277 47.9736 78.8765 44.7495C83.476 41.4767 86.1672 38.8877 86.6565 34.9309C87.1458 30.9741 86.314 26.9197 79.904 22.4256C73.8855 18.1757 67.9649 16.5148 65.9587 16.0263C63.9526 15.5378 55.2429 13.4373 51.0838 13.4862L50.9859 13.877Z" fill="#FBB907"/>
<path d="M42.5209 13.3886C42.5209 13.3886 46.8268 12.949 52.1113 13.6329C59.0106 14.561 64.2951 17.5408 64.2951 22.2791C64.2951 25.3566 62.4357 27.4083 60.087 28.7761C55.4876 31.4139 46.8757 32.2443 42.6677 33.2213C38.4107 34.1983 33.8601 36.0546 33.7133 40.2067C33.3708 48.3157 46.3864 51.9305 56.613 51.4908C66.8395 51.0512 43.9888 53.2983 33.4687 50.2208C23.7315 47.3875 20.5999 42.3561 20.7467 38.3505C20.8445 34.7845 24.025 29.753 37.8235 28.3364C51.6709 26.9198 55.0472 24.7704 55.2918 21.0091C55.5854 17.2965 51.1327 13.7794 42.472 13.8771V13.3886H42.5209Z" fill="#009989"/>
<path d="M372.657 14.0721C372.657 12.8998 373.097 11.8251 373.929 11.0435C374.761 10.2131 375.838 9.77344 376.963 9.77344C378.137 9.77344 379.214 10.2131 379.997 11.0435C380.829 11.8739 381.269 12.9486 381.269 14.0721C381.269 16.4657 379.361 18.3709 376.963 18.3709C375.789 18.3709 374.712 17.9312 373.929 17.1008C373.097 16.2704 372.657 15.1957 372.657 14.0721Z" fill="#009989" stroke="white" stroke-width="3.14465"/>
<path d="M378.137 14.463C378.92 14.2676 379.361 13.6814 379.361 12.851C379.361 12.3136 379.214 11.9228 378.92 11.6298C378.578 11.2878 378.088 11.1413 377.452 11.1413H374.859V16.8566H375.838V14.5118H377.061L378.529 16.8566H379.703L378.137 14.463ZM378.382 12.851C378.382 13.4372 378.088 13.6814 377.354 13.6814H375.838V12.0205H377.354C377.746 12.0205 378.039 12.1182 378.186 12.2648C378.333 12.4113 378.382 12.6067 378.382 12.851ZM357.195 30.3878L371.923 9.72464H357.391L349.855 22.3765L342.271 9.72464H299.31V54.3238H339.825L349.806 38.6432L359.495 54.3238H374.321L357.195 30.3878ZM332.093 44.7005H311.396V35.6635H331.115V26.0402H311.396V19.3479H334.442L342.32 30.3878L332.093 44.7005ZM297.891 24.5747C297.891 20.0318 296.619 16.417 294.074 13.9257C291.285 11.1413 287.077 9.72464 281.499 9.72464H259.138V24.3305C258.012 20.618 256.104 17.3451 253.462 14.7072C249.4 10.6528 243.92 8.50342 237.657 8.50342C230.268 8.50342 224.69 11.4344 220.874 15.7819V9.72464H186.133V15.7819C185.839 15.44 185.497 15.098 185.154 14.7561C181.093 10.7016 175.613 8.55227 169.35 8.55227C157.508 8.55227 150.169 16.1239 147.722 25.1121V9.72464H130.89L123.404 40.2064L116.113 9.72464H99.0849V54.3238H110.192V24.2816L118.07 54.3238H128.59L136.272 24.4282V54.3726H147.771V39.1317C148.848 43.0397 150.805 46.5568 153.594 49.3412C157.655 53.3956 163.135 55.545 169.398 55.545C175.662 55.545 181.142 53.3956 185.203 49.3412C189.558 44.9936 191.956 38.8386 191.956 32.0486C191.956 27.408 190.83 23.0604 188.726 19.3967H197.534V54.3726H209.62V19.3479H218.427C216.225 23.1581 215.149 27.6034 215.149 31.9998C215.149 38.7898 217.546 44.9448 221.901 49.2923C225.963 53.3468 231.443 55.4962 237.706 55.4962C243.969 55.4962 249.449 53.3468 253.511 49.2923C256.153 46.6545 258.061 43.3816 259.187 39.6691V54.2749H271.272V38.7409H277.193L285.756 54.3238H299.31V54.2749L289.23 36.6404C294.515 34.7842 297.891 30.1435 297.891 24.5747ZM169.35 45.189C166.463 45.189 164.114 44.3097 162.401 42.5512C159.319 39.4737 158.878 34.6376 158.878 31.9998C158.878 27.2614 160.004 23.7443 162.255 21.4973C164.016 19.7387 166.414 18.8594 169.398 18.8594C172.236 18.8594 174.536 19.7387 176.298 21.4973C178.597 23.7932 179.87 27.5545 179.87 31.9998C179.87 38.399 177.13 45.189 169.35 45.189ZM237.706 45.189C234.819 45.189 232.47 44.3097 230.758 42.5512C227.675 39.4737 227.235 34.6376 227.235 31.9998C227.235 27.2614 228.36 23.7443 230.611 21.4973C232.372 19.7387 234.77 18.8594 237.755 18.8594C240.593 18.8594 242.893 19.7387 244.654 21.4973C246.954 23.7932 248.226 27.5545 248.226 31.9998C248.226 38.399 245.486 45.189 237.706 45.189ZM280.618 29.4596H271.272V19.006H280.618C284.043 19.0548 285.805 20.8134 285.805 24.2328C285.805 27.6522 284.043 29.4108 280.618 29.4596Z" fill="white"/>
<path d="M299.31 54.3238V9.72464H342.271L349.855 22.3765L357.391 9.72464H371.923L357.195 30.3878L374.321 54.3238H359.495L349.806 38.6432L339.825 54.3238H299.31ZM299.31 54.3238H285.756L277.193 38.7409H271.272V54.2749H259.187V39.6691C258.061 43.3816 256.153 46.6545 253.511 49.2923C249.449 53.3468 243.969 55.4962 237.706 55.4962C231.443 55.4962 225.963 53.3468 221.901 49.2923C217.546 44.9448 215.149 38.7898 215.149 31.9998C215.149 27.6034 216.225 23.1581 218.427 19.3479H209.62V54.3726H197.534V19.3967H188.726C190.83 23.0604 191.956 27.408 191.956 32.0486C191.956 38.8386 189.558 44.9936 185.203 49.3412C181.142 53.3956 175.662 55.545 169.398 55.545C163.135 55.545 157.655 53.3956 153.594 49.3412C150.805 46.5568 148.848 43.0397 147.771 39.1317V54.3726H136.272V24.4282L128.59 54.3238H118.07L110.192 24.2816V54.3238H99.0849V9.72464H116.113L123.404 40.2064L130.89 9.72464H147.722V25.1121C150.169 16.1239 157.508 8.55227 169.35 8.55227C175.613 8.55227 181.093 10.7016 185.154 14.7561C185.497 15.098 185.839 15.44 186.133 15.7819V9.72464H220.874V15.7819C224.69 11.4344 230.268 8.50342 237.657 8.50342C243.92 8.50342 249.4 10.6528 253.462 14.7072C256.104 17.3451 258.012 20.618 259.138 24.3305V9.72464H281.499C287.077 9.72464 291.285 11.1413 294.074 13.9257C296.619 16.417 297.891 20.0318 297.891 24.5747C297.891 30.1435 294.515 34.7842 289.23 36.6404L299.31 54.2749V54.3238ZM378.137 14.463C378.92 14.2676 379.361 13.6814 379.361 12.851C379.361 12.3136 379.214 11.9228 378.92 11.6298C378.578 11.2878 378.088 11.1413 377.452 11.1413H374.859V16.8566H375.838V14.5118H377.061L378.529 16.8566H379.703L378.137 14.463ZM378.382 12.851C378.382 13.4372 378.088 13.6814 377.354 13.6814H375.838V12.0205H377.354C377.746 12.0205 378.039 12.1182 378.186 12.2648C378.333 12.4113 378.382 12.6067 378.382 12.851ZM332.093 44.7005H311.396V35.6635H331.115V26.0402H311.396V19.3479H334.442L342.32 30.3878L332.093 44.7005ZM169.35 45.189C166.463 45.189 164.114 44.3097 162.401 42.5512C159.319 39.4737 158.878 34.6376 158.878 31.9998C158.878 27.2614 160.004 23.7443 162.255 21.4973C164.016 19.7387 166.414 18.8594 169.398 18.8594C172.236 18.8594 174.536 19.7387 176.298 21.4973C178.597 23.7932 179.87 27.5545 179.87 31.9998C179.87 38.399 177.13 45.189 169.35 45.189ZM237.706 45.189C234.819 45.189 232.47 44.3097 230.758 42.5512C227.675 39.4737 227.235 34.6376 227.235 31.9998C227.235 27.2614 228.36 23.7443 230.611 21.4973C232.372 19.7387 234.77 18.8594 237.755 18.8594C240.593 18.8594 242.893 19.7387 244.654 21.4973C246.954 23.7932 248.226 27.5545 248.226 31.9998C248.226 38.399 245.486 45.189 237.706 45.189ZM280.618 29.4596H271.272V19.006H280.618C284.043 19.0548 285.805 20.8134 285.805 24.2328C285.805 27.6522 284.043 29.4108 280.618 29.4596Z" stroke="white" stroke-width="3.14465"/>
</g>
<defs>
<clipPath id="clip0_1348_937">
<rect width="389" height="64" fill="white"/>
</clipPath>
</defs>
</svg>
