<svg width="275" height="64" viewBox="0 0 275 64" fill="none" xmlns="http://www.w3.org/2000/svg">
<g clip-path="url(#clip0_1348_1027)">
<path d="M99.3886 26.9487H107.982C110.598 26.9487 112.466 27.6971 113.961 28.8196C115.455 29.9421 116.576 31.4387 116.576 33.3096C116.576 34.8062 116.576 37.0513 115.829 38.1738C115.082 39.2963 113.961 40.0446 112.466 40.7929L108.356 41.5413H104.62V49.0246H99.3886V26.9487ZM104.62 31.8129V37.4254H107.609L110.224 36.6771C110.971 35.9287 110.971 35.1804 110.971 34.4321C110.971 33.6837 110.598 32.9354 109.851 32.5612C109.103 31.8129 108.356 31.8129 107.235 31.8129H104.62ZM119.565 26.9487H133.39V31.4387H124.423V35.1804H133.016V40.0446H124.423V44.1604H133.39V49.0246H119.565V26.9487ZM138.247 26.9487H147.215C149.457 26.9487 150.951 27.6971 152.446 28.8196C153.567 29.9421 154.314 31.8129 154.314 33.3096C154.687 34.8062 154.314 35.9287 153.94 37.0513C153.193 38.1738 151.325 39.6704 149.457 40.0446L156.556 49.0246H150.204L143.852 40.0446H143.105V49.0246H138.247V26.9487ZM143.105 31.4387V37.0513H144.973C147.588 37.0513 149.083 35.5546 149.083 33.6837C149.083 31.4387 146.841 31.4387 145.346 31.4387H143.105ZM156.556 26.9487H173.37V31.8129H167.765V49.0246H162.16V31.8129H156.556V26.9487ZM179.721 26.9487H184.952L192.425 49.0246H186.821L185.7 44.9088H178.974L177.48 49.0246H172.249L179.721 26.9487ZM182.337 34.0579L179.721 40.7929H184.205L182.337 34.0579ZM197.656 26.9487H202.887L206.624 39.2963L211.107 26.9487H216.338L218.954 49.0246H214.096L212.602 36.6771L207.745 49.0246H205.876L201.019 36.3029L199.151 49.0246H194.293L197.656 26.9487ZM222.317 26.9487H227.548V49.0246H222.317V26.9487ZM246.977 27.3229H251.834V49.0246H246.603L237.262 35.9287V49.0246H232.405V27.3229H237.262L246.977 40.7929V27.3229ZM262.296 26.9487H267.901L275 49.0246H269.769L268.274 44.9088H261.549L260.054 49.0246H254.823L262.296 26.9487ZM264.912 34.0579L262.67 40.7929H267.154L264.912 34.0579Z" fill="#082313"/>
<path d="M0 63.9913L20.1766 32.1871C22.7921 27.3229 25.4076 26.9487 33.2541 26.9487H50.4416C49.3206 28.0712 47.4524 29.5679 46.3315 31.8129L28.7704 59.8755C26.9022 62.8688 23.5394 63.9913 19.0557 63.9913H0Z" fill="#006CB8"/>
<path d="M68.3763 26.9487C60.5299 26.9487 57.9144 27.3229 54.9253 32.1871L44.0897 49.0246H64.2663C67.6291 49.0246 70.9918 47.5279 72.4864 44.9088L84.0693 26.9487H68.3763Z" fill="#ACC42A"/>
<path d="M60.1562 0.00878906C68.0027 0.00878906 70.2446 0.382957 73.2337 4.87297L84.0693 21.7105H64.2663C60.9035 21.7105 57.5407 20.2138 56.0462 17.9688L44.0897 0.00878906H60.1562Z" fill="#ED1B2F"/>
</g>
<defs>
<clipPath id="clip0_1348_1027">
<rect width="275" height="64" fill="white"/>
</clipPath>
</defs>
</svg>
