<svg width="22" height="23" viewBox="0 0 22 23" fill="none" xmlns="http://www.w3.org/2000/svg">
<path d="M0.277001 8.85801C1.606 14.138 8.863 21.4 14.142 22.723C14.8546 22.9036 15.5868 22.9957 16.322 22.997C17.719 22.9964 19.0946 22.653 20.328 21.997C20.7602 21.7713 21.1332 21.4471 21.417 21.0506C21.7008 20.6542 21.8874 20.1965 21.9618 19.7147C22.0362 19.2328 21.9962 18.7402 21.8451 18.2766C21.694 17.8131 21.436 17.3915 21.092 17.046L19.006 14.96C18.5638 14.518 17.9987 14.2195 17.3844 14.1033C16.7701 13.9872 16.135 14.0589 15.562 14.309C15.0153 14.5451 14.5167 14.8797 14.091 15.296C13.913 15.473 13.585 15.501 13.114 15.373C11.8792 14.8712 10.7574 14.1271 9.81488 13.1847C8.87232 12.2423 8.12805 11.1207 7.626 9.88601C7.5 9.41501 7.526 9.08601 7.704 8.90901C8.12083 8.48271 8.45573 7.98341 8.692 7.43601C8.94154 6.86323 9.0129 6.2286 8.8968 5.61471C8.78069 5.00082 8.48249 4.43609 8.041 3.99401L5.955 1.90901C5.61344 1.56326 5.19457 1.3037 4.73293 1.15173C4.2713 0.999769 3.78014 0.95976 3.3 1.03501C2.81442 1.10632 2.3527 1.29191 1.95284 1.5765C1.55299 1.86109 1.22642 2.23656 1 2.67201C-0.00729752 4.57067 -0.265311 6.77824 0.277001 8.85801ZM2.773 3.60001C2.85463 3.44375 2.97214 3.30908 3.1159 3.20704C3.25966 3.105 3.42556 3.03851 3.6 3.01301C3.65523 3.00421 3.71108 2.99986 3.767 3.00001C3.91097 2.99996 4.05351 3.02849 4.18638 3.08393C4.31924 3.13938 4.43977 3.22064 4.541 3.32301L6.626 5.40801C6.7828 5.56297 6.88942 5.76146 6.93204 5.97775C6.97465 6.19405 6.9513 6.41815 6.865 6.62101C6.72844 6.94657 6.53357 7.24445 6.29 7.50001C5.93232 7.88108 5.6877 8.35414 5.58351 8.86629C5.47931 9.37844 5.51965 9.90947 5.7 10.4C6.422 13.1 9.905 16.579 12.6 17.3C13.0924 17.48 13.6253 17.5192 14.1388 17.4133C14.6523 17.3073 15.1261 17.0603 15.507 16.7C15.7611 16.4567 16.0572 16.2615 16.381 16.124C16.584 16.0375 16.8083 16.014 17.0248 16.0566C17.2413 16.0993 17.44 16.206 17.595 16.363L19.68 18.448C19.8026 18.5693 19.8946 18.7179 19.9485 18.8817C20.0023 19.0454 20.0166 19.2197 19.99 19.39C19.964 19.5647 19.8969 19.7307 19.7941 19.8743C19.6914 20.0179 19.5559 20.135 19.399 20.216C17.9389 21.0007 16.2346 21.1996 14.633 20.772C10.089 19.641 3.36 12.912 2.216 8.37001C1.78903 6.76698 1.98818 5.06153 2.773 3.60001Z" fill="black" fill-opacity="0.4"/>
</svg>
