<svg width="64" height="64" viewBox="0 0 64 64" fill="none" xmlns="http://www.w3.org/2000/svg">
<g clip-path="url(#clip0_1348_846)">
<path fill-rule="evenodd" clip-rule="evenodd" d="M-2.18182 -2.18164H66.1818V66.182H-2.18182V-2.18164Z" fill="white"/>
<path fill-rule="evenodd" clip-rule="evenodd" d="M32.2057 0.858838L32.8618 0.871606C32.9004 1.11597 32.8618 1.36033 32.8749 1.61782L32.2316 1.63094C32.1542 1.86254 32.2057 2.13244 32.2057 2.37715C32.5273 2.48001 32.8487 2.6084 33.093 2.89177C33.5176 2.82722 33.9034 3.04605 34.1099 3.43193C34.3024 3.1489 34.6238 2.95561 34.9841 2.95561C35.3061 2.9815 35.615 3.12301 35.7952 3.4188C35.8598 3.56031 35.9108 3.70183 35.9499 3.86923C36.0709 3.76262 36.2172 3.68889 36.3749 3.65511C36.5326 3.62133 36.6963 3.62862 36.8503 3.67629C37.0947 3.76637 37.3905 3.97243 37.4806 4.25546C37.532 4.39697 37.5061 4.53848 37.5444 4.69276C37.8533 4.57714 38.2523 4.56401 38.5612 4.78284C38.8702 5.04033 39.0117 5.47763 38.8957 5.88939L38.9212 5.91528C39.2947 5.85073 39.6416 6.03126 39.8731 6.33982L39.8994 6.35258C40.092 5.96671 40.5041 5.761 40.9414 5.8252C41.1985 5.88939 41.5074 6.01814 41.6362 6.30116L41.7518 6.58453C42.0607 6.36571 42.5753 6.36571 42.9101 6.61007C43.1804 6.84167 43.3215 7.16335 43.2829 7.53645C43.5794 7.40771 43.9397 7.35628 44.2611 7.54958C44.4037 7.64149 44.5216 7.76693 44.6046 7.91494C44.6876 8.06294 44.733 8.22901 44.737 8.39864L44.6984 8.83594C44.9817 8.73309 45.3162 8.81041 45.574 9.01611C45.7921 9.24771 45.9344 9.55626 45.8953 9.90384C45.8698 10.0581 45.7797 10.1869 45.7407 10.328C46.0496 10.3411 46.3323 10.5341 46.5125 10.8299C46.6412 11.0742 46.6543 11.4473 46.5 11.7176L46.2557 12.0393C46.3326 12.091 46.4614 12.1162 46.577 12.1804C46.8473 12.3734 47.0147 12.6695 47.053 13.004C47.0661 13.1969 46.9505 13.3512 46.9373 13.5313C47.1952 13.686 47.3878 13.9945 47.4133 14.3034C47.4009 14.4964 47.3232 14.6638 47.2463 14.8308C47.4651 15.2298 47.4906 15.8601 47.1948 16.2332C46.9991 16.4433 46.7463 16.5917 46.4675 16.6602C46.1887 16.7288 45.8959 16.7144 45.6251 16.619C45.136 17.1081 44.4543 17.3397 43.811 17.2365C43.7464 17.4039 43.6822 17.5969 43.5152 17.7001C43.3606 17.7643 43.1939 17.7898 43.0516 17.7515C42.0866 17.327 41.1343 16.9021 40.1569 16.6194C37.3653 15.5902 34.3028 15.0372 31.2793 15.1142C31.1505 15.127 30.9963 15.127 30.8547 15.1525C27.4195 15.3586 24.2672 16.2718 21.2313 17.5586C20.8192 17.6486 20.3432 18.125 19.9577 17.6745C19.8846 17.5627 19.8404 17.4345 19.8289 17.3014C19.2111 17.3528 18.6582 17.2241 18.195 16.8255C17.6804 16.9287 17.0629 16.7996 16.7157 16.3367C16.4582 16.0023 16.4969 15.4618 16.6384 15.0887C16.3681 14.8443 16.2266 14.4967 16.3554 14.1495C16.4335 13.9304 16.589 13.7474 16.7927 13.6349C16.6898 13.4033 16.6253 13.1331 16.7026 12.8756C16.8054 12.5156 17.114 12.2326 17.4875 12.1808L17.5002 12.1425C17.2559 11.8595 16.9984 11.5374 17.1399 11.1388C17.2296 10.7657 17.59 10.4699 17.9631 10.4312V10.3667C17.7705 10.0968 17.7705 9.67224 17.9375 9.40199C18.1049 9.04165 18.4521 8.8746 18.838 8.90014L19.0696 8.92567C18.9668 8.64265 18.9281 8.29543 19.0955 8.02518C19.2881 7.69073 19.6225 7.4978 19.996 7.52333C20.1247 7.51092 20.279 7.56199 20.395 7.63931C20.3819 7.38182 20.4209 7.13746 20.5493 6.94452C20.7681 6.5973 21.2054 6.44267 21.6044 6.51999C21.72 6.54552 21.836 6.5973 21.9388 6.67426C22.0421 6.48133 22.1062 6.26285 22.2992 6.12099C22.5567 5.88939 22.9425 5.8252 23.2898 5.95394C23.4827 6.03126 23.6756 6.19831 23.7916 6.40437C24.036 6.16 24.319 5.9926 24.6921 6.06992C24.7049 5.94117 24.6407 5.79966 24.6534 5.67092C24.6666 5.3237 24.885 5.00202 25.2198 4.84774C25.4897 4.70623 25.8628 4.74489 26.1459 4.87328C26.0689 4.52606 26.159 4.17849 26.4161 3.9469C26.5326 3.8315 26.6756 3.74649 26.8326 3.69937C26.9897 3.65224 27.1559 3.64444 27.3166 3.67664C27.4581 3.7153 27.5869 3.80539 27.7153 3.89547C27.7926 3.80574 27.8053 3.65146 27.8958 3.54826C28.0501 3.26523 28.3331 3.09783 28.642 3.05953C28.9378 3.02087 29.1953 3.21381 29.4013 3.41987C29.5297 3.13685 29.8386 2.89248 30.1603 2.85382C30.3277 2.81517 30.4437 2.87936 30.6111 2.85382C30.804 2.60946 31.0998 2.50661 31.3828 2.4034L31.4211 2.33885V1.63094L30.7008 1.61782C30.6881 1.39899 30.6625 1.12909 30.7008 0.884374L31.3825 0.871606C31.4594 0.652778 31.3566 0.382879 31.4467 0.189941L32.1801 0.202709L32.2057 0.858838Z" fill="black"/>
<path fill-rule="evenodd" clip-rule="evenodd" d="M32.0387 1.01318C32.2188 1.03907 32.4763 1.0263 32.6951 1.0263C32.7207 1.16781 32.7207 1.34798 32.6951 1.4636H32.0642L32.0255 1.54092L32.0387 2.50596C32.2699 2.60881 32.5533 2.6347 32.7721 2.81487L33.0424 3.07201C33.173 3.03924 33.3097 3.03977 33.4401 3.07354C33.5705 3.10731 33.6903 3.17324 33.7886 3.2653C33.9042 3.39369 33.9819 3.54832 34.0198 3.72849C34.0585 3.74161 34.1361 3.76715 34.2007 3.71572C34.2645 3.40681 34.561 3.16244 34.8824 3.12379C35.1267 3.09825 35.3583 3.2011 35.5516 3.35538C35.7573 3.54832 35.7829 3.84411 35.7697 4.12749C35.963 4.30765 35.963 3.94732 36.1556 3.92143C36.3365 3.80581 36.5808 3.79304 36.8124 3.83134C36.9795 3.90866 37.1983 4.05017 37.2884 4.24311C37.4171 4.48747 37.3661 4.82192 37.2884 5.0794C37.3916 5.0794 37.4562 4.93789 37.5842 4.88647C37.8161 4.7063 38.1889 4.74496 38.4467 4.91236C38.6911 5.0794 38.7939 5.36243 38.7812 5.67134C38.7681 5.86428 38.64 5.99302 38.5879 6.16042L38.6265 6.18631C38.8322 6.07034 39.0511 6.01891 39.3082 6.09623C39.6171 6.21185 39.8104 6.52076 39.9129 6.84244C39.9384 6.86833 39.9516 6.8169 39.9775 6.79101C39.9906 6.46933 40.1576 6.13488 40.4921 6.03203C40.7623 5.91606 41.0968 5.98061 41.3415 6.18667C41.5341 6.36683 41.5859 6.63673 41.5986 6.91976L41.6242 6.94565C41.8175 6.68816 42.1008 6.52111 42.4608 6.59843C42.7052 6.64986 43.001 6.84279 43.0779 7.12582C43.1425 7.31875 43.1166 7.57624 43.0265 7.75641C43.0134 7.8206 43.0779 7.83337 43.129 7.87203C43.2968 7.73052 43.4893 7.58901 43.7468 7.58901C43.8806 7.58406 44.0134 7.61336 44.1327 7.67413C44.252 7.73489 44.3538 7.8251 44.4285 7.93622C44.6218 8.2579 44.5963 8.74663 44.3771 9.04278C44.3639 9.0942 44.4157 9.1584 44.4672 9.18429C44.686 8.99135 45.0463 8.87537 45.3421 9.05554C45.5865 9.20982 45.7156 9.49284 45.728 9.78899C45.6766 10.0465 45.5868 10.3036 45.3808 10.4579C45.3552 10.4834 45.3808 10.4962 45.4187 10.4962C45.7021 10.432 46.0497 10.5217 46.2813 10.7792C46.3838 10.9466 46.4746 11.1523 46.4359 11.3839C46.3841 11.6669 46.1014 11.8726 45.9855 12.1301C46.0234 12.2848 46.2298 12.1816 46.3582 12.2716C46.6161 12.3358 46.809 12.632 46.8728 12.8888C46.8604 13.1203 46.8349 13.3651 46.6927 13.5452V13.5839C46.9505 13.7382 47.2463 13.9698 47.2328 14.3301C47.2073 14.5103 47.1303 14.6773 47.0402 14.8192C47.2073 15.1022 47.2974 15.4753 47.2073 15.8357C47.0527 16.2347 46.6671 16.5046 46.2688 16.5432C45.9979 16.5563 45.7798 16.5177 45.5865 16.4276C45.0974 16.955 44.3256 17.2639 43.6177 17.0323C43.5532 17.0837 43.6177 17.1866 43.6177 17.2898C43.5922 17.4313 43.4507 17.5214 43.3475 17.5983L43.1418 17.6115C42.3956 17.2898 41.6621 16.9936 40.9418 16.6978C39.1018 16.0548 37.2366 15.4884 35.2934 15.2054C32.0255 14.6521 28.5133 15.0384 25.3355 15.9385C23.637 16.4145 22.0031 16.9936 20.4209 17.7267C20.2663 17.7267 20.1248 17.6111 20.0347 17.4951C19.9577 17.3664 20.0219 17.2121 20.0347 17.1093C19.4172 17.2249 18.7224 17.1093 18.2465 16.6333C17.8861 16.762 17.423 16.6975 17.1272 16.5046C16.8182 16.2985 16.6899 15.9899 16.6899 15.6424C16.7026 15.4235 16.7672 15.2434 16.8573 15.0636C16.6767 14.9089 16.51 14.7291 16.4838 14.4972C16.4455 14.1755 16.6384 13.9183 16.8956 13.7641C16.9342 13.7254 17.0243 13.7382 17.0502 13.6609C16.8573 13.4417 16.7927 13.1462 16.8828 12.876C16.986 12.6185 17.2045 12.3741 17.4875 12.3358C17.5645 12.2975 17.6936 12.349 17.745 12.2585C17.6677 12.04 17.4492 11.8726 17.3588 11.6797C17.2176 11.435 17.2818 11.1005 17.4488 10.8948C17.6549 10.6246 17.9893 10.5345 18.3107 10.599C18.3366 10.6118 18.3493 10.5604 18.3366 10.5473C18.0922 10.3671 17.9248 10.0709 17.9893 9.74927C18.028 9.47937 18.1951 9.20911 18.4653 9.10626C18.7742 8.97752 19.1214 9.0676 19.3789 9.27366C19.6878 9.11938 19.2502 9.04207 19.2502 8.87466C19.0959 8.60441 19.1342 8.2313 19.3147 7.98694C19.5204 7.74258 19.8166 7.61383 20.1379 7.70392C20.2666 7.74258 20.4337 7.83266 20.5238 7.96105C20.5756 7.94828 20.6266 7.90962 20.6653 7.87132C20.5238 7.65249 20.5238 7.3567 20.6266 7.12511C20.7944 6.81619 21.1285 6.66192 21.4629 6.67468C21.7073 6.67468 21.9134 6.84208 22.0808 7.02225C22.1708 6.91905 22.0935 6.752 22.1577 6.63602C22.2478 6.353 22.4922 6.09587 22.8011 6.05721C22.9467 6.03717 23.0951 6.05643 23.2307 6.11299C23.3664 6.16954 23.4845 6.26135 23.5728 6.37889C23.6633 6.4821 23.676 6.62326 23.7661 6.72646C23.8693 6.54629 24.0236 6.36613 24.2293 6.28881C24.4606 6.14765 24.7695 6.22461 25.0138 6.34059C25.0656 6.30193 25.0138 6.23774 24.9879 6.19908C24.8081 5.99302 24.7826 5.63268 24.8982 5.38832C25.0269 5.10529 25.3227 4.92513 25.6444 4.92513C25.9402 4.93825 26.1977 5.09217 26.3647 5.35001C26.4293 5.36278 26.4935 5.28546 26.5449 5.23404C26.352 5.01521 26.236 4.74531 26.3261 4.44917C26.3775 4.15338 26.6346 3.92178 26.9049 3.85759C27.1624 3.7675 27.445 3.87035 27.6511 4.05052L27.8699 4.32042C27.9728 4.23069 27.8568 4.02463 27.9341 3.89589C27.9983 3.61287 28.1916 3.35574 28.4874 3.25288C28.7062 3.16315 28.9896 3.26601 29.1822 3.44582C29.2978 3.52314 29.3365 3.67706 29.4393 3.78027C29.5294 3.62564 29.5553 3.40681 29.7096 3.26565C29.9284 3.04682 30.2884 2.9312 30.6232 3.05959C30.8807 2.78934 31.2151 2.59605 31.5879 2.53221C31.5879 2.18499 31.6138 1.83742 31.5879 1.4902L31.5237 1.46431H30.9062L30.8672 1.42601L30.8931 1.04013L31.5751 1.01424C31.601 0.808539 31.5751 0.576944 31.601 0.370884C31.7166 0.332226 31.8713 0.345348 32.0255 0.358116L32.0387 1.01318Z" fill="#EFC460"/>
<path fill-rule="evenodd" clip-rule="evenodd" d="M30.7519 3.3293C30.9576 3.48394 31.0221 3.77973 30.9448 4.03686C30.8289 4.25569 30.6104 4.44862 30.3784 4.47451C30.0826 4.46139 29.8124 4.333 29.7095 4.07552C29.6453 3.92088 29.6194 3.74107 29.6964 3.58644C29.7737 3.35484 29.9926 3.20056 30.2369 3.17467C30.4302 3.16226 30.5845 3.21333 30.7519 3.3293ZM33.8392 3.61233C33.9038 3.84392 33.8655 4.11418 33.7112 4.30711C33.5701 4.42273 33.4023 4.50005 33.2097 4.50005C33.0164 4.50005 32.8753 4.39684 32.7589 4.26845C32.6813 4.18282 32.6293 4.0771 32.6089 3.96335C32.5884 3.8496 32.6004 3.73239 32.6433 3.62509C32.7334 3.38073 32.9909 3.18779 33.2611 3.20056C33.4924 3.21333 33.7626 3.36796 33.8392 3.61233ZM35.5767 3.66375C35.6282 3.8308 35.6413 4.03686 35.5636 4.20391C35.4611 4.38443 35.2934 4.52559 35.1132 4.56424C34.8561 4.61567 34.5986 4.51282 34.4571 4.31988C34.3024 4.1656 34.3024 3.94677 34.3414 3.74107C34.4184 3.48358 34.6759 3.29029 34.9461 3.27788C35.1777 3.27788 35.448 3.40627 35.5767 3.66375Z" fill="black"/>
<path fill-rule="evenodd" clip-rule="evenodd" d="M30.6878 3.4962C30.8034 3.59941 30.8034 3.77958 30.7775 3.93386C30.7338 4.0689 30.6422 4.1833 30.52 4.25554C30.3785 4.31973 30.2114 4.2942 30.0958 4.24277C30.0388 4.21678 29.9877 4.17939 29.9457 4.13291C29.9037 4.08643 29.8716 4.03185 29.8515 3.97252C29.8 3.81788 29.8128 3.65084 29.9288 3.52209C30.0958 3.27773 30.4689 3.27773 30.6878 3.4962ZM33.6212 3.54798C33.7113 3.65119 33.7368 3.80547 33.7113 3.95975C33.6726 4.10126 33.5566 4.23 33.441 4.2942C33.2864 4.31973 33.1452 4.37116 33.0289 4.28108C32.8618 4.21688 32.7849 4.06225 32.7849 3.90797C32.7586 3.7278 32.7973 3.57352 32.9519 3.47031C33.1452 3.2905 33.441 3.35505 33.6212 3.54798ZM35.3321 3.59941C35.409 3.70226 35.4608 3.84377 35.4477 3.99805C35.4068 4.14453 35.3158 4.27204 35.1906 4.35839C35.0618 4.43571 34.9072 4.41017 34.7916 4.38428C34.6504 4.31973 34.5472 4.20376 34.5082 4.07537C34.4568 3.88243 34.4958 3.6636 34.6884 3.54763C34.8565 3.39335 35.1654 3.41924 35.3321 3.59941Z" fill="white"/>
<path fill-rule="evenodd" clip-rule="evenodd" d="M29.1953 3.70231C29.3368 3.89489 29.3755 4.19104 29.2595 4.42263C29.118 4.59003 28.9506 4.73119 28.7449 4.74431C28.5005 4.75744 28.2689 4.64111 28.1533 4.4354C28.0501 4.29424 28.0373 4.08818 28.076 3.92078C28.1533 3.66365 28.4104 3.47036 28.6807 3.44482C28.8736 3.44518 29.0538 3.54803 29.1953 3.70231Z" fill="black"/>
<path fill-rule="evenodd" clip-rule="evenodd" d="M29.002 3.74081C29.1307 3.85679 29.1694 4.02383 29.1435 4.20365C29.1176 4.34516 28.9892 4.48702 28.8733 4.55122C28.7445 4.60264 28.5516 4.58988 28.4487 4.49979C28.32 4.40971 28.2171 4.2682 28.2303 4.1008C28.2303 3.92063 28.32 3.75322 28.5002 3.66349C28.642 3.58653 28.8736 3.5993 29.002 3.74081Z" fill="white"/>
<path fill-rule="evenodd" clip-rule="evenodd" d="M37.1721 4.34586C37.2366 4.51326 37.2366 4.73174 37.1597 4.88637C37.0309 5.13109 36.7475 5.27225 36.4904 5.24671C36.284 5.22082 36.0914 5.09172 36.0013 4.91226C35.8857 4.7062 35.8981 4.39729 36.0659 4.20435C36.2205 3.98588 36.5163 3.90892 36.7855 3.99865C36.9274 4.06284 37.0951 4.19123 37.1721 4.34586ZM27.5742 4.204C27.6642 4.34551 27.7543 4.48737 27.7284 4.68031C27.7025 4.87325 27.5997 5.05342 27.4454 5.16904C27.3417 5.23522 27.2212 5.27038 27.0982 5.27038C26.9752 5.27038 26.8547 5.23522 26.751 5.16904C26.6472 5.10335 26.565 5.00857 26.5147 4.8965C26.4643 4.78443 26.4481 4.66003 26.468 4.5388C26.4807 4.34586 26.596 4.17846 26.7765 4.07561C27.0209 3.9341 27.3809 3.95999 27.5742 4.204Z" fill="black"/>
<path fill-rule="evenodd" clip-rule="evenodd" d="M36.9142 4.26846C37.0174 4.39685 37.082 4.59014 37.0306 4.77031C36.9405 4.96325 36.7472 5.09164 36.5539 5.09164C36.3744 5.07887 36.2067 5.00191 36.1549 4.84763C36.0655 4.70612 36.0655 4.51318 36.1549 4.38444C36.1943 4.24293 36.3358 4.15284 36.4901 4.12695C36.6443 4.12695 36.7855 4.15249 36.9142 4.26846ZM27.4068 4.26846C27.5227 4.37132 27.5483 4.51283 27.5614 4.66746C27.5355 4.83451 27.4199 4.97602 27.2911 5.07923C27.1241 5.13101 26.9439 5.11788 26.8024 5.00226C26.6996 4.89906 26.6222 4.78344 26.635 4.64193C26.6095 4.48765 26.7123 4.37167 26.8024 4.26882C26.9695 4.12695 27.2397 4.08794 27.4068 4.26846Z" fill="white"/>
<path fill-rule="evenodd" clip-rule="evenodd" d="M32.4505 5.06599C32.5274 5.2075 32.553 5.40079 32.5019 5.56784C32.4242 5.8122 32.1543 5.99237 31.91 6.01826C31.6656 6.00549 31.3953 5.90264 31.2928 5.67104C31.2024 5.50364 31.1769 5.25928 31.2797 5.09188C31.3698 4.89929 31.5627 4.77055 31.7688 4.73154C31.9029 4.71137 32.0401 4.73257 32.1618 4.79232C32.2836 4.85208 32.3843 4.94754 32.4505 5.06599Z" fill="black"/>
<path fill-rule="evenodd" clip-rule="evenodd" d="M32.2699 5.10463C32.3476 5.22025 32.36 5.41354 32.3217 5.56782C32.2699 5.67067 32.1671 5.73522 32.0901 5.81218C31.9422 5.86178 31.7808 5.85264 31.6394 5.78665C31.4847 5.69656 31.395 5.54228 31.395 5.38765C31.3822 5.20748 31.4847 5.04043 31.6525 4.95035C31.8582 4.84749 32.1288 4.88615 32.2699 5.10463Z" fill="white"/>
<path fill-rule="evenodd" clip-rule="evenodd" d="M38.5872 5.29746C38.6773 5.51629 38.639 5.81208 38.4971 5.99225C38.2783 6.18519 38.0211 6.27527 37.7509 6.18519C37.5707 6.12064 37.4295 5.95359 37.3774 5.79896C37.3004 5.56736 37.3388 5.31023 37.5193 5.14283C37.5973 5.04941 37.7013 4.98122 37.8181 4.94688C37.9349 4.91254 38.0592 4.91359 38.1754 4.94989C38.3304 5.02757 38.4971 5.11765 38.5872 5.29746ZM26.236 5.4521C26.2874 5.58049 26.313 5.77378 26.2615 5.92806C26.197 6.09546 26.0427 6.24974 25.8884 6.32705C25.6441 6.40437 25.361 6.36571 25.206 6.19831C25.0135 6.01814 24.9234 5.722 25.0262 5.47763C25.1163 5.24639 25.322 5.1173 25.554 5.07864C25.8242 5.0531 26.1076 5.19461 26.236 5.4521Z" fill="black"/>
<path fill-rule="evenodd" clip-rule="evenodd" d="M38.4585 5.42632C38.484 5.54229 38.4585 5.68345 38.4198 5.79943C38.3049 5.95406 38.1495 6.04379 37.9829 6.05691C37.8158 6.05691 37.6871 5.97995 37.6101 5.8771C37.5582 5.82104 37.5224 5.75199 37.5065 5.67725C37.4907 5.60251 37.4953 5.52487 37.52 5.45256C37.5448 5.31105 37.6612 5.16919 37.8158 5.13124C38.0726 5.01455 38.3428 5.18196 38.4585 5.42632Z" fill="white"/>
<path fill-rule="evenodd" clip-rule="evenodd" d="M37.2877 6.84144C38.4329 7.87067 38.9216 9.28614 38.8705 10.8814L38.4329 11.2801C38.124 11.2545 37.8537 11.3187 37.648 11.5375C37.3909 11.8979 37.2621 12.3483 37.3391 12.7987C37.4168 13.1459 37.7512 13.3775 38.0984 13.429C38.086 13.6219 37.9059 13.8021 37.7771 13.9564C37.6407 14.0477 37.4863 14.1087 37.3243 14.1353C37.1623 14.1619 36.9964 14.1535 36.838 14.1106C36.4907 14.0337 36.2077 13.6861 36.1432 13.3644C36.0407 13.1069 36.2208 12.914 36.2333 12.6828C36.2392 12.5346 36.2096 12.3872 36.1469 12.2529C36.0842 12.1186 35.9903 12.0012 35.8729 11.9107C35.6541 11.7177 35.3328 11.7177 35.0881 11.8078C34.7923 11.9234 34.522 12.2196 34.522 12.5409C34.4706 12.7211 34.599 12.9012 34.4965 13.0683C34.3032 13.4027 33.9428 13.673 33.5704 13.6471C33.236 13.673 32.9526 13.4928 32.7593 13.2612C32.6182 13.081 32.5405 12.875 32.5667 12.6565C32.9012 12.6693 33.2995 12.631 33.5442 12.2962C33.7761 12.0004 33.6861 11.55 33.6988 11.2027C33.6602 10.9197 33.3899 10.6495 33.1459 10.5466L32.8625 10.4948C32.837 10.2246 32.6313 9.99298 32.399 9.86459L32.0518 9.73621V9.71031C32.322 9.633 32.5923 9.38863 32.6568 9.10561C32.7593 8.78393 32.5923 8.50091 32.4511 8.28244L32.4635 7.74193C32.6568 7.48444 32.7593 7.12446 32.6182 6.82831L32.4511 6.5194L32.4635 5.96613C32.6313 5.7473 32.6955 5.46428 32.6824 5.20714C34.4184 5.01456 35.9882 5.68346 37.2877 6.84144ZM31.0481 5.23339C31.0481 5.46499 31.1123 5.67069 31.1892 5.87675L31.1765 6.73858C30.9963 6.99607 31.0608 7.38194 31.1892 7.6522L31.1765 8.50162C31.0349 8.70732 31.0222 9.0549 31.1637 9.28614C31.2538 9.50496 31.4978 9.62058 31.7038 9.71067C31.601 9.77522 31.4464 9.78799 31.3435 9.83941C31.0477 9.92914 30.8803 10.2253 30.8161 10.4824C30.4689 10.6881 30.0568 10.8942 29.9284 11.2932C29.9412 11.6276 29.8124 12.0522 30.0827 12.3096C30.3011 12.6313 30.7129 12.6828 31.0733 12.67C31.0605 13.0303 30.8158 13.3907 30.4813 13.5318C30.1341 13.6865 29.7351 13.6219 29.4393 13.4549C29.2208 13.3006 29.0921 13.0818 29.0276 12.8629C29.0534 12.5671 29.0148 12.2582 28.8215 12.0397C28.7142 11.9275 28.579 11.8458 28.4298 11.8029C28.2806 11.7599 28.1226 11.7573 27.9721 11.7954C27.689 11.8727 27.3805 12.1298 27.3418 12.4387C27.2776 12.7345 27.3677 13.0176 27.5479 13.2492C27.5092 13.6223 27.2776 14.0085 26.8918 14.1241C26.4672 14.2397 26.0551 14.1496 25.7724 13.8407C25.6565 13.7123 25.5536 13.5708 25.5405 13.4166C25.8363 13.3392 26.1321 13.0562 26.1966 12.7473C26.2097 12.31 26.1069 11.8723 25.8363 11.5379C25.6306 11.3577 25.3731 11.2549 25.1028 11.2935L24.6396 10.7917C24.6265 8.88749 25.6948 7.30498 27.2259 6.10835C28.1909 5.37526 29.4258 5.18232 30.6998 5.19509L31.0481 5.23339Z" fill="black"/>
<path fill-rule="evenodd" clip-rule="evenodd" d="M25.9916 5.40066C26.1076 5.50351 26.1204 5.68333 26.1076 5.82519C26.0817 5.95394 25.9661 6.06956 25.8501 6.15964C25.7086 6.22384 25.5412 6.1983 25.4128 6.15964C25.3228 6.11084 25.2506 6.03469 25.2067 5.94219C25.1628 5.84969 25.1494 5.74563 25.1685 5.64502C25.1816 5.50351 25.2717 5.362 25.3997 5.29781C25.5926 5.1946 25.837 5.24638 25.9916 5.40066ZM36.2584 6.26285C37.2753 6.88032 38.1882 7.90955 38.4971 9.05476C36.7855 8.05107 34.6373 7.75528 32.6306 8.11561V7.78081C32.8363 7.53645 32.9008 7.18888 32.8108 6.87996C32.759 6.75158 32.7076 6.6356 32.6306 6.53239V5.97947C32.7852 5.7993 32.8363 5.58047 32.8618 5.34923C34.084 5.25879 35.2555 5.5936 36.2584 6.26285ZM30.8934 5.37477C30.9066 5.56771 30.9708 5.74752 31.0222 5.94081C30.9835 6.27526 31.0736 6.68703 30.919 7.00871C30.8807 7.22754 30.9317 7.45913 31.0222 7.6776L31.0091 8.11491C29.1691 7.80599 27.1751 7.99928 25.5667 8.82281C25.4125 8.86112 25.271 8.96433 25.1422 9.04164C25.438 8.01241 26.2615 7.18852 27.0847 6.4299C28.1143 5.52905 29.5166 5.31058 30.8934 5.37477Z" fill="white"/>
<path fill-rule="evenodd" clip-rule="evenodd" d="M41.2762 6.33977C41.4695 6.51994 41.4695 6.8285 41.3918 7.07286C41.2372 7.27892 41.0191 7.42008 40.774 7.42008C40.5169 7.40696 40.2725 7.25303 40.1956 7.0342C40.1179 6.86716 40.1055 6.64833 40.1956 6.4937C40.3112 6.28799 40.5045 6.14648 40.7357 6.13371C40.9286 6.10818 41.1219 6.18549 41.2762 6.33977ZM23.3799 6.3912C23.5086 6.51994 23.5859 6.70011 23.5725 6.89305C23.5597 7.07286 23.4827 7.21473 23.3667 7.34347C23.2121 7.47221 22.9936 7.51087 22.8007 7.48498C22.6078 7.45945 22.4404 7.33035 22.363 7.17607C22.2857 7.02179 22.2347 6.81573 22.3116 6.66145C22.3762 6.41709 22.6205 6.23692 22.8649 6.21103C23.0454 6.21103 23.2384 6.26281 23.3799 6.3912ZM39.6292 6.58414C39.7068 6.71252 39.6937 6.91858 39.6678 7.07286C39.5902 7.24282 39.4594 7.38288 39.2951 7.47186C39.1273 7.4974 38.9347 7.53605 38.7929 7.44597C38.5616 7.31723 38.4194 7.07286 38.4456 6.84127C38.4325 6.58414 38.6127 6.36531 38.8446 6.26246C39.1408 6.14683 39.4752 6.28799 39.6292 6.58414Z" fill="black"/>
<path fill-rule="evenodd" clip-rule="evenodd" d="M41.1344 6.44288C41.2252 6.5585 41.2898 6.71313 41.2507 6.88018C41.2121 6.99615 41.1344 7.12454 41.045 7.18874C40.8649 7.29194 40.646 7.27918 40.5049 7.1632C40.363 7.04758 40.2985 6.90572 40.3116 6.73867C40.3116 6.59716 40.4017 6.46841 40.5304 6.39145C40.6971 6.26306 40.9929 6.26306 41.1344 6.44288Z" fill="white"/>
<path fill-rule="evenodd" clip-rule="evenodd" d="M25.0266 6.58428C25.155 6.72579 25.2064 6.9315 25.1813 7.13756C25.1295 7.36916 24.9369 7.57486 24.7181 7.63941C24.5379 7.67771 24.3191 7.65218 24.1776 7.54933C24.036 7.42058 23.9073 7.26595 23.8945 7.08613C23.881 6.95484 23.9084 6.82259 23.9729 6.70744C24.0374 6.59229 24.1359 6.49986 24.2549 6.44277C24.512 6.31438 24.8081 6.37822 25.0266 6.58428Z" fill="black"/>
<path fill-rule="evenodd" clip-rule="evenodd" d="M23.2898 6.54563C23.4058 6.6616 23.4185 6.86731 23.3799 7.03436C23.3285 7.1631 23.2125 7.24042 23.0841 7.31738C22.8653 7.38193 22.6592 7.31738 22.5305 7.14998C22.4148 6.96981 22.4021 6.69955 22.5564 6.54528C22.6337 6.45519 22.7365 6.40412 22.8521 6.391C23.0195 6.36581 23.1742 6.41689 23.2898 6.54563ZM39.4497 6.58429C39.5267 6.67402 39.5267 6.82865 39.5267 6.97016C39.488 7.09891 39.3848 7.21453 39.2823 7.29184C39.1667 7.33015 39.038 7.36881 38.9351 7.33015C38.8064 7.29184 38.6907 7.18864 38.6517 7.07266C38.5872 6.94427 38.6003 6.76375 38.6641 6.64813C38.7418 6.49349 38.883 6.36511 39.0763 6.39064C39.2178 6.39135 39.3465 6.46867 39.4497 6.58429Z" fill="white"/>
<path fill-rule="evenodd" clip-rule="evenodd" d="M32.4632 6.86706C32.5277 7.0217 32.5533 7.25294 32.4763 7.42034C32.3862 7.57497 32.2443 7.71648 32.0904 7.76756C31.8461 7.8321 31.5754 7.78068 31.4084 7.61292C31.2669 7.48453 31.2282 7.31713 31.2158 7.14973C31.2158 6.86671 31.4084 6.62235 31.679 6.54503C31.9741 6.44253 32.3085 6.58404 32.4632 6.86706Z" fill="black"/>
<path fill-rule="evenodd" clip-rule="evenodd" d="M24.9237 6.72595C24.9879 6.8288 25.0266 6.97031 25.0135 7.09905C24.9748 7.24021 24.8847 7.38208 24.756 7.45939C24.6017 7.51117 24.4215 7.52359 24.2928 7.42073C24.22 7.37777 24.1609 7.31512 24.1223 7.24C24.0836 7.16488 24.067 7.08036 24.0743 6.9962C24.0871 6.85469 24.1257 6.71318 24.2669 6.63586C24.4478 6.494 24.7695 6.50747 24.9237 6.72595ZM32.2575 6.85469C32.3352 6.97067 32.3862 7.15048 32.3352 7.30511C32.2699 7.44662 32.1546 7.58814 32.0131 7.62679C31.8581 7.66545 31.717 7.62679 31.6014 7.5626C31.4598 7.45975 31.3698 7.29235 31.3953 7.1253C31.3825 6.97067 31.485 6.84228 31.6141 6.75219C31.8067 6.63586 32.0901 6.64863 32.2575 6.85469Z" fill="white"/>
<path fill-rule="evenodd" clip-rule="evenodd" d="M42.923 7.15037C42.9875 7.31777 42.9617 7.52347 42.885 7.69052C42.7304 7.90935 42.4605 8.06363 42.1903 8.01255C42.0101 7.97354 41.8427 7.87104 41.7781 7.71677C41.6501 7.56213 41.637 7.33054 41.7143 7.16313C41.7913 6.91877 42.0225 6.7386 42.2803 6.7386C42.5371 6.71307 42.7815 6.906 42.923 7.15037ZM21.9648 7.16313C22.029 7.31777 22.0546 7.52347 22.0031 7.69052C21.9003 7.94801 21.6304 8.10228 21.3601 8.11505C21.1541 8.08952 20.9484 7.98631 20.8327 7.81926C20.7295 7.65222 20.6912 7.44616 20.7554 7.26599C20.8327 7.03439 21.0643 6.86734 21.3087 6.82869C21.5658 6.79003 21.8102 6.93154 21.9648 7.16313Z" fill="black"/>
<path fill-rule="evenodd" clip-rule="evenodd" d="M42.6657 7.07317C42.7558 7.18879 42.7945 7.35619 42.7558 7.52359C42.6972 7.66167 42.5927 7.77529 42.46 7.84527C42.2412 7.88393 42.0479 7.81938 41.9199 7.65233C41.8298 7.52359 41.8036 7.33065 41.8812 7.18879C41.9199 7.03451 42.0869 6.95755 42.2416 6.90577C42.3824 6.88023 42.537 6.95755 42.6657 7.07317ZM21.7587 7.16325C21.8487 7.2661 21.8743 7.42074 21.8615 7.57502C21.8097 7.7293 21.6686 7.88393 21.5271 7.93536C21.3724 7.97366 21.2181 7.92259 21.1022 7.84527C20.9734 7.7293 20.8578 7.60091 20.9092 7.42074C20.9092 7.29235 20.999 7.17637 21.1022 7.09941C21.2827 6.93166 21.6044 6.97031 21.7587 7.16325Z" fill="white"/>
<path fill-rule="evenodd" clip-rule="evenodd" d="M44.3636 8.12804C44.4282 8.29544 44.4282 8.52704 44.3381 8.69444C44.1969 8.90014 43.9653 9.05478 43.721 9.02889C43.5408 9.00299 43.3865 8.95157 43.2964 8.82283C43.2359 8.7576 43.1897 8.68041 43.1608 8.59624C43.1319 8.51206 43.1209 8.42276 43.1287 8.3341C43.1333 8.22947 43.1655 8.12793 43.2221 8.03978C43.2786 7.95164 43.3575 7.88004 43.4507 7.83225C43.5919 7.74216 43.7844 7.71663 43.9653 7.7677C44.1347 7.83988 44.2749 7.96676 44.3636 8.12804ZM40.4783 8.12804C40.53 8.29544 40.5428 8.52704 40.4527 8.69444C40.3626 8.87461 40.1956 8.96469 40.0413 9.02889C39.8736 9.04165 39.6554 9.05442 39.5398 8.95157C39.2955 8.79729 39.1795 8.5398 39.2309 8.28267C39.2689 8.08973 39.3721 7.92233 39.5522 7.83225C39.7151 7.75348 39.902 7.74025 40.0743 7.7953C40.2466 7.85034 40.3912 7.96945 40.4783 8.12804ZM20.3951 8.03795C20.5756 8.24401 20.5756 8.57846 20.4724 8.82283C20.3564 9.02889 20.1252 9.13174 19.9063 9.11862C19.6361 9.10549 19.3917 8.89979 19.3275 8.65542C19.263 8.38517 19.3531 8.11492 19.585 7.96064C19.8031 7.75529 20.189 7.79359 20.3951 8.03795ZM24.2676 8.19223C24.4091 8.38517 24.4223 8.68096 24.2932 8.89979C24.1648 9.09273 23.9591 9.18281 23.7402 9.19558C23.6446 9.19691 23.55 9.17683 23.4631 9.13682C23.3763 9.09681 23.2995 9.03787 23.2384 8.96434C23.0969 8.81006 23.071 8.604 23.1097 8.41106C23.1352 8.23089 23.2771 8.05072 23.4441 7.97341C23.7402 7.84502 24.0747 7.90957 24.2676 8.19223Z" fill="black"/>
<path fill-rule="evenodd" clip-rule="evenodd" d="M44.2224 8.21879C44.248 8.35994 44.2224 8.48869 44.1845 8.61743C44.0681 8.81037 43.8756 8.88768 43.7078 8.87491C43.5532 8.84902 43.412 8.7334 43.3606 8.61743C43.2574 8.47592 43.2829 8.30852 43.3606 8.167C43.3993 7.9996 43.5794 7.93541 43.7333 7.90952C43.9266 7.89711 44.1199 8.02549 44.2224 8.21879ZM40.2346 8.07692C40.3247 8.17977 40.3626 8.33441 40.3502 8.48869C40.3115 8.61743 40.2215 8.73305 40.1183 8.82313C39.9381 8.9001 39.6937 8.9001 39.5522 8.77135C39.3976 8.61707 39.3465 8.4369 39.4242 8.2312C39.4621 8.0638 39.6292 7.93541 39.8101 7.92264C39.9767 7.89711 40.1183 7.96095 40.2346 8.07692Z" fill="white"/>
<path fill-rule="evenodd" clip-rule="evenodd" d="M42.2412 8.82289C43.013 9.32474 43.7333 10.0578 44.1199 10.9328C44.5313 11.8464 44.7501 12.8501 44.9303 13.879C44.8658 13.9691 44.7246 13.9435 44.6469 14.0336C44.2611 14.2776 44.1841 14.7025 44.0554 15.0887C44.0036 15.4491 44.21 15.7704 44.5313 15.9378L44.8526 16.0793V16.1439C44.5444 16.3755 44.1578 16.4655 43.7975 16.3623C43.4762 16.2595 43.1804 15.9892 43.0772 15.6807C43.0258 15.4877 42.9871 15.2689 43.0648 15.1019C43.2574 14.8575 43.335 14.5486 43.2574 14.2397C43.1673 13.9694 42.9101 13.7378 42.6658 13.6736C42.3569 13.5708 42.0224 13.6609 41.8298 13.8925C41.611 14.0723 41.5596 14.3298 41.5465 14.5869C41.2631 14.8958 40.8261 14.9987 40.4527 14.9341C40.1055 14.8699 39.7965 14.5997 39.6678 14.2911C39.6033 14.1496 39.5653 13.995 39.5901 13.8403C39.9122 13.9304 40.3757 14.0336 40.6839 13.7634C41.0059 13.4803 40.9928 13.0555 41.1084 12.6827C41.1084 12.3483 40.9414 12.0521 40.6839 11.9234C40.4913 11.8719 40.6591 11.6662 40.607 11.5375C40.5545 11.2965 40.4117 11.0848 40.208 10.9459V10.92C40.5424 10.9328 40.8903 10.7657 41.0574 10.4441C41.1861 10.1742 41.1343 9.78793 40.9549 9.56946C40.7616 9.35063 40.5045 9.26055 40.2346 9.27367C40.0537 9.06761 40.3757 9.10627 40.4403 8.97788C40.6843 8.75905 40.736 8.37318 40.646 8.07739C40.6204 8.03873 40.5945 8.0132 40.6328 7.9873C41.1475 8.24408 41.7266 8.44979 42.2412 8.82289Z" fill="black"/>
<path fill-rule="evenodd" clip-rule="evenodd" d="M20.3433 8.24403C20.4078 8.37277 20.4078 8.57883 20.3433 8.71999C20.3025 8.79925 20.2393 8.86473 20.1615 8.9082C20.0837 8.95167 19.9948 8.9712 19.906 8.96435C19.7517 8.95123 19.597 8.83561 19.5328 8.71999C19.5022 8.65603 19.4852 8.58638 19.4829 8.51549C19.4807 8.44459 19.4932 8.37401 19.5197 8.30822C19.5584 8.15395 19.7127 8.0252 19.8801 7.99967C20.0734 7.97342 20.2404 8.07663 20.3433 8.24403ZM24.1002 8.23091C24.1644 8.32099 24.229 8.42384 24.229 8.56536C24.2036 8.70368 24.1414 8.83259 24.0488 8.93846C23.9328 9.01578 23.7785 9.04167 23.6498 9.02855C23.4824 9.00266 23.3285 8.86115 23.2894 8.71963C23.238 8.59089 23.238 8.42384 23.3153 8.32064C23.3503 8.24784 23.405 8.18633 23.4732 8.14313C23.5415 8.09992 23.6205 8.07676 23.7012 8.07627C23.83 8.06386 23.9846 8.11529 24.1002 8.23091Z" fill="white"/>
<path fill-rule="evenodd" clip-rule="evenodd" d="M38.5741 9.3248C38.6642 9.81388 38.7287 10.3281 38.7028 10.8431L38.3556 11.1134C37.9442 11.0747 37.5963 11.2676 37.403 11.5893C37.236 12.0397 36.9402 12.6445 37.3005 13.1073C37.403 13.3261 37.6349 13.4676 37.8797 13.5318C37.8151 13.7248 37.6094 13.8925 37.4292 13.9567C37.1203 14.0596 36.7852 13.9695 36.5798 13.7765C36.361 13.5964 36.2578 13.3392 36.2964 13.0818C36.4121 12.8115 36.4376 12.4767 36.322 12.2068C36.1673 11.8723 35.7949 11.5766 35.4339 11.5893C35.0356 11.5762 34.7012 11.7564 34.4955 12.0912C34.3277 12.3224 34.3277 12.6445 34.3536 12.9275C34.238 13.1718 34.0064 13.4293 33.7234 13.4807C33.402 13.5063 33.0807 13.4417 32.9005 13.1718C32.8105 13.0686 32.7328 12.9402 32.7459 12.8115C33.0672 12.8243 33.4152 12.7218 33.6333 12.4512C33.9422 12.0912 33.8266 11.6021 33.839 11.1517C33.7876 10.8045 33.4918 10.5087 33.1963 10.3927L33.0162 10.3544C32.9261 10.0838 32.7072 9.81423 32.4501 9.69826C32.5726 9.6032 32.6729 9.48254 32.744 9.34471C32.815 9.20688 32.8552 9.0552 32.8615 8.90026C32.8484 8.66867 32.7583 8.46261 32.6558 8.29556C34.6508 7.93522 36.8887 8.17959 38.5741 9.3248ZM31.0091 8.29556C31.0346 8.47573 30.8931 8.63001 30.9063 8.8233C30.8931 9.15775 30.996 9.46631 31.279 9.67237C31.2148 9.71103 31.1247 9.74933 31.0605 9.80076C30.8417 9.98128 30.713 10.1742 30.636 10.4055C30.2757 10.5988 29.8898 10.8176 29.7483 11.229C29.7483 11.6532 29.6582 12.194 30.0313 12.5026C30.1395 12.6122 30.2704 12.6968 30.4149 12.7501C30.5593 12.8035 30.7138 12.8245 30.8672 12.8115C30.8417 13.0303 30.6619 13.2105 30.4814 13.352C30.1725 13.4935 29.7738 13.4935 29.5036 13.3006C29.3752 13.1591 29.1947 13.0048 29.1947 12.8115C29.233 12.4387 29.1305 12.0784 28.8343 11.834C28.5641 11.6152 28.191 11.5379 27.8693 11.6535C27.5086 11.7436 27.2259 12.1167 27.1876 12.4643C27.1231 12.7856 27.2518 13.0559 27.3802 13.3265C27.316 13.5836 27.1486 13.8794 26.8656 13.9695C26.6081 14.0468 26.2736 14.034 26.0548 13.8794C25.9137 13.7638 25.7977 13.6609 25.759 13.5063C26.0548 13.4034 26.2736 13.0945 26.3637 12.8115C26.4155 12.3228 26.2609 11.8723 26.0293 11.4992C25.8104 11.2418 25.5019 11.1134 25.1674 11.1261L24.8082 10.7268C24.8209 10.2381 24.8724 9.7621 25.0394 9.32444C25.4384 9.02865 25.9016 8.83536 26.3648 8.65555H26.4034C27.8572 8.10262 29.4397 8.0512 31.0091 8.29556Z" fill="#CE3829"/>
<path fill-rule="evenodd" clip-rule="evenodd" d="M22.9166 8.55303C22.9166 8.7715 23.0067 8.96479 23.1613 9.13184C23.2128 9.29889 23.6245 9.24746 23.4444 9.49182C23.0971 9.4404 22.7882 9.59503 22.6208 9.8777C22.4666 10.1221 22.4921 10.5207 22.6591 10.7654C22.7879 10.9197 22.9684 11.0357 23.1613 11.0867C23.0067 11.3056 22.878 11.5499 22.9297 11.8589C22.6595 11.9872 22.3896 12.2575 22.3896 12.5919C22.3768 12.9136 22.4793 13.2098 22.5825 13.5056C22.6981 13.7244 22.9429 13.9301 23.2128 13.956C23.5089 13.9943 23.7788 13.8659 24.0622 13.8145C24.1395 14.2262 23.9076 14.6121 23.5603 14.8309C23.2387 15.0239 22.8269 15.037 22.4797 14.8955C22.2867 14.7667 22.0679 14.6121 21.9909 14.3936C21.9264 14.0978 21.6437 13.8787 21.3862 13.7889C21.2491 13.7571 21.1066 13.7555 20.9687 13.7844C20.8309 13.8133 20.7011 13.872 20.5883 13.9563C20.3567 14.1365 20.2538 14.4451 20.2925 14.754C20.2925 14.9856 20.434 15.1657 20.601 15.3328C20.6141 15.68 20.4726 15.9889 20.2151 16.2336C19.8548 16.5167 19.3402 16.5039 18.9671 16.2978V16.2592C19.2756 16.079 19.5587 15.7704 19.5846 15.4097C19.5331 15.0494 19.3657 14.7281 19.2242 14.4064C19.1214 14.2518 18.9671 14.1879 18.7997 14.1489C18.8894 12.9909 19.2111 11.8972 19.6874 10.881C20.0091 10.1863 20.5109 9.50424 21.1926 9.10559C21.7328 8.66829 22.3378 8.38492 22.9684 8.15332C22.9812 8.28277 22.9039 8.41152 22.9166 8.55303ZM32.3347 8.43705C32.5142 8.60445 32.5787 8.90024 32.4887 9.14461C32.4241 9.32478 32.2315 9.45352 32.0641 9.51771C31.7939 9.58226 31.4977 9.50495 31.3438 9.27335C31.2868 9.19946 31.2478 9.11327 31.2299 9.02165C31.2121 8.93003 31.2158 8.83551 31.2409 8.74561C31.2537 8.56544 31.408 8.42393 31.5626 8.3342C31.7811 8.21858 32.1287 8.23099 32.3347 8.43705Z" fill="black"/>
<path fill-rule="evenodd" clip-rule="evenodd" d="M44.1455 11.4345C43.2705 10.843 42.2924 10.534 41.3153 10.3152C41.3539 9.94212 41.2121 9.5949 40.9677 9.33741C40.8265 9.24733 40.6843 9.17001 40.5432 9.13171C40.7744 8.91288 40.8776 8.61709 40.8776 8.29541C42.2413 8.81003 43.7078 9.96765 44.1455 11.4345ZM22.7493 8.43692C22.6975 8.79726 22.8908 9.10582 23.1224 9.33741C22.8139 9.40196 22.505 9.6332 22.4021 9.95488L22.3376 10.3025C21.3988 10.5085 20.4592 10.7529 19.6744 11.3317C19.906 10.6241 20.3688 9.90381 21.0384 9.44027C21.5412 9.00215 22.1215 8.66186 22.7493 8.43692ZM32.2057 8.53977C32.3086 8.65575 32.3728 8.8228 32.3472 9.00296C32.3274 9.07421 32.2932 9.14064 32.2467 9.19816C32.2002 9.25568 32.1425 9.30307 32.077 9.33741C31.9227 9.40196 31.7298 9.37607 31.601 9.29875C31.4595 9.19555 31.3822 9.04162 31.395 8.87422C31.4077 8.70682 31.4978 8.53977 31.6652 8.47522C31.7509 8.42856 31.8489 8.4097 31.9458 8.42127C32.0426 8.43283 32.1335 8.47425 32.2057 8.53977Z" fill="white"/>
<path fill-rule="evenodd" clip-rule="evenodd" d="M45.4964 9.42759C45.5996 9.60776 45.5864 9.87801 45.5095 10.0837C45.3807 10.2767 45.136 10.4182 44.9048 10.3926C44.6984 10.3926 44.5313 10.2898 44.4281 10.1483C44.3125 9.99399 44.2479 9.82658 44.3125 9.63365C44.338 9.45383 44.4412 9.27366 44.6214 9.19635C44.8917 9.02894 45.3162 9.10591 45.4964 9.42759ZM19.3271 9.49178C19.4427 9.64641 19.4427 9.86489 19.4044 10.0706C19.3399 10.2252 19.1984 10.3664 19.031 10.4437C18.8639 10.4951 18.6323 10.5082 18.4777 10.4309C18.2333 10.315 18.1046 10.0578 18.1305 9.80034C18.1305 9.6074 18.2333 9.44 18.4007 9.32438C18.6706 9.11903 19.121 9.18322 19.3271 9.49178Z" fill="black"/>
<path fill-rule="evenodd" clip-rule="evenodd" d="M45.3038 9.44043C45.4063 9.55605 45.4319 9.74934 45.3932 9.91674C45.3499 10.0237 45.2735 10.114 45.1751 10.1742C45.0204 10.264 44.8406 10.2384 44.7115 10.187C44.5058 10.071 44.4157 9.85255 44.4803 9.64684C44.4927 9.5181 44.5828 9.40248 44.7115 9.33793C44.8917 9.20883 45.1361 9.27338 45.3038 9.44043ZM19.1725 9.58194C19.2754 9.68479 19.2626 9.86496 19.2371 10.0192C19.1984 10.1352 19.0959 10.2381 18.9796 10.3023C18.7866 10.3665 18.5423 10.3278 18.4008 10.1739C18.272 10.0192 18.2461 9.77488 18.3621 9.59471C18.4394 9.4532 18.5934 9.38865 18.7352 9.36347C18.9026 9.3507 19.0697 9.44043 19.1725 9.58194Z" fill="white"/>
<path fill-rule="evenodd" clip-rule="evenodd" d="M40.9028 9.77552C40.9805 9.92979 41.006 10.1227 40.9546 10.3029C40.8514 10.5345 40.6325 10.7019 40.4137 10.7402L40.08 10.7015C39.8221 10.56 39.6164 10.3284 39.6678 10.0326C39.6678 9.86525 39.7579 9.71097 39.8998 9.60811C40.0537 9.44071 40.3112 9.41518 40.5559 9.49214C40.6971 9.51803 40.8131 9.64677 40.9028 9.77552Z" fill="black"/>
<path fill-rule="evenodd" clip-rule="evenodd" d="M40.7105 9.775C40.7619 9.86473 40.813 9.96758 40.8261 10.0967C40.7875 10.2513 40.736 10.4052 40.6073 10.4953C40.4661 10.5471 40.2984 10.6113 40.1828 10.5471C40.0157 10.5088 39.9256 10.3801 39.8739 10.2641C39.81 10.1226 39.8224 9.9424 39.9256 9.82678C39.9902 9.72392 40.1058 9.64696 40.2345 9.62107C40.414 9.59483 40.5559 9.65902 40.7105 9.775Z" fill="white"/>
<path fill-rule="evenodd" clip-rule="evenodd" d="M23.9328 10.0194C24.0101 10.1995 23.9846 10.4439 23.8945 10.6244C23.7658 10.8301 23.5342 10.933 23.3026 10.933C23.0841 10.9074 22.8653 10.8174 22.7624 10.6117C22.6337 10.4056 22.6337 10.1095 22.7879 9.92964C22.9163 9.73706 23.1096 9.65939 23.3284 9.64697C23.5725 9.64662 23.8299 9.77536 23.9328 10.0194Z" fill="black"/>
<path fill-rule="evenodd" clip-rule="evenodd" d="M23.7402 10.0191C23.8172 10.1479 23.8299 10.3412 23.7785 10.4951C23.6756 10.6366 23.5469 10.7526 23.3795 10.7781C23.1738 10.7909 22.9936 10.6621 22.8908 10.4951C22.8393 10.3795 22.8138 10.2248 22.8908 10.1092C22.9553 9.91662 23.1348 9.80029 23.354 9.80029C23.4955 9.82618 23.637 9.87761 23.7402 10.0191Z" fill="white"/>
<path fill-rule="evenodd" clip-rule="evenodd" d="M32.759 10.9199C32.9267 11.1902 32.9267 11.6275 32.7721 11.9236C32.5919 12.1939 32.3086 12.3996 31.9872 12.4386C31.6655 12.4514 31.3566 12.3741 31.1378 12.1556C30.8807 11.8598 30.7388 11.4608 30.8934 11.0873C30.9967 10.7146 31.3694 10.4312 31.7556 10.3929C32.167 10.3539 32.5533 10.5341 32.759 10.9199Z" fill="black"/>
<path fill-rule="evenodd" clip-rule="evenodd" d="M44.2611 11.7562C44.4544 12.3996 44.6215 13.0557 44.7247 13.7636L44.7116 13.8278C44.2225 13.9693 44.0944 14.4839 43.9398 14.8826C43.8366 15.1401 43.8753 15.4745 44.0423 15.7189C44.1324 15.8991 44.3512 16.0278 44.5445 16.1307C44.4668 16.1952 44.3257 16.208 44.2356 16.2339C43.9398 16.2722 43.5922 16.1307 43.4121 15.9122C43.2319 15.7061 43.1418 15.449 43.2195 15.1791C43.4245 14.8961 43.5153 14.5102 43.4121 14.1754C43.3096 13.9051 43.0649 13.6352 42.8074 13.5452C42.6539 13.479 42.4862 13.4525 42.3199 13.4683C42.1535 13.484 41.9938 13.5414 41.8554 13.6352C41.7124 13.7348 41.5955 13.8675 41.5148 14.022C41.434 14.1765 41.3919 14.3483 41.3919 14.5226C41.0706 14.7801 40.6326 14.8961 40.285 14.7028C40.0279 14.5868 39.8097 14.3297 39.7711 14.0722C39.9644 14.0981 40.208 14.1108 40.4403 14.0594C41.0706 13.9179 41.1475 13.2104 41.2763 12.6957C41.2632 12.3226 41.083 11.9751 40.7872 11.7693C40.8127 11.4863 40.7102 11.242 40.5691 11.049C40.8386 10.9848 41.1085 10.7273 41.2376 10.4702C42.3059 10.7142 43.3862 11.0359 44.2611 11.7562ZM22.8139 11.1256C22.8522 11.1384 22.9167 11.1774 22.8781 11.2416C22.7752 11.3959 22.7369 11.6019 22.7369 11.7949C22.5984 11.8633 22.479 11.965 22.3892 12.0907C22.2994 12.2164 22.2421 12.3624 22.2223 12.5156C22.1709 12.9014 22.3379 13.2231 22.4408 13.5835C22.5319 13.7574 22.6716 13.9012 22.843 13.9971C23.0143 14.0931 23.2099 14.1372 23.4058 14.124L23.8818 14.0339C23.8818 14.2655 23.7403 14.5098 23.5346 14.6641C23.2643 14.8571 22.8781 14.8702 22.5823 14.7542C22.0804 14.6127 22.1836 14.0339 21.7847 13.8151C21.5144 13.5835 21.1416 13.5448 20.8196 13.6477C20.421 13.7764 20.1507 14.1495 20.1252 14.5613C20.1124 14.8829 20.2153 15.166 20.4469 15.3976C20.4082 15.6547 20.3568 15.9122 20.1252 16.092C19.8808 16.2722 19.585 16.3364 19.3017 16.2466C19.5847 15.9636 19.8549 15.5777 19.7006 15.1528C19.4946 14.7542 19.4946 14.1882 18.9927 14.0466C19.0059 13.3646 19.2116 12.7472 19.379 12.1297L19.546 11.641C20.3437 10.9462 21.3474 10.7273 22.3379 10.483C22.428 10.7142 22.5695 10.9714 22.8139 11.1256Z" fill="#CE3829"/>
<path fill-rule="evenodd" clip-rule="evenodd" d="M32.643 11.049C32.7848 11.3579 32.7206 11.7693 32.4883 12.0395C32.2057 12.2839 31.8067 12.3484 31.4722 12.1942C31.1892 12.0395 30.9835 11.7824 31.009 11.4479C30.9963 11.1649 31.0864 10.8947 31.3435 10.7273C31.5492 10.573 31.8322 10.5212 32.1156 10.5858C32.3217 10.65 32.5398 10.8301 32.643 11.049Z" fill="white"/>
<path fill-rule="evenodd" clip-rule="evenodd" d="M46.2685 11.0742C46.3323 11.3186 46.2685 11.5888 46.0876 11.7818C45.9337 11.8718 45.7794 11.936 45.6248 11.936C45.4315 11.8974 45.2513 11.8201 45.1357 11.6661C44.981 11.4732 44.9555 11.1774 45.0842 10.9841C45.213 10.7908 45.4056 10.6369 45.6503 10.6497C45.8954 10.6369 46.1521 10.8171 46.2685 11.0742ZM18.6841 11.1902C18.7611 11.3962 18.671 11.6275 18.5554 11.808C18.3752 11.975 18.1308 12.0783 17.8865 12.0137C17.6935 11.9623 17.5517 11.7693 17.4747 11.6147C17.3715 11.3572 17.4616 11.1001 17.629 10.9327C17.7833 10.7656 18.0407 10.7142 18.2592 10.7784C18.4135 10.8298 18.6196 10.9972 18.6841 11.1902Z" fill="black"/>
<path fill-rule="evenodd" clip-rule="evenodd" d="M46.011 10.9714C46.1135 11.0743 46.1266 11.2417 46.1266 11.4087C46.0752 11.5499 45.9464 11.6918 45.8184 11.7432C45.6507 11.7946 45.5219 11.756 45.3932 11.6918C45.2644 11.6017 45.2006 11.4857 45.2006 11.3573C45.1751 11.1644 45.2261 10.997 45.3932 10.9069C45.5606 10.753 45.844 10.8044 46.011 10.9714ZM18.3749 11.036C18.4777 11.1388 18.5423 11.28 18.5295 11.4474C18.5036 11.602 18.388 11.7819 18.2337 11.8336C18.1593 11.858 18.0806 11.866 18.0028 11.8571C17.9251 11.8482 17.8502 11.8225 17.7833 11.7819C17.6162 11.6272 17.5517 11.3829 17.6418 11.1899C17.6935 11.0356 17.8606 10.9456 18.0018 10.9069C18.1305 10.8945 18.2592 10.9459 18.3749 11.036Z" fill="white"/>
<path fill-rule="evenodd" clip-rule="evenodd" d="M25.1167 11.7821C25.3993 12.091 25.4125 12.6315 25.2199 13.0042C24.9879 13.3 24.6535 13.4674 24.3063 13.4674C24.1403 13.4614 23.978 13.4163 23.8327 13.3359C23.6874 13.2554 23.5631 13.1418 23.47 13.0042C23.3026 12.7467 23.2384 12.3868 23.3671 12.1037C23.47 11.7047 23.8558 11.4604 24.2421 11.4217C24.5893 11.3958 24.8851 11.5246 25.1167 11.7821ZM40.0799 11.8076C40.2981 12.0647 40.4137 12.4382 40.3112 12.7851C40.1956 13.094 39.9253 13.3901 39.6164 13.4798C39.3075 13.5572 38.9472 13.5185 38.7283 13.3256C38.4457 13.0812 38.2524 12.7723 38.3045 12.3864C38.33 12.0261 38.6003 11.7044 38.9216 11.5501C39.3075 11.3958 39.7834 11.4859 40.0799 11.8076Z" fill="black"/>
<path fill-rule="evenodd" clip-rule="evenodd" d="M25.0652 11.9882C25.2199 12.1942 25.2199 12.5414 25.1294 12.7989C24.9879 13.0561 24.7177 13.2749 24.4478 13.3008C24.1775 13.3267 23.9073 13.2362 23.7271 13.0564C23.5342 12.8507 23.4185 12.5932 23.4827 12.3102C23.5214 12.0016 23.7657 11.7055 24.0747 11.6154C24.4478 11.4863 24.8595 11.6534 25.0652 11.9882ZM39.9767 11.9367C40.1824 12.1683 40.208 12.5159 40.1179 12.8117C40.0278 13.0692 39.7707 13.2749 39.5263 13.3394C39.2174 13.4036 38.8961 13.3139 38.7028 13.082C38.5102 12.8631 38.4194 12.5801 38.5102 12.2843C38.5872 11.9499 38.8574 11.6668 39.2174 11.641C39.5132 11.5895 39.7579 11.7438 39.9767 11.9367Z" fill="white"/>
<path fill-rule="evenodd" clip-rule="evenodd" d="M46.5125 12.5282C46.6026 12.6055 46.6412 12.7598 46.7313 12.8371C46.7058 12.9528 46.7313 13.1202 46.6926 13.2617C46.577 13.4805 46.3454 13.6607 46.1135 13.6734C45.9085 13.6475 45.7152 13.6092 45.612 13.4546C45.5441 13.3867 45.4944 13.3028 45.4673 13.2107C45.4403 13.1185 45.4369 13.021 45.4574 12.9272C45.4574 12.7471 45.5606 12.5924 45.7276 12.4896C45.9209 12.3222 46.2937 12.3481 46.5125 12.5282ZM18.1819 12.8109C18.3103 13.017 18.2848 13.3386 18.1305 13.5312C17.9631 13.7373 17.6801 13.8015 17.4357 13.7373C17.3439 13.7008 17.2609 13.6453 17.1922 13.5744C17.1235 13.5035 17.0706 13.4188 17.0371 13.3259C16.9722 13.1585 16.9984 12.9524 17.0881 12.7985C17.1913 12.6311 17.3712 12.5023 17.5772 12.4896C17.8216 12.4637 18.0791 12.5797 18.1819 12.8109Z" fill="black"/>
<path fill-rule="evenodd" clip-rule="evenodd" d="M46.487 12.747C46.5647 12.9016 46.5771 13.1459 46.4746 13.3134C46.3582 13.429 46.2302 13.4935 46.1011 13.5059C45.9341 13.4932 45.7922 13.4414 45.7021 13.3261C45.5865 13.1974 45.5865 12.9789 45.6507 12.837C45.7021 12.6569 45.8819 12.554 46.0621 12.5412C46.2167 12.5285 46.3579 12.6182 46.487 12.747ZM18.0277 12.8502C18.1174 12.9661 18.1174 13.1591 18.0791 13.3006C18.0149 13.4417 17.873 13.5836 17.7188 13.5964C17.5514 13.6091 17.4102 13.5705 17.307 13.4676C17.2556 13.416 17.2171 13.3529 17.1947 13.2836C17.1724 13.2142 17.1667 13.1406 17.1783 13.0686C17.1914 12.8626 17.3457 12.7086 17.5514 12.6569C17.7188 12.6058 17.8989 12.7086 18.0277 12.8502Z" fill="white"/>
<path fill-rule="evenodd" clip-rule="evenodd" d="M31.9099 12.657C31.9358 13.2358 32.232 13.7891 32.759 14.0853L32.7466 14.214C32.116 14.214 31.4467 14.214 30.8293 14.2395C30.7778 14.1881 30.7651 14.0853 30.8676 14.0721C31.3439 13.7764 31.717 13.2486 31.7553 12.6829C31.7939 12.6443 31.8457 12.6443 31.9099 12.657Z" fill="black"/>
<path fill-rule="evenodd" clip-rule="evenodd" d="M32.4242 14.059L32.3987 14.0718C31.9741 14.0463 31.5755 14.059 31.1893 14.0718C31.4723 13.8143 31.7039 13.5313 31.8323 13.1841C31.9741 13.4933 32.116 13.8278 32.4242 14.059Z" fill="#CE3829"/>
<path fill-rule="evenodd" clip-rule="evenodd" d="M28.8736 13.7893C29.0538 13.9823 29.2982 14.111 29.5553 14.2011V14.3426C28.8992 14.4196 28.2171 14.5224 27.5997 14.6384C27.3809 14.4455 27.7415 14.3813 27.8054 14.2525C27.9859 14.0341 28.0756 13.7638 28.1788 13.5194C28.3204 13.5194 28.4619 13.4418 28.6034 13.4418L28.8736 13.7893ZM35.5381 13.4804C35.68 13.8021 35.7694 14.1883 36.1049 14.4323C36.1297 14.4841 36.0662 14.5224 36.0662 14.5738C35.4484 14.4838 34.8178 14.3678 34.2131 14.3295C34.0719 14.0851 34.4319 14.1493 34.5344 14.0078C34.7408 13.8532 34.9079 13.6347 35.0498 13.4414C35.2033 13.4804 35.358 13.5194 35.5381 13.4804ZM24.9365 13.5705C25.1426 14.0979 25.5926 14.6384 26.1846 14.7671C26.2105 14.793 26.1973 14.8572 26.1973 14.9087L24.1261 15.4488C23.9459 15.2686 24.2931 15.2303 24.3322 15.0885C24.6538 14.6767 24.8209 14.1749 24.7567 13.6347C24.795 13.5964 24.8595 13.5705 24.9365 13.5705ZM38.9085 13.6475C38.8706 14.2263 39.0248 14.7927 39.4753 15.1913C39.5132 15.2431 39.6554 15.3073 39.5778 15.3974L39.5263 15.4229C38.8702 15.2303 38.2524 15.0374 37.6097 14.8828C37.5445 14.6643 37.8278 14.7154 37.9442 14.6256C38.3169 14.4068 38.6769 14.0209 38.7929 13.6092L38.9085 13.6475Z" fill="black"/>
<path fill-rule="evenodd" clip-rule="evenodd" d="M28.8219 13.9696L29.1691 14.2268L27.8824 14.4197C28.0498 14.1885 28.2041 13.9438 28.2942 13.6735C28.3715 13.6476 28.4616 13.6221 28.5385 13.6352L28.8219 13.9696ZM35.4222 13.6735C35.4992 13.9051 35.641 14.1367 35.7957 14.3552C35.4091 14.3037 34.9721 14.2395 34.5472 14.2009C34.7529 14.0721 34.9586 13.8405 35.1395 13.6221L35.4222 13.6735Z" fill="#CE3829"/>
<path fill-rule="evenodd" clip-rule="evenodd" d="M46.8193 13.6982V13.7102H46.7954C46.7711 13.6863 46.8077 13.674 46.8193 13.6982Z" fill="black"/>
<path fill-rule="evenodd" clip-rule="evenodd" d="M25.8501 14.8182C25.3993 14.9338 24.9109 15.0625 24.4736 15.1909C24.7515 14.8417 24.9134 14.4144 24.9368 13.9688C25.1553 14.3163 25.4642 14.6639 25.8501 14.8182ZM39.205 15.1523C38.7673 15.0494 38.3555 14.882 37.9441 14.805C38.2399 14.638 38.5737 14.4064 38.7545 14.072C38.7804 14.4837 38.9475 14.8309 39.205 15.1523Z" fill="#CE3829"/>
<path fill-rule="evenodd" clip-rule="evenodd" d="M46.809 14.6383C47.0271 14.9085 47.0792 15.2817 46.9629 15.6285C46.8217 15.9506 46.5001 16.2077 46.178 16.2463C45.8308 16.2846 45.5219 16.169 45.3038 15.9374C45.1917 15.8143 45.1129 15.6647 45.0746 15.5027C45.0363 15.3407 45.0399 15.1716 45.085 15.0114C45.175 14.6255 45.5219 14.3294 45.9085 14.278C46.2298 14.2393 46.5901 14.3294 46.809 14.6383Z" fill="black"/>
<path fill-rule="evenodd" clip-rule="evenodd" d="M46.7827 14.8826C46.8214 14.9986 46.8345 15.1528 46.8728 15.3075C46.8214 15.6033 46.6284 15.925 46.3458 16.0409C46.05 16.1438 45.7411 16.0924 45.5222 15.925C45.3041 15.732 45.2264 15.5132 45.2264 15.2561C45.2264 14.9088 45.4453 14.5868 45.7925 14.484C46.1652 14.3293 46.5901 14.5223 46.7827 14.8826Z" fill="white"/>
<path fill-rule="evenodd" clip-rule="evenodd" d="M18.6451 14.9341C18.8253 15.1657 18.8639 15.5388 18.7611 15.835C18.6196 16.1308 18.2979 16.4138 17.9631 16.4652C17.6673 16.4652 17.3971 16.401 17.1655 16.2077C16.9083 15.9375 16.754 15.5775 16.8697 15.1912C16.9856 14.8185 17.3584 14.4968 17.7574 14.4837C18.105 14.445 18.4394 14.6256 18.6451 14.9341Z" fill="black"/>
<path fill-rule="evenodd" clip-rule="evenodd" d="M18.465 14.9474C18.6452 15.179 18.6966 15.5262 18.5806 15.8092C18.4672 16.0304 18.2742 16.2005 18.0405 16.2851C17.8216 16.3369 17.6032 16.2724 17.4102 16.1695C17.1527 16.0021 16.9985 15.7191 17.0112 15.4233C17.0112 15.1275 17.2045 14.8704 17.4489 14.7289C17.783 14.5611 18.2079 14.6257 18.465 14.9474Z" fill="white"/>
<path fill-rule="evenodd" clip-rule="evenodd" d="M41.8423 17.3917L42.8975 17.8422C42.9875 17.9191 43.0652 18.0482 43.0131 18.1894C42.9617 18.2926 42.8329 18.3181 42.7687 18.3954L42.9234 19.0771C42.6662 19.2186 42.4087 19.3729 42.1906 19.5531C42.2162 19.6563 42.2286 19.7847 42.1775 19.9003C42.075 19.9904 41.9463 20.0549 41.8303 20.0031C41.7147 19.9521 41.6501 19.8875 41.56 19.862C38.9355 18.6653 36.0918 17.7907 33.0938 17.7907C31.1769 17.7393 29.3887 17.7907 27.5618 18.1639C25.5033 18.5497 23.5729 19.3218 21.7205 20.2223C21.6537 20.2403 21.5832 20.2389 21.5171 20.2183C21.4511 20.1978 21.3922 20.159 21.3474 20.1063C21.2573 19.9776 21.2956 19.7978 21.3342 19.6818L20.6912 19.2314C20.7168 18.9998 20.7686 18.7554 20.8069 18.5238C20.6912 18.4721 20.5366 18.4465 20.4983 18.305C20.4852 18.2149 20.4852 18.0865 20.5625 18.0092C20.7941 17.8546 21.0771 17.7776 21.3474 17.6748C24.6798 16.298 28.2176 15.1914 32.0004 15.1914C35.4612 15.1659 38.7419 16.1309 41.8423 17.3917ZM42.3183 15.3847C42.3445 15.7965 42.4729 16.1955 42.7818 16.5299C42.7049 16.7743 42.5375 16.5044 42.4215 16.5299C41.8555 16.2597 41.2763 16.0284 40.723 15.8224C40.6592 15.7841 40.6975 15.7195 40.723 15.6808C41.1089 15.6291 41.5597 15.5266 41.8938 15.2308C42.0225 15.2687 42.1513 15.346 42.3183 15.3847ZM22.904 15.706C22.9168 15.7319 22.9423 15.7837 22.9295 15.8479C22.2734 16.0923 21.6173 16.2852 20.9994 16.5941L20.8324 16.6328C20.8579 16.5168 20.9867 16.4398 21.0509 16.337C21.2183 16.0926 21.2952 15.7965 21.3211 15.5007C21.4626 15.4234 21.6041 15.3723 21.7329 15.2691C22.0805 15.5003 22.4667 15.6936 22.904 15.706Z" fill="black"/>
<path fill-rule="evenodd" clip-rule="evenodd" d="M40.7616 17.1341C41.4177 17.3657 42.0866 17.6618 42.7558 17.9449C42.8073 17.9704 42.8583 18.0608 42.8328 18.1374L42.6916 18.2275L41.6365 18.562C41.739 18.9351 41.9068 19.2954 42.0611 19.6813C42.0611 19.7714 41.9834 19.8356 41.9199 19.8615C39.3848 18.6907 36.6829 17.7516 33.8396 17.6487C31.1509 17.4941 28.3849 17.6487 25.8891 18.408C24.4222 18.8326 23.0198 19.4114 21.6558 20.0675C21.553 20.0934 21.5015 20.0289 21.4629 19.9774C21.4888 19.5916 21.7072 19.2699 21.8101 18.9223L21.9261 18.6393C21.5382 18.5126 21.1429 18.4095 20.7425 18.3307C20.6652 18.2921 20.6266 18.1892 20.6784 18.125L20.8841 18.0218C24.6538 16.4648 28.7193 15.1398 33.0036 15.3842C35.6537 15.4874 38.2782 16.2081 40.7616 17.1341Z" fill="#EFC460"/>
<path fill-rule="evenodd" clip-rule="evenodd" d="M42.1636 15.5002C42.2154 15.7835 42.2668 16.0793 42.4339 16.3365C41.9969 16.1563 41.5465 15.9634 41.1344 15.796C41.4156 15.7173 41.6813 15.5911 41.92 15.4229L42.1636 15.5002ZM22.5049 15.8091L21.2955 16.285C21.3473 16.0921 21.4243 15.835 21.4757 15.6161L21.746 15.4746C21.9776 15.6161 22.2347 15.7577 22.5049 15.8091Z" fill="#CE3829"/>
<path fill-rule="evenodd" clip-rule="evenodd" d="M33.8269 16.5422C33.8524 16.594 33.7623 16.594 33.7368 16.6195L31.8454 17.2114L29.8383 16.594V16.5553C30.52 16.2978 31.1892 16.0152 31.884 15.7573C32.5274 15.9893 33.1711 16.2851 33.8269 16.5422ZM45.046 15.8091L45.0073 15.7836L45.046 15.796V15.8091Z" fill="black"/>
<path fill-rule="evenodd" clip-rule="evenodd" d="M33.3768 16.5422L31.8326 17.0441L30.3274 16.5681V16.5422L31.8844 15.9375C32.3862 16.1053 32.8753 16.3365 33.3768 16.5422Z" fill="#CE3829"/>
<path fill-rule="evenodd" clip-rule="evenodd" d="M35.5636 16.3625C35.6334 16.5382 35.6513 16.7302 35.6154 16.9157C35.5253 17.1732 35.2419 17.353 34.9976 17.4045C34.7142 17.4176 34.483 17.3016 34.3414 17.1087C34.2258 16.9672 34.1868 16.8129 34.2003 16.6327C34.2127 16.3625 34.4315 16.1053 34.6887 16.028C34.9976 15.912 35.371 16.0539 35.5636 16.3625ZM29.3754 16.4394C29.4524 16.671 29.4396 17.0058 29.2467 17.2115C29.0793 17.353 28.8736 17.4304 28.6679 17.4045C28.4235 17.3658 28.1792 17.1856 28.1274 16.9672C28.0772 16.8413 28.0651 16.7035 28.0926 16.5708C28.1201 16.4382 28.1859 16.3165 28.282 16.221C28.4494 16.0539 28.7193 15.9766 28.964 16.0667C29.1176 16.1309 29.2981 16.2596 29.3754 16.4394Z" fill="black"/>
<path fill-rule="evenodd" clip-rule="evenodd" d="M35.3455 16.3624C35.4225 16.4657 35.4735 16.6199 35.4611 16.7742C35.4093 16.9671 35.2678 17.1601 35.0877 17.2246C34.9889 17.2483 34.8859 17.2478 34.7873 17.2232C34.6888 17.1986 34.5976 17.1505 34.5216 17.0831C34.367 16.903 34.3159 16.6199 34.4571 16.4139C34.5472 16.2596 34.7014 16.1695 34.8816 16.1567C35.0497 16.1567 35.2288 16.2082 35.3455 16.3624ZM29.0921 16.3238C29.208 16.4525 29.2722 16.6196 29.2595 16.8129C29.208 16.9671 29.118 17.1473 28.9637 17.2119C28.809 17.2761 28.6548 17.2505 28.5264 17.1991C28.3203 17.0704 28.2047 16.8519 28.2561 16.6072C28.2944 16.4142 28.4491 16.2341 28.6548 16.1958C28.809 16.1567 28.9637 16.2082 29.0921 16.3238Z" fill="white"/>
<path fill-rule="evenodd" clip-rule="evenodd" d="M38.1758 16.5813C38.7418 16.9541 39.2689 17.4173 39.848 17.8032V17.8291C39.1664 17.8674 38.4198 17.8808 37.7257 17.9191C37.1334 17.5333 36.5419 17.2116 35.9886 16.8126L36.0141 16.7867C36.7096 16.7094 37.3657 16.658 38.0729 16.5679L38.1758 16.5813ZM27.6256 16.8385C27.0468 17.2502 26.4417 17.6492 25.8374 17.9837L23.8303 17.8808L23.8176 17.8549L25.5029 16.5817L27.6128 16.8257L27.6256 16.8385Z" fill="black"/>
<path fill-rule="evenodd" clip-rule="evenodd" d="M39.3976 17.6871C38.8315 17.7003 38.3045 17.7513 37.7377 17.7513C37.3132 17.4296 36.8628 17.2239 36.4514 16.915C36.9915 16.8636 37.5065 16.7608 38.0722 16.7349C38.5361 16.9923 38.9351 17.3527 39.3976 17.6871ZM27.201 16.9406C26.7509 17.2498 26.2746 17.5325 25.8114 17.8159L24.2676 17.7513V17.7254L25.5543 16.7349C26.1076 16.7866 26.6477 16.864 27.201 16.9406Z" fill="#1E7E62"/>
<path fill-rule="evenodd" clip-rule="evenodd" d="M41.5334 17.9702C41.6497 18.189 41.598 18.5366 41.4564 18.7551C41.2632 18.948 40.9805 19.0509 40.723 18.9867C40.4786 18.9225 40.2726 18.7036 40.2084 18.4979C40.1314 18.2277 40.2084 17.9447 40.4272 17.7904C40.595 17.6102 40.8517 17.5588 41.0965 17.6102C41.2507 17.6744 41.4433 17.7773 41.5334 17.9702ZM23.2384 17.8805C23.3672 18.022 23.4314 18.2146 23.4186 18.4206C23.3799 18.6008 23.2898 18.7813 23.1483 18.8966C22.9295 19.0381 22.6592 19.0767 22.428 18.9867C22.1961 18.8583 22.0421 18.6263 22.029 18.382C22.0031 18.0862 22.1705 17.8673 22.4021 17.7258C22.6592 17.5843 23.0196 17.6489 23.2384 17.8805Z" fill="black"/>
<path fill-rule="evenodd" clip-rule="evenodd" d="M41.4177 18.1117C41.4563 18.2663 41.4308 18.4589 41.3538 18.6135C41.2375 18.7164 41.1219 18.8065 40.9673 18.8451C40.774 18.8579 40.62 18.7809 40.5044 18.6777C40.3757 18.5362 40.3367 18.3688 40.3757 18.227C40.3757 18.0471 40.4913 17.8925 40.6459 17.8283C40.774 17.751 40.9548 17.7127 41.1088 17.8024C41.2251 17.8546 41.3538 17.9578 41.4177 18.1117ZM23.1223 17.9961C23.2252 18.1117 23.277 18.2791 23.2383 18.4334C23.2236 18.5167 23.1905 18.5957 23.1416 18.6646C23.0927 18.7336 23.029 18.7909 22.9553 18.8324C22.8007 18.8838 22.6077 18.8966 22.479 18.8324C22.2733 18.7036 22.1704 18.472 22.2091 18.2663C22.2218 18.0862 22.3375 17.9578 22.479 17.8673C22.685 17.7645 22.9553 17.8159 23.1223 17.9961Z" fill="white"/>
<path fill-rule="evenodd" clip-rule="evenodd" d="M42.3058 20.3635C45.0204 21.7403 47.5162 23.7729 49.5495 26.2435C50.8228 27.942 52.0322 29.7171 52.8557 31.6599C54.0396 34.5678 54.7212 37.7329 54.7088 41.1554C54.5801 44.8219 53.7431 48.2437 52.1744 51.3707C51.3895 52.8628 50.3727 54.2779 49.3307 55.6806C47.4907 57.7905 45.3297 59.6046 42.9875 60.9424C38.9089 63.207 34.1617 64.1851 29.3624 63.6829C26.3392 63.2846 23.4828 62.3965 20.8838 60.9424C19.9829 60.4409 19.147 59.8107 18.3107 59.2571C16.5739 57.9196 15.0556 56.3109 13.7174 54.5737C13.4851 54.19 13.2362 53.8166 12.9716 53.4544C11.7363 51.5889 10.8744 49.5822 10.218 47.5234C9.25292 44.114 8.9699 40.1385 9.70334 36.5876C10.0378 34.3745 10.8227 32.3803 11.7618 30.4505C12.2505 29.5242 12.7783 28.6105 13.383 27.7746C13.8203 27.0025 14.425 26.3591 14.9914 25.6775C16.6253 23.7605 18.5937 22.2039 20.6784 20.9558C24.7436 18.6143 29.3883 17.5205 34.3163 18.0096C37.1597 18.2792 39.8097 19.1027 42.3058 20.3635Z" fill="black"/>
<path fill-rule="evenodd" clip-rule="evenodd" d="M43.9912 21.5217C46.4224 23.0656 48.5968 25.0854 50.3081 27.5301C52.8046 30.9781 54.1555 34.928 54.4768 39.3149C54.7212 43.6769 53.7951 47.8325 51.9296 51.4862C50.9004 53.2617 49.742 55.0627 48.25 56.6193C43.3354 61.753 36.5031 64.2495 29.4914 63.5416C25.3103 63.0525 21.4501 61.4828 18.1181 58.9101C16.5611 57.6751 15.1587 56.1696 13.988 54.6637C13.5762 54.1235 13.2932 53.5451 12.8946 53.0428C12.0327 51.6919 11.4153 50.2637 10.8361 48.8362C9.70402 45.7995 9.25359 42.3643 9.54938 38.929C9.79375 35.8285 10.6432 32.9979 11.9941 30.3862C12.0068 30.3734 12.0586 30.3862 12.0586 30.3607L12.0331 30.322C12.3934 29.6403 12.7534 28.9842 13.1779 28.3536C13.4354 28.0192 13.5897 27.6461 13.8596 27.3244C15.0435 25.8061 16.3171 24.3264 17.8354 23.1429C18.5816 22.4868 19.3924 21.9849 20.1897 21.4575C20.5759 21.1103 21.0646 20.9812 21.4764 20.6985C26.5711 17.9194 33.0817 17.2505 38.7294 19.0774C40.569 19.6431 42.3313 20.4925 43.9912 21.5217Z" fill="#EFC460"/>
<path fill-rule="evenodd" clip-rule="evenodd" d="M42.7304 18.9996C42.524 19.1283 42.3183 19.2571 42.1381 19.3727C42.0225 19.1411 41.9069 18.9095 41.8554 18.6648C42.0867 18.5878 42.3183 18.5236 42.5758 18.4463C42.6527 18.5882 42.6783 18.8066 42.7304 18.9996ZM21.6818 18.7293C21.6045 18.9868 21.4757 19.2439 21.386 19.5142L20.8973 19.1797C20.8973 18.9737 20.9359 18.7424 21.0257 18.575L21.6818 18.7293Z" fill="#CE3829"/>
<path fill-rule="evenodd" clip-rule="evenodd" d="M44.6725 25.3942C46.9888 27.3757 49.0345 30.0002 50.1786 32.7793C51.2345 35.2751 51.826 37.9897 51.8392 40.9366C51.8129 44.423 50.8355 47.5493 49.4072 50.4828C47.6963 53.5577 45.0459 56.35 42.01 58.1634C40.3626 59.116 38.6262 59.8232 36.7858 60.3254C32.4766 61.4447 27.4585 60.9301 23.5345 59.0514C22.4666 58.5368 21.4629 57.9197 20.4723 57.2629C19.5459 56.4911 18.5681 55.7832 17.7577 54.8834C16.4838 53.5708 15.4932 52.1422 14.6697 50.676C13.8848 49.389 13.4347 47.987 12.9715 46.6105C12.1352 43.8314 11.9161 40.4475 12.4566 37.4882C12.714 35.8543 13.2414 34.3491 13.7947 32.8694C14.7339 30.811 15.9046 28.8553 17.5641 27.1441C18.4905 26.0375 19.6098 25.2012 20.7291 24.3522C21.1022 24.1465 21.4239 23.8507 21.8098 23.6577C25.8111 21.1744 30.9573 20.2225 35.769 21.1488C39.0376 21.7791 42.01 23.2201 44.6725 25.3942Z" fill="black"/>
<path fill-rule="evenodd" clip-rule="evenodd" d="M42.3445 23.9148C42.447 23.9921 42.3569 23.9148 42.4601 23.9921C45.9085 26.1538 48.7636 29.5887 50.2177 33.3198C51.0802 35.5453 51.6204 37.9645 51.659 40.5634C51.697 43.7029 50.9767 46.5718 49.8059 49.2477C49.0079 48.4118 48.1851 47.6145 47.4126 46.8545C47.4903 46.4562 47.6446 46.0827 47.773 45.7227C48.6866 42.8535 48.7511 39.3285 47.9276 36.4078C47.4772 34.748 46.77 33.2042 45.8695 31.7504C44.3636 29.4476 42.2544 27.4402 39.8998 26.2052C39.3206 26.7585 38.7929 27.3887 38.2268 27.9679C37.4164 28.8042 36.567 29.6277 35.808 30.4768C34.1613 29.8466 32.283 29.6533 30.5331 29.8852L30.3143 29.6923L29.3751 28.7659L26.5446 25.9225L23.8814 23.2721L23.5469 22.9249L23.6243 22.8735C27.7284 20.8665 32.875 20.3905 37.4033 21.7028C39.1277 22.2294 40.813 22.8983 42.3445 23.9148Z" fill="white"/>
<path fill-rule="evenodd" clip-rule="evenodd" d="M26.2619 25.8697L27.4454 27.0664L30.0185 29.6398L30.2887 29.9097C29.4265 30.0126 28.6417 30.2828 27.8699 30.5786L26.9563 29.6777C25.837 28.6099 24.7432 27.4905 23.637 26.4485C22.0928 27.3363 20.678 28.4428 19.481 29.8707C18.2202 31.1961 17.4102 32.7527 16.6764 34.3224L16.6381 34.3093L14.3863 32.0324C15.0038 30.7971 15.7244 29.6004 16.599 28.4939C17.2293 27.7221 17.8858 26.95 18.5933 26.2939C19.5069 25.5222 20.3815 24.6986 21.3984 24.1067C22.0158 23.6949 22.6847 23.3349 23.3536 23.0005L23.3795 23.0133L26.2619 25.8697Z" fill="#2B3E8A"/>
<path fill-rule="evenodd" clip-rule="evenodd" d="M44.9814 30.7851C47.1945 33.7831 48.3777 37.2695 48.3397 41.2325C48.2234 44.0496 47.4648 46.6744 46.1521 49.0553C46.1266 49.0035 46.1007 49.0422 46.0876 49.0553L46.1007 49.1447C44.7888 51.4869 42.7044 53.5322 40.4779 55.0119L40.2977 55.102L40.2846 55.0505L40.2977 51.8213C42.3821 50.1874 43.9905 47.9229 44.8399 45.5296C45.5215 43.6772 45.7404 41.5542 45.5992 39.4953C45.3549 36.8708 44.4022 34.5417 42.8846 32.5095C42.1512 31.5445 41.2631 30.644 40.3502 29.9364H40.3115C39.6469 30.5627 39.0073 31.2151 38.3942 31.892C37.6356 31.3388 36.7858 30.8883 35.9885 30.5411C36.9252 29.5231 37.8818 28.5236 38.8578 27.5431L39.9515 26.4238C41.8678 27.4527 43.5794 28.9966 44.9814 30.7851ZM30.0958 33.0369C30.6761 33.5798 31.2465 34.1332 31.8067 34.6967C31.8198 34.7223 31.7939 34.7861 31.8581 34.8248C32.4117 34.2846 32.9654 33.6285 33.5435 33.0883C33.7236 33.0369 33.891 33.1397 34.0836 33.1784C34.8047 33.3972 35.5119 33.6544 36.1549 34.1176L36.1169 34.1945L35.332 34.9925L32.0255 38.3501L31.8712 38.5179C31.3052 38.0802 30.8934 37.5273 30.3916 37.0772C28.6289 35.3532 26.9435 33.5646 25.1812 31.8665L23.3671 30.0393L23.2639 30.0911C23.2511 30.0652 23.2384 30.0393 23.2252 30.0652C22.5049 30.6316 21.7974 31.326 21.2441 32.0726C20.112 33.3203 19.43 34.8131 18.8639 36.3438C17.7705 39.3418 17.8606 43.2271 19.1728 46.1343C19.5587 47.0734 20.0606 47.9874 20.6266 48.8879C21.0643 49.377 21.4629 49.943 21.9392 50.4445C22.4152 50.9212 22.9043 51.3837 23.4575 51.8217L23.4444 55.0892C22.3893 54.459 21.3987 53.6617 20.4851 52.8509C19.6229 51.8983 18.7742 50.9336 18.1177 49.9299C17.1399 48.2445 16.3036 46.5336 15.9177 44.6426C15.0172 40.731 15.6219 36.3697 17.4875 33.0759C18.2206 31.5065 19.4303 30.1556 20.6266 28.8689C21.3086 28.2514 22.0421 27.6595 22.8142 27.1449L23.6246 26.6561C25.7987 28.765 27.9345 30.888 30.0958 33.0369Z" fill="#EFC460"/>
<path fill-rule="evenodd" clip-rule="evenodd" d="M37.648 31.5829C38.3058 32.0031 38.9181 32.4904 39.4753 33.037V33.1008C38.8319 33.7311 38.1758 34.3492 37.558 34.9926C37.3909 34.8507 37.2107 34.6968 37.0696 34.5681C36.0272 33.7186 34.882 33.1398 33.6212 32.8827C32.5019 32.6639 31.2925 32.6383 30.1987 32.8951C29.401 32.1617 28.7577 31.4413 28.0242 30.721C31.0736 29.4343 34.8951 29.7815 37.648 31.5829Z" fill="#EFC460"/>
<path fill-rule="evenodd" clip-rule="evenodd" d="M41.0829 30.7595C43.373 32.8949 44.8012 35.6106 45.3162 38.6203C45.574 40.3702 45.4964 42.3261 45.1229 44.0115L44.9818 44.4105C43.6567 43.0333 42.2672 41.7339 41.0063 40.4088C40.247 39.6371 39.4366 38.8912 38.7418 38.1443L36.1428 35.5329L35.6158 34.9669C35.8215 34.6835 36.0527 34.4647 36.2974 34.2334C36.7451 34.5055 37.156 34.8341 37.52 35.2109H37.5838C38.2895 34.497 39.0015 33.7896 39.72 33.0886L39.7068 33.0371C39.3334 32.6381 38.8964 32.3168 38.5492 31.9689C39.1021 31.3383 39.72 30.7208 40.3371 30.1548C40.5814 30.3091 40.8262 30.541 41.0829 30.7595Z" fill="white"/>
<path fill-rule="evenodd" clip-rule="evenodd" d="M25.2064 32.1102L25.1812 32.1748C23.062 33.8117 21.6268 36.1779 21.1544 38.8137C20.8068 38.5435 20.4596 38.1835 20.1893 37.8746C20.1507 37.8359 20.1507 37.7458 20.0865 37.7976L18.9672 36.6524C19.353 35.3916 19.9191 34.2077 20.6266 33.1008C21.0388 32.5862 21.4246 32.0077 21.8878 31.557C22.3124 31.0682 22.7887 30.605 23.2902 30.2319H23.3416L25.2064 32.1102Z" fill="#2B3E8A"/>
<path fill-rule="evenodd" clip-rule="evenodd" d="M14.6944 30.9632V30.9752L14.6821 30.939C14.6821 30.939 14.6944 30.9393 14.6944 30.9632Z" fill="black"/>
<path fill-rule="evenodd" clip-rule="evenodd" d="M16.5867 34.5032C15.0173 38.1697 14.9141 43.162 16.4196 46.9441C17.1272 48.6039 17.9766 50.2254 19.2371 51.692C19.6616 52.1811 20.1759 52.7212 20.6522 53.2227C21.5527 53.9952 22.5436 54.78 23.5984 55.3716L23.6243 55.2947L23.6371 51.7821L23.5856 51.7044C22.8394 51.1259 22.1446 50.418 21.514 49.7232C20.8579 48.9128 20.2791 48.1024 19.8546 47.2275C18.4008 44.4483 17.8603 40.9744 18.6324 37.7452L18.8895 36.8447L19.0055 36.9223C19.7389 37.5909 20.3564 38.363 21.1026 39.0322C20.9097 40.0998 20.8969 41.3737 21.0771 42.5186C21.2445 43.651 21.5531 44.7317 22.0677 45.7478C23.0455 47.7165 24.7695 49.6076 26.7893 50.6237C27.471 51.0103 28.2172 51.293 29.0021 51.5373V56.4395C30.0444 56.4395 30.9577 56.4264 31.9486 56.4395L31.9614 56.3618L31.9742 51.936C32.6044 51.8846 33.1836 51.8459 33.8138 51.7558L35.4867 53.4281C36.8763 54.8829 38.3429 56.2718 39.758 57.7645C40.08 58.0603 40.3758 58.3306 40.7106 58.6906C36.3362 60.9161 30.8935 61.3665 26.1846 59.9C24.3319 59.2953 22.5951 58.4973 20.987 57.4042C20.3437 57.0052 19.7648 56.465 19.1857 56.0146C17.8216 54.8176 16.5739 53.4156 15.6344 51.9615C14.7726 50.6106 14.0136 49.2338 13.5245 47.7673C13.216 46.8153 12.9071 45.8762 12.7269 44.898C12.0835 41.8617 12.2509 38.3747 13.0745 35.493C13.4472 34.3737 13.7175 33.2161 14.2963 32.2124C15.0943 32.9334 15.8018 33.7052 16.5867 34.5032Z" fill="white"/>
<path fill-rule="evenodd" clip-rule="evenodd" d="M27.2652 34.1808V34.207C24.5375 36.0981 23.2767 39.4043 24.036 42.6856C24.4606 44.6281 25.7214 46.4422 27.5096 47.6261C29.5812 48.9894 32.4242 49.2728 34.8051 48.3723C35.757 48.0251 36.606 47.3817 37.4164 46.7384C38.0336 47.3817 38.7028 47.9868 39.3462 48.7202C38.6638 49.492 37.7378 50.019 36.8628 50.5467C33.9812 52.1165 30.0699 52.1289 27.1493 50.6368C25.9143 50.0066 24.7822 49.1572 23.8555 48.1024C22.273 46.3138 21.3466 44.217 21.1796 41.8369C21.0122 39.5468 21.4498 37.3468 22.5177 35.5069C23.2121 34.2974 24.2031 33.1005 25.3224 32.2642C25.9661 32.8944 26.6347 33.4867 27.2652 34.1808Z" fill="#EFC460"/>
<path fill-rule="evenodd" clip-rule="evenodd" d="M33.3512 33.0105C33.2101 33.1782 33.0168 33.3456 32.8753 33.5382C32.5532 33.8471 32.2319 34.1943 31.9099 34.5288C31.3697 34.0783 30.8934 33.5258 30.3788 33.0367C31.3307 32.8179 32.3472 32.8179 33.3512 33.0105ZM31.0221 37.9637C31.2924 38.2215 31.5367 38.4914 31.8457 38.7486L31.9099 38.7099C33.0934 37.4622 34.2386 36.2787 35.4735 35.0948C35.8339 35.4293 36.1946 35.841 36.5928 36.2273C37.3007 36.8834 37.97 37.6548 38.7159 38.3372C39.4362 39.0965 40.17 39.8292 40.9673 40.6017L43.4886 43.1489L44.9299 44.603C44.5178 46.0312 43.9131 47.3822 43.0644 48.6561C42.215 49.7878 41.2758 50.8685 40.131 51.7303L40.1054 51.8336V55.372L40.1434 55.3976C42.9612 53.7122 45.4183 51.0618 46.821 48.1415L47.3225 47.0091C48.1081 47.7815 48.9309 48.5657 49.7289 49.4279C49.1497 50.6763 48.4032 51.8467 47.5544 53.0043C45.7403 55.333 43.424 57.2762 40.8768 58.6137C39.9763 57.6876 39.089 56.8645 38.2264 55.9633L35.7431 53.4544C35.1779 52.8745 34.6032 52.3042 34.019 51.7435L34.0577 51.7048C36.1165 51.281 37.9817 50.2904 39.5514 48.7852C39.6029 48.7207 39.539 48.6565 39.5128 48.6433C38.818 47.884 38.0977 47.2027 37.4291 46.4944C36.3478 47.4595 35.1128 48.1805 33.7619 48.5274C33.1703 48.6561 32.5912 48.7075 31.9992 48.7462L31.9733 48.6944L31.9865 46.5976L34.0187 46.5845L34.0573 46.4944L34.0449 43.7153L33.9804 43.6897H31.8829C31.8446 43.2393 31.857 42.7637 31.8701 42.3388L34.7262 42.3133L34.7518 42.2487L34.7394 39.4951H29.5166L29.0406 39.5083L29.0151 39.714L29.002 46.7129C27.7926 45.478 26.5317 44.1785 25.2709 42.9687L24.0743 41.7593C23.8295 40.1126 24.1899 38.4272 24.9361 37.0636C25.4635 35.9829 26.4026 35.0179 27.3804 34.3231C28.6292 35.4938 29.7741 36.7798 31.0221 37.9637Z" fill="#2B3E8A"/>
<path fill-rule="evenodd" clip-rule="evenodd" d="M9.94807 35.0568L9.9353 35.0312L9.94807 35.0437V35.0568ZM54.7475 39.3535C54.7343 39.3535 54.7088 39.3791 54.7212 39.3791V39.3277C54.7209 39.3149 54.7343 39.328 54.7475 39.3535Z" fill="black"/>
<path fill-rule="evenodd" clip-rule="evenodd" d="M34.5731 39.7014C34.5731 40.5373 34.5475 41.2966 34.5607 42.1461C33.6339 42.1585 32.6951 42.1329 31.717 42.1585C31.6528 42.6986 31.6787 43.2523 31.6911 43.8183L31.7297 43.857H33.8783V46.4173L33.8269 46.4304H31.8322L31.8067 46.4684L31.7939 48.7329C30.8931 48.7074 30.0057 48.5527 29.1949 48.2693V39.6751C30.9704 39.6237 32.7331 39.6496 34.5472 39.6496L34.5731 39.7014Z" fill="#EFC460"/>
<path fill-rule="evenodd" clip-rule="evenodd" d="M9.26521 41.9892L9.25293 41.9646C9.26521 41.9404 9.26521 41.9646 9.26521 41.9892Z" fill="black"/>
<path fill-rule="evenodd" clip-rule="evenodd" d="M27.793 45.735L29.0024 46.9444V48.2059C26.9954 47.4079 25.1298 45.5814 24.4606 43.5612C24.2932 43.0466 24.1261 42.532 24.1006 42.0298C25.2969 43.291 26.6091 44.4617 27.793 45.735Z" fill="white"/>
<path fill-rule="evenodd" clip-rule="evenodd" d="M44.8781 44.2292L44.8657 44.2168H44.8781V44.2292Z" fill="black"/>
<path fill-rule="evenodd" clip-rule="evenodd" d="M31.7812 51.9233L31.7939 52.2578L31.7812 56.2977L29.1822 56.2853L29.195 51.5889C30.0057 51.7687 30.8934 51.9109 31.7812 51.9233Z" fill="#EFC460"/>
<path fill-rule="evenodd" clip-rule="evenodd" d="M47.7865 56.9668L47.7733 56.9792V56.9412C47.7733 56.9157 47.7733 56.9412 47.7865 56.9668ZM34.483 60.8397H34.4451L34.4575 60.801C34.4706 60.7755 34.4706 60.801 34.483 60.8397Z" fill="black"/>
</g>
<defs>
<clipPath id="clip0_1348_846">
<rect width="64" height="64" fill="white"/>
</clipPath>
</defs>
</svg>
