<svg width="68" height="117" viewBox="0 0 68 117" fill="none" xmlns="http://www.w3.org/2000/svg">
<g clip-path="url(#clip0_1429_634)">
<path d="M23.6086 88.4072C24.5683 88.4072 25.3463 87.418 25.3463 86.1979C25.3463 84.9777 24.5683 83.9885 23.6086 83.9885C22.6489 83.9885 21.8709 84.9777 21.8709 86.1979C21.8709 87.418 22.6489 88.4072 23.6086 88.4072Z" fill="#3F3D56"/>
<path d="M36.738 107.555C37.6977 107.555 38.4757 106.566 38.4757 105.346C38.4757 104.125 37.6977 103.136 36.738 103.136C35.7783 103.136 35.0003 104.125 35.0003 105.346C35.0003 106.566 35.7783 107.555 36.738 107.555Z" fill="#3F3D56"/>
<path d="M18.8782 77.2377L33.9383 102.031C33.9383 102.031 37.0276 109.396 41.8545 107.186C46.6815 104.977 39.3445 98.3491 39.3445 98.3491L24.6705 73.5554C24.6705 73.5554 22.7398 66.8927 18.8782 68.2602C15.0166 69.6277 18.8782 77.2377 18.8782 77.2377Z" fill="#3484F4"/>
<path d="M44.3351 94.6574L41.7907 96.3695L35.3852 84.7067L39.1405 82.1797L44.3351 94.6574Z" fill="#A0616A"/>
<path d="M35.5874 100.451C35.5789 100.674 35.765 101.249 35.8471 101.447C36.0996 102.053 36.6909 102.284 37.1678 101.963L45.0472 96.6603C45.3726 96.4413 45.4967 95.9285 45.3245 95.5148L45.1508 95.0977C45.1508 95.0977 45.0187 93.5818 43.5729 92.5769C43.5729 92.5769 43.0792 94.458 40.7999 93.5662L39.9389 92.8497L37.9892 97.9491L36.3407 99.4119C35.9801 99.7319 35.609 99.8924 35.5874 100.451Z" fill="#2F2E41"/>
<path d="M31.785 73.7914L29.2405 75.5035L22.8351 63.8408L26.5904 61.3137L31.785 73.7914Z" fill="#A0616A"/>
<path d="M23.0373 79.5849C23.0287 79.8079 23.2149 80.3835 23.297 80.5808C23.5495 81.1871 24.1408 81.4185 24.6177 81.0975L32.4971 75.7943C32.8225 75.5754 32.9466 75.0625 32.7744 74.6488L32.6007 74.2318C32.6007 74.2318 32.4686 72.7159 31.0228 71.7109C31.0228 71.7109 30.5291 73.592 28.2498 72.7002L27.3888 71.9838L25.4391 77.0831L23.7906 78.5459C23.43 78.8659 23.0589 79.0264 23.0373 79.5849Z" fill="#2F2E41"/>
<path d="M67.8047 94.5961C67.6417 94.2466 66.9364 94.6208 66.8068 94.3036C66.6776 93.9876 67.3328 93.5061 67.7072 92.4061C67.7747 92.2077 68.2001 90.9577 67.8852 90.572C67.2882 89.8408 64.5566 92.858 63.6006 91.8707C63.3908 91.654 63.2442 91.2214 62.6093 90.5191C62.3567 90.2397 62.2039 90.1135 62.0561 90.1605C61.8464 90.2271 61.8297 90.584 61.6048 91.2858C61.2675 92.3382 61.068 92.2747 60.8715 93.1143C60.7256 93.7377 60.7589 94.1001 60.5872 94.1707C60.3443 94.2706 60.1207 93.6094 59.8128 93.6686C59.4986 93.729 59.3087 94.4989 59.2487 95.0752C59.1361 96.1568 59.4485 96.8706 59.6217 97.621C59.8099 98.4366 59.9215 99.6769 59.487 101.433L55.1857 116.841C56.1353 113.679 58.8848 105.012 60.0401 101.791C60.3737 100.862 60.7419 99.9186 61.4981 99.5464C62.2261 99.188 63.2259 99.402 64.5005 99.0116C64.6494 98.966 65.0625 98.8324 65.1145 98.5234C65.1574 98.2681 64.9145 98.1255 64.9518 97.8863C65.0019 97.5655 65.4797 97.5615 66.0669 97.1914C66.4809 96.9303 66.7389 96.6199 66.9607 96.353C67.0276 96.2725 68.0217 95.0613 67.8047 94.5961Z" fill="#969696"/>
<path d="M50.8823 102.707C50.7003 102.708 50.6413 103.256 50.4815 103.246C50.3222 103.235 50.3254 102.687 50.0087 102.136C49.9516 102.037 49.5918 101.411 49.352 101.496C48.8976 101.658 49.2741 104.233 48.6172 104.544C48.473 104.613 48.2637 104.579 47.8094 104.773C47.6286 104.85 47.5359 104.909 47.5113 105.015C47.4765 105.165 47.6095 105.278 47.8155 105.621C48.1245 106.135 48.0424 106.241 48.3098 106.606C48.5083 106.877 48.6579 106.961 48.6356 107.088C48.6041 107.269 48.2843 107.218 48.2183 107.427C48.151 107.64 48.3934 107.981 48.5985 108.185C48.9836 108.567 49.3493 108.578 49.6889 108.686C50.0581 108.804 50.5691 109.092 51.1215 109.87L55.8285 117C54.8819 115.495 52.3295 111.279 51.4196 109.629C51.1569 109.152 50.8991 108.65 50.9736 108.071C51.0453 107.513 51.4164 106.951 51.6334 106.043C51.6588 105.937 51.7264 105.641 51.6221 105.519C51.536 105.419 51.4108 105.529 51.3292 105.437C51.2198 105.313 51.3562 105.014 51.3827 104.541C51.4014 104.207 51.356 103.956 51.317 103.741C51.3052 103.676 51.1245 102.706 50.8823 102.707Z" fill="#969696"/>
<path d="M54.5121 103.743L54.4025 102.499L54.4526 102.405C54.6843 101.969 54.8024 101.543 54.8038 101.139C54.8041 101.074 54.8017 101.01 54.7994 100.944C54.7899 100.685 54.7781 100.362 54.9104 99.9863C54.9846 99.7766 55.193 99.2912 55.5062 99.3513C55.5906 99.3663 55.6544 99.4156 55.7028 99.4732C55.7099 99.4588 55.7172 99.4444 55.725 99.4288C55.8226 99.2396 55.8998 99.1585 55.9742 99.0804C56.0314 99.0203 56.0905 98.9584 56.1831 98.8118C56.2237 98.7475 56.2554 98.6911 56.2821 98.6436C56.3631 98.5 56.469 98.3288 56.6556 98.3318C56.855 98.3438 56.9594 98.5535 57.0286 98.6923C57.1522 98.9398 57.2082 99.1182 57.2453 99.2365C57.2587 99.2798 57.2741 99.3285 57.2819 99.3435C57.3462 99.4636 57.8685 99.3513 58.0653 99.3104C58.5073 99.2167 58.8898 99.1356 59.0474 99.4901C59.1603 99.7436 59.0765 100.079 58.7906 100.513C58.7015 100.648 58.6068 100.751 58.5227 100.832C58.5924 100.884 58.6547 100.965 58.68 101.093C58.7396 101.394 58.5357 101.697 58.0743 101.992C57.9597 102.066 57.8054 102.165 57.5893 102.212C57.4874 102.234 57.3958 102.24 57.3173 102.243C57.3157 102.3 57.305 102.363 57.2774 102.427C57.1964 102.616 57.0277 102.706 56.7735 102.685C56.4938 102.666 56.2634 102.598 56.0602 102.539C55.8828 102.487 55.73 102.443 55.6099 102.454C55.3874 102.476 55.2159 102.703 55.0146 102.997L54.5121 103.743Z" fill="#969696"/>
<path d="M55.0205 96.3356L54.1018 96.786L54.0173 96.7483C53.6267 96.5739 53.2727 96.5367 52.9648 96.6375C52.9158 96.6535 52.8675 96.6727 52.8183 96.6922C52.6232 96.7697 52.3808 96.866 52.0611 96.7987C51.8828 96.7606 51.4606 96.6275 51.4269 96.227C51.4169 96.1195 51.4382 96.0285 51.4698 95.9543C51.457 95.9493 51.4442 95.9439 51.4303 95.9383C51.2616 95.8663 51.1803 95.7919 51.102 95.7201C51.0418 95.6651 50.9798 95.6081 50.8448 95.5314C50.7855 95.4977 50.7346 95.4731 50.6917 95.4523C50.5619 95.3891 50.4048 95.3023 50.3597 95.0721C50.3183 94.8238 50.4513 94.6422 50.5393 94.5218C50.6963 94.3071 50.8178 94.193 50.8985 94.1174C50.928 94.0898 50.9611 94.0586 50.9705 94.0452C51.0457 93.9357 50.8277 93.3218 50.7467 93.0901C50.5633 92.5703 50.4046 92.1204 50.6342 91.8367C50.7985 91.6336 51.0748 91.6517 51.4777 91.8931C51.6032 91.9683 51.7054 92.0588 51.7879 92.1418C51.8105 92.0427 51.8564 91.9454 51.9469 91.882C52.1612 91.7323 52.4428 91.9064 52.7847 92.3989C52.87 92.521 52.9841 92.6858 53.075 92.9396C53.1177 93.0592 53.1451 93.1705 53.1673 93.2662C53.2116 93.2536 53.2618 93.2509 53.3177 93.2686C53.4823 93.3202 53.5936 93.5048 53.6416 93.8229C53.6984 94.1717 53.7052 94.4722 53.7115 94.7371C53.7172 94.9684 53.7226 95.1675 53.7608 95.3126C53.8346 95.5805 54.0504 95.7339 54.325 95.907L55.0205 96.3356Z" fill="#969696"/>
<path d="M54.5121 92.6703L54.4025 91.4262L54.4526 91.3319C54.6843 90.8957 54.8024 90.4698 54.8038 90.0655C54.8041 90.0012 54.8017 89.9369 54.7994 89.8715C54.7899 89.6119 54.7781 89.2893 54.9104 88.9133C54.9846 88.7036 55.193 88.2182 55.5062 88.2783C55.5906 88.2933 55.6544 88.3426 55.7028 88.4002C55.7099 88.3858 55.7172 88.3714 55.725 88.3558C55.8226 88.1666 55.8998 88.0855 55.9742 88.0074C56.0314 87.9473 56.0905 87.8854 56.1831 87.7388C56.2237 87.6745 56.2554 87.6181 56.2821 87.5706C56.3631 87.427 56.469 87.2558 56.6556 87.2588C56.855 87.2708 56.9594 87.4805 57.0286 87.6193C57.1522 87.8668 57.2082 88.0452 57.2453 88.1635C57.2587 88.2068 57.2741 88.2555 57.2819 88.2705C57.3462 88.3906 57.8685 88.2783 58.0653 88.2374C58.5073 88.1437 58.8898 88.0626 59.0474 88.4171C59.1603 88.6706 59.0765 89.0058 58.7906 89.4401C58.7015 89.5753 58.6068 89.678 58.5227 89.7585C58.5924 89.8114 58.6547 89.8925 58.68 90.0199C58.7396 90.3214 58.5357 90.6236 58.0743 90.9192C57.9597 90.9931 57.8054 91.0916 57.5893 91.139C57.4874 91.1613 57.3958 91.1667 57.3173 91.1697C57.3157 91.2274 57.305 91.2898 57.2774 91.3541C57.1964 91.5433 57.0277 91.6335 56.7735 91.6118C56.4938 91.5932 56.2634 91.5253 56.0602 91.4658C55.8828 91.4142 55.73 91.3703 55.6099 91.3805C55.3874 91.4034 55.2159 91.6299 55.0146 91.9236L54.5121 92.6703Z" fill="#969696"/>
<path d="M55.5133 116.82L55.3083 116.657L55.0692 116.692C55.0654 116.664 55.0524 116.599 55.0328 116.497C54.9258 115.941 54.5995 114.248 54.3273 111.582C54.1374 109.721 54.0299 107.807 54.0077 105.894C53.9855 103.978 54.0568 102.527 54.114 101.361C54.1572 100.481 54.2097 99.6438 54.2612 98.828C54.3982 96.6485 54.5274 94.5898 54.4313 92.3105C54.41 91.8017 54.3654 90.7426 53.8787 89.6156C53.5964 88.962 53.2075 88.3817 52.7227 87.8915L53.0242 87.4097C53.5593 87.9515 53.9895 88.5943 54.303 89.32C54.8426 90.5696 54.8913 91.7236 54.9147 92.2781C55.0125 94.5976 54.8818 96.6762 54.7434 98.8767C54.6923 99.6895 54.6399 100.523 54.5969 101.399C54.5402 102.554 54.4696 103.993 54.4915 105.884C54.5133 107.775 54.6196 109.665 54.8069 111.503C55.0758 114.135 55.3973 115.803 55.5029 116.351C55.5592 116.643 55.571 116.704 55.5133 116.82Z" fill="#969696"/>
<path d="M51.8353 88.8689C51.8155 88.8689 51.7954 88.8683 51.7751 88.8665C51.3631 88.8383 50.9815 88.5247 50.6409 87.9347C50.4812 87.6572 50.3994 87.3406 50.2364 86.7092C50.2111 86.6119 50.0883 86.1181 50.0136 85.4386C49.9647 84.9947 49.9708 84.8091 50.0401 84.6451C50.1169 84.4624 50.2411 84.3351 50.381 84.2492C50.3748 84.1903 50.3798 84.1296 50.3999 84.0677C50.4823 83.8112 50.7016 83.8449 50.8202 83.8611C50.8802 83.8707 50.9551 83.8833 51.0359 83.8779C51.163 83.8701 51.2313 83.822 51.3347 83.7499C51.4337 83.6809 51.5568 83.595 51.7394 83.5475C52.0995 83.452 52.4012 83.5817 52.5006 83.6244C53.0239 83.8461 53.2819 84.3633 53.5805 84.9622C53.6401 85.0824 53.8444 85.5197 53.9793 86.1193C54.0767 86.5518 54.063 86.7441 54.0337 86.887C53.9741 87.1808 53.8336 87.349 53.4766 87.7203C53.1038 88.1089 52.9167 88.3036 52.756 88.4219C52.382 88.6965 52.1472 88.8689 51.8353 88.8689Z" fill="#969696"/>
<path d="M40.8892 49.0072L31.4283 68.4003L41.2753 86.075L37.4138 88.5298C37.4138 88.5298 24.8637 71.5916 24.4775 69.3822C24.0913 67.1729 28.3391 51.7075 28.3391 51.7075H20.2746L27.9529 63.9816L24.2844 66.9274L11.1551 50.7256C11.1551 50.7256 9.61044 47.4628 11.1551 46.2712C12.6997 45.0795 26.5504 37.2241 26.5504 37.2241L40.8892 49.0072Z" fill="#2F2E41"/>
<path d="M19.1678 83.4975C20.1275 83.4975 20.9055 82.5084 20.9055 81.2882C20.9055 80.068 20.1275 79.0789 19.1678 79.0789C18.2081 79.0789 17.4301 80.068 17.4301 81.2882C17.4301 82.5084 18.2081 83.4975 19.1678 83.4975Z" fill="#3F3D56"/>
<path d="M32.2006 104.732C33.1603 104.732 33.9383 103.743 33.9383 102.523C33.9383 101.302 33.1603 100.313 32.2006 100.313C31.2409 100.313 30.4629 101.302 30.4629 102.523C30.4629 103.743 31.2409 104.732 32.2006 104.732Z" fill="#3F3D56"/>
<path d="M17.8163 19.9177L20.7125 13.0442C20.7125 13.0442 29.5834 15.2535 32.3884 19.9177C35.1934 24.5818 40.2134 36.8559 40.2134 36.8559C40.2134 36.8559 44.075 46.6752 40.5996 52.0758C37.1241 57.4764 32.6833 46.6752 32.6833 46.6752L26.3117 37.5924L25.5394 37.3469L17.8163 19.9177Z" fill="#3484F4"/>
<path d="M13.4102 48.7834C13.6571 48.0216 14.044 47.3461 14.5384 46.8134L18.7207 32.5823L21.9568 34.1672L17.1872 48.2554C17.2251 49.0776 17.1075 49.8994 16.8444 50.6521C16.2061 52.5474 14.9202 53.6648 13.9718 53.1485C13.0235 52.6323 12.772 50.6779 13.4102 48.7834Z" fill="#A0616A"/>
<path d="M20.0367 20.2861L27.6633 23.3547L21.3882 37.2244L16.5613 36.7334L20.0367 20.2861Z" fill="#3484F4"/>
<path d="M2.21635 31.7164C2.82449 31.4318 3.47741 31.3365 4.12046 31.4386L15.1903 25.7188L16.4634 29.82L5.0788 34.8935C4.62845 35.4855 4.07311 35.9319 3.45926 36.1951C1.92995 36.8808 0.412623 36.4339 0.0694835 35.1969C-0.273658 33.9599 0.687519 32.4016 2.21635 31.7164Z" fill="#A0616A"/>
<path d="M20.5194 17.2175L26.1259 25.2101L14.3087 31.3573L11.3254 26.5079L20.5194 17.2175Z" fill="#3484F4"/>
<path d="M18.2024 5.95922C19.4967 5.95922 20.546 4.6252 20.546 2.97961C20.546 1.33402 19.4967 0 18.2024 0C16.9081 0 15.8589 1.33402 15.8589 2.97961C15.8589 4.6252 16.9081 5.95922 18.2024 5.95922Z" fill="#2F2E41"/>
<path d="M14.6027 16.3364C17.4214 16.3364 19.7064 13.4312 19.7064 9.84752C19.7064 6.26381 17.4214 3.35864 14.6027 3.35864C11.784 3.35864 9.49902 6.26381 9.49902 9.84752C9.49902 13.4312 11.784 16.3364 14.6027 16.3364Z" fill="#A0616A"/>
<path d="M18.2632 15.6082C18.8746 15.6776 19.8727 13.689 19.8282 11.7631C19.7996 10.5242 20.6456 10.2806 20.7085 8.68278C20.7451 7.75176 19.6203 7.46148 19.543 6.71474C19.403 5.36174 18.7164 4.4513 18.6307 4.34062C17.8908 3.38522 17.3686 3.69581 16.4985 2.58852C15.9747 1.92189 16.1089 1.73925 15.7561 1.44356C14.7379 0.590182 12.9083 1.51508 11.8142 2.76096C11.4356 3.19208 10.0244 2.72089 9.40789 3.93834C8.68159 5.37271 8.85023 8.29795 9.16168 8.68399C9.3509 8.91854 9.78302 8.34552 10.9542 7.97776C12.0386 7.63727 11.0157 9.32108 12.2692 9.03852C13.7516 8.70439 14.0418 8.13099 14.597 8.4749C15.1838 8.83844 15.6424 9.96414 15.5092 10.849C15.4432 11.2881 15.2517 11.533 15.3597 11.7563C15.5568 12.164 15.783 11.7641 16.0359 12.1733C16.33 12.6491 15.5991 13.8699 15.7368 13.9878C15.7645 14.0116 15.8484 14.0085 16.6373 13.0439C16.9523 12.6587 17.0446 12.4222 17.1063 12.4585C17.206 12.5173 17.8599 13.2918 17.6103 13.9034C17.2217 14.8552 17.719 14.8849 17.6103 15.5256C17.4981 16.1867 17.8746 15.564 18.2632 15.6082Z" fill="#2F2E41"/>
<path d="M-5.84961 116.661C-5.8497 116.7 -5.84371 116.738 -5.83197 116.775C-5.82022 116.811 -5.80297 116.843 -5.7812 116.871C-5.75943 116.898 -5.73357 116.92 -5.7051 116.935C-5.67664 116.95 -5.64614 116.958 -5.61535 116.958H91.4867C91.5488 116.958 91.6084 116.926 91.6523 116.871C91.6962 116.815 91.7209 116.739 91.7209 116.661C91.7209 116.582 91.6962 116.507 91.6523 116.451C91.6084 116.395 91.5488 116.364 91.4867 116.364H-5.61534C-5.64613 116.364 -5.67663 116.371 -5.7051 116.386C-5.73356 116.401 -5.75943 116.423 -5.7812 116.451C-5.80297 116.478 -5.82022 116.511 -5.83196 116.547C-5.8437 116.583 -5.8497 116.622 -5.84961 116.661Z" fill="#CCCCCC"/>
</g>
<defs>
<clipPath id="clip0_1429_634">
<rect width="68" height="117" fill="white"/>
</clipPath>
</defs>
</svg>
