<svg width="50" height="64" viewBox="0 0 50 64" fill="none" xmlns="http://www.w3.org/2000/svg">
<g clip-path="url(#clip0_1348_830)">
<path d="M42.7152 60.1015V63.9923H43.9759V61.4018H48.5643V63.9923H49.8242V60.1083L42.7152 60.1015ZM43.8354 58.843H48.6831C49.3564 58.7105 49.8572 58.1224 49.9984 57.5535H42.5204C42.6601 58.1226 43.1682 58.7105 43.8354 58.843ZM38.897 63.9948C39.5326 63.7281 39.8746 63.2668 40.0056 62.727H34.3511L34.3547 57.5567L33.0871 57.5603V63.9948H38.897ZM23.6613 58.8256H28.1383C28.8132 58.6315 29.38 58.1226 29.5181 57.5585H22.4063V61.361H28.2271V62.6954L23.6613 62.6989C22.9458 62.8964 22.339 63.3719 22.0364 63.9999L22.4063 63.9932H29.4778V60.0967H23.6613V58.8256ZM12.6091 58.8378H17.4551C18.1293 58.7048 18.6304 58.1173 18.7709 57.5479H11.2933C11.4328 58.1173 11.9413 58.7048 12.6091 58.8378ZM12.6091 61.3809H17.4551C18.1293 61.2493 18.6304 60.6612 18.7709 60.0914H11.2933C11.4328 60.6614 11.9413 61.2493 12.6091 61.3809ZM12.6091 63.9941H17.4551C18.1293 63.8614 18.6304 63.2735 18.7709 62.7044H11.2933C11.4328 63.2737 11.9413 63.8614 12.6091 63.9941ZM0.00170898 57.5635C0.14739 58.1258 0.639333 58.7006 1.31428 58.8446H3.35417L3.45823 58.8852V63.9797H4.73204V58.8852L4.84776 58.8446H6.88945C7.57193 58.6706 8.05329 58.1258 8.19646 57.5635V57.551H0.00170898V57.5635Z" fill="#E82127"/>
<path d="M25.0026 44.8349L31.3674 9.40794C37.4341 9.40794 39.3477 10.0663 39.624 12.7537C39.624 12.7537 43.6938 11.2519 45.7464 8.20177C37.7365 4.52837 29.6883 4.3627 29.6883 4.3627L24.992 10.0237L25.0026 10.023L20.3064 4.36182C20.3064 4.36182 12.258 4.52766 4.24915 8.20106C6.29999 11.2512 10.3713 12.753 10.3713 12.753C10.6493 10.0655 12.5605 9.40706 18.5865 9.40279L25.0026 44.8349Z" fill="#E82127"/>
<path d="M25 2.72735C31.4749 2.67834 38.8862 3.71868 46.4731 6.99132C47.4871 5.18498 47.7478 4.38666 47.7478 4.38666C39.4542 1.13924 31.6873 0.0278772 24.9991 0C18.3112 0.0278772 10.5447 1.13941 2.2522 4.38666C2.2522 4.38666 2.62214 5.37 3.52601 6.99132C11.1115 3.71868 18.524 2.67834 24.9991 2.72735H25Z" fill="#E82127"/>
</g>
<defs>
<clipPath id="clip0_1348_830">
<rect width="50" height="64" fill="white"/>
</clipPath>
</defs>
</svg>
