<svg width="68" height="117" viewBox="0 0 68 117" fill="none" xmlns="http://www.w3.org/2000/svg">
<g clip-path="url(#clip0_1429_431)">
<path d="M15.4753 19.6656C19.5023 23.5377 23.9916 20.2959 28.2943 20.0482C30.2896 19.9333 32.2809 20.4861 34.2474 20.8984C36.114 21.2899 37.9738 21.8591 39.6802 22.83C41.5402 23.8512 43.1223 25.4364 44.2559 27.4149C44.481 27.8192 44.8207 27.5206 44.8181 27.0372C44.791 21.9043 42.8597 22.3199 40.8431 22.6985C38.926 23.0584 37.2963 20.8723 35.4045 20.4018C33.4249 19.944 31.4242 19.6164 29.4121 19.4205C27.2308 19.1716 25.044 19.0028 22.8519 18.914C20.3939 18.8143 17.935 18.8155 15.4753 18.9174C15.0575 18.9345 15.0556 19.6827 15.4753 19.6656Z" fill="#3F3D56"/>
<path d="M66.2414 93.7477H38.8139C38.5622 93.7477 38.3209 93.6328 38.1429 93.4283C37.9649 93.2238 37.865 92.9465 37.865 92.6573C37.865 92.3681 37.9649 92.0908 38.1429 91.8863C38.3209 91.6818 38.5622 91.5669 38.8139 91.5669H66.2414C66.4931 91.5669 66.7345 91.6818 66.9124 91.8863C67.0904 92.0908 67.1904 92.3681 67.1904 92.6573C67.1904 92.9465 67.0904 93.2238 66.9124 93.4283C66.7345 93.6328 66.4931 93.7477 66.2414 93.7477Z" fill="#F2F2F2"/>
<path d="M23.3331 104.157L24.8914 105.842L31.4155 99.5845L29.1158 97.0974L23.3331 104.157Z" fill="#FFB6B6"/>
<path d="M26.1702 111.444L25.3044 106.805L26.3539 105.523L25.7889 104.98L24.0348 103.301L23.6057 102.888L19.5708 107.058L20.7404 108.321L21.9872 107.279L21.4813 109.124L24.579 112.474C24.7276 112.635 24.9169 112.737 25.1193 112.765C25.3218 112.793 25.5268 112.746 25.7044 112.631C25.8821 112.516 26.0231 112.339 26.1069 112.125C26.1907 111.912 26.2129 111.673 26.1702 111.444Z" fill="#2F2E41"/>
<path d="M15.7373 110.673L17.8528 111.043L20.1273 101.634L17.0052 101.089L15.7373 110.673Z" fill="#FFB6B6"/>
<path d="M21.6751 114.817L18.6685 111.565L18.8986 109.826L18.1652 109.747L15.8912 109.511L15.3339 109.451L14.0755 115.517L15.6627 115.793L16.1734 114.121L16.6693 115.97L20.8753 116.704C21.0769 116.74 21.283 116.7 21.4636 116.591C21.6441 116.482 21.7897 116.31 21.879 116.099C21.9683 115.888 21.9966 115.65 21.9599 115.42C21.9233 115.189 21.8235 114.978 21.6751 114.817Z" fill="#2F2E41"/>
<path d="M36.0887 43.8333L42.1554 56.3186C42.1554 56.3186 41.9023 81.9966 42.7085 82.949C43.5148 83.9014 44.2448 84.7556 43.5148 84.7479C42.7848 84.7402 43.0203 90.8147 43.0203 90.8147L29.5641 102.785L26.3086 99.7926L34.4758 88.2088L29.9654 64.4979C29.9654 64.4979 26.7249 86.9211 26.141 87.5921C25.557 88.2632 25.2047 88.2584 25.8188 88.9319C26.433 89.6053 25.8188 91.1284 25.8188 91.1284L19.4168 106.396L15.9443 105.893C15.9443 105.893 16.5463 93.4287 18.6427 88.0779V62.7914C18.4847 64.9594 25.8706 43.0161 21.3541 44.6631C22.783 44.142 36.0887 43.8333 36.0887 43.8333Z" fill="#2F2E41"/>
<path d="M33.3057 14.0793H28.2903L27.5802 17.343L23.724 18.5683C23.724 18.5683 21.8166 33.1026 23.4185 34.2749C25.0205 35.4472 23.9034 39.1144 23.9034 39.1144C23.9034 39.1144 19.9141 44.0651 20.3929 44.7985C20.8716 45.532 21.8428 44.416 20.7189 45.7074C19.595 46.9989 18.9567 46.8155 19.2758 47.1822C19.4732 47.4148 19.6261 47.6922 19.7249 47.9965L18.3486 52.1146C18.3486 52.1146 25.6587 53.7831 29.3289 51.3995C32.9991 49.0158 41.1373 53.5998 41.1373 53.5998C41.1373 53.5998 40.7187 51.193 40.3695 50.8378C40.0203 50.4827 39.2061 51.3807 39.7728 50.1983C40.3394 49.0158 40.8182 49.5659 40.3394 49.0158C39.8607 48.4657 37.7863 41.1314 37.7863 41.1314C37.7863 41.1314 36.1906 37.0975 37.9459 35.4472C39.7012 33.797 40.3695 28.3843 40.3695 28.3843L38.2653 18.5683L34.7544 17.6614L33.3057 14.0793Z" fill="#E6E6E6"/>
<path d="M13.4524 51.5537L14.657 46.0058L11.9949 44.7729L10.9029 50.6906C10.6538 50.9024 10.461 51.1898 10.3463 51.5206C10.2316 51.8514 10.1994 52.2124 10.2535 52.563C10.3075 52.9137 10.4456 53.24 10.6522 53.5054C10.8588 53.7708 11.1257 53.9647 11.423 54.0654C11.7202 54.166 12.036 54.1694 12.3349 54.0751C12.6337 53.9808 12.9037 53.7926 13.1145 53.5317C13.3254 53.2707 13.4687 52.9473 13.5284 52.5979C13.5881 52.2485 13.5618 51.8869 13.4524 51.5537Z" fill="#FFB6B6"/>
<path d="M25.1532 18.1975L25.0738 18.1818C24.3347 18.0359 23.5758 18.0992 22.8628 18.3662C22.1498 18.6332 21.5042 19.0958 20.9819 19.7141C19.6183 21.3261 13.5313 33.3144 13.7503 35.3179C13.9547 37.1864 14.0333 36.7707 13.2897 37.7248C12.5462 38.6788 12.2632 37.2259 12.2517 39.2122C12.2403 41.1984 12.9008 41.1811 12.1987 41.6668C11.4967 42.1524 11.0325 41.8141 11.1607 43.1542C11.289 44.4942 11.0927 44.8498 11.0511 45.3182C11.0096 45.7866 10.0017 48.7918 10.0017 48.7918C10.0017 48.7918 12.9681 49.7071 14.1644 51.0777C14.1644 51.0777 14.3005 47.6863 14.9044 47.3785C15.5083 47.0706 16.0706 47.2311 15.9009 46.3594C15.7311 45.4877 14.8593 45.1017 15.9273 45.1321C16.9954 45.1626 18.6452 38.636 18.6452 38.636L25.7788 23.6805L25.1532 18.1975Z" fill="#E6E6E6"/>
<path d="M41.2519 54.3019L41.4662 48.5893L44.3234 48.2747L43.9098 54.3052C44.0964 54.5894 44.2103 54.9279 44.2386 55.2825C44.267 55.6371 44.2087 55.9937 44.0703 56.3124C43.932 56.631 43.719 56.8989 43.4554 57.0861C43.1918 57.2733 42.8879 57.3722 42.578 57.3719C42.2681 57.3715 41.9645 57.2718 41.7012 57.084C41.4379 56.8962 41.2254 56.6277 41.0877 56.3087C40.9499 55.9898 40.8923 55.633 40.9213 55.2785C40.9503 54.924 41.0648 54.5858 41.2519 54.3019Z" fill="#FFB6B6"/>
<path d="M38.2653 18.502L38.3454 18.5128C39.0901 18.6137 39.8022 18.9218 40.42 19.4102C41.0378 19.8986 41.5427 20.5526 41.891 21.3158C42.8007 23.306 45.6785 36.7858 44.9739 38.6356C44.3167 40.3608 44.3439 39.9366 44.8215 41.0938C45.299 42.251 45.929 40.95 45.4497 42.8584C44.9704 44.7668 44.3413 44.5349 44.8946 45.2295C45.4479 45.924 45.9766 45.7508 45.5228 46.9941C45.0691 48.2373 45.1695 48.6423 45.0937 49.1049C45.018 49.5676 45.2427 52.778 45.2427 52.778C45.2427 52.778 42.1721 52.6889 40.6866 53.6132C40.6866 53.6132 41.3933 50.3168 40.8902 49.8248C40.3871 49.3327 39.8082 49.3034 40.1862 48.5228C40.5642 47.7423 41.4955 47.6562 40.4637 47.3373C39.432 47.0184 39.461 40.2221 39.461 40.2221L36.312 23.5559L38.2653 18.502Z" fill="#E6E6E6"/>
<path d="M19.4022 10.2286C19.3624 12.1958 20.0022 14.1005 20.9213 15.7735C21.2283 14.8021 21.6583 13.8879 22.1973 13.0605C21.9392 14.8936 22.2141 16.7734 22.9795 18.4089C23.0065 18.431 23.0344 18.4516 23.0632 18.4706C23.8124 18.9884 24.7622 19.1981 25.5726 18.8241C23.8981 16.7501 23.685 13.3137 25.0889 10.9874C25.4863 10.3273 26.0004 9.74347 26.2465 8.99225C26.6352 7.79364 26.2616 6.47395 26.0259 5.22427C25.8055 4.0612 25.7669 2.67713 26.446 1.82475C26.3735 1.70563 26.2747 1.61081 26.1597 1.55001C26.0448 1.48921 25.9179 1.46461 25.792 1.47873C25.3733 1.54669 25.0685 1.96486 24.8744 2.39554C24.6803 2.82622 24.5523 3.30356 24.2818 3.67554C23.7808 4.37181 22.9278 4.53642 22.2088 4.90338C20.4678 5.79447 19.444 8.03979 19.4022 10.2286Z" fill="#2F2E41"/>
<path d="M34.0576 9.10394C33.9582 8.70381 34.6439 11.1497 34.313 11.1939C32.8058 11.3926 30.7369 12.4269 29.6872 12.9094C29.6399 12.9031 29.5926 12.8968 29.5467 12.8889C29.4341 12.8747 29.3243 12.8542 29.2158 12.8305C26.7716 12.2991 25.8316 7.98477 25.8316 7.94534C25.8316 7.75139 26.2367 2.42433 26.8749 2.34548C27.0425 2.32459 27.211 2.31406 27.3796 2.31395H28.9632C29.2909 2.2328 29.6231 2.17749 29.9573 2.14838H29.9601C33.1482 1.86927 35.662 4.10211 35.4271 6.81906C35.4257 6.82221 35.4229 6.82537 35.4215 6.82852C35.3534 6.94521 35.2936 7.05559 35.2408 7.16124C35.1893 7.26059 35.1462 7.35519 35.1087 7.44507C34.8181 8.1389 35.565 9.01195 35.0697 9.17491C34.411 9.39164 36.8023 16.5152 34.1949 16.5152C35.4632 16.9296 34.3321 10.2078 34.0576 9.10394Z" fill="#2F2E41"/>
<path d="M31.2117 13.2837C33.2824 13.2837 34.9611 11.3548 34.9611 8.97534C34.9611 6.59591 33.2824 4.66699 31.2117 4.66699C29.1409 4.66699 27.4622 6.59591 27.4622 8.97534C27.4622 11.3548 29.1409 13.2837 31.2117 13.2837Z" fill="#FFB6B6"/>
<path d="M35.4271 7.05401C35.3645 7.09185 35.3033 7.12654 35.2408 7.16124C35.1754 7.19751 35.1101 7.23378 35.0447 7.26689C33.7892 7.9213 32.7673 7.99382 32.1472 7.05402C32.1306 6.55951 32.0339 6.07288 31.8622 5.61906C31.8925 6.12621 31.7762 6.63067 31.5312 7.05402H30.2827C28.9966 8.03483 28.3362 8.13733 29.2288 11.3573C29.4777 12.2545 30.4673 17.4755 30.078 18.2498C29.9653 18.2356 28.7672 12.517 28.6587 12.4933C26.2145 11.9619 24.6614 7.3347 24.8603 7.07294C24.8593 6.32857 25.0082 5.59403 25.2954 4.92682C25.6588 4.08151 26.2252 3.37344 26.9277 2.88635C27.3465 2.65304 27.783 2.4646 28.2319 2.32341C28.243 2.32025 28.2527 2.31709 28.2639 2.31395C28.4015 2.27137 28.5419 2.23195 28.6824 2.19883C28.9725 2.12844 29.2659 2.07738 29.5611 2.04588C29.5819 2.0443 29.6028 2.04272 29.6223 2.04272C29.7402 2.04304 29.8558 2.07951 29.9573 2.14838C29.9587 2.14838 29.9587 2.14995 29.9601 2.14995C30.0327 2.19866 30.096 2.26353 30.1464 2.34075C30.2352 2.47068 30.2832 2.63126 30.2827 2.79647H31.6731C31.7245 2.79647 31.7759 2.79804 31.8274 2.80119C32.7553 2.83763 33.6381 3.27066 34.3028 4.01553C34.9676 4.7604 35.3665 5.7635 35.4215 6.82853C35.4257 6.9042 35.4271 6.97831 35.4271 7.05401Z" fill="#2F2E41"/>
<path d="M27.2291 5.67673C28.5933 5.67673 29.6993 4.40595 29.6993 2.83837C29.6993 1.27078 28.5933 0 27.2291 0C25.8649 0 24.7589 1.27078 24.7589 2.83837C24.7589 4.40595 25.8649 5.67673 27.2291 5.67673Z" fill="#2F2E41"/>
<path d="M50.7003 88.3561C50.8012 88.3614 50.9011 88.331 50.9864 88.2689C51.0717 88.2068 51.1384 88.1161 51.1773 88.0091C51.2163 87.902 51.2257 87.7838 51.2042 87.6704C51.1827 87.557 51.1314 87.454 51.0573 87.3752L51.0235 87.221C51.028 87.2087 51.0324 87.1963 51.0369 87.184C51.1385 86.9082 51.3088 86.673 51.5264 86.508C51.744 86.343 51.9991 86.2556 52.2598 86.2567C52.5205 86.2578 52.7751 86.3474 52.9916 86.5143C53.2081 86.6811 53.3768 86.9177 53.4767 87.1944C53.8757 88.2987 54.3838 89.405 54.5089 90.5726C54.564 91.0887 54.5407 91.6119 54.4402 92.1189C55.3774 89.7697 55.8641 87.2164 55.8672 84.6321C55.8674 83.9836 55.8361 83.3356 55.7733 82.6912C55.7214 82.1628 55.6495 81.6383 55.5574 81.1175C55.0551 78.2916 53.9765 75.643 52.4104 73.3891C51.6524 72.9138 51.0393 72.183 50.6539 71.2951C50.5143 70.9759 50.4156 70.6352 50.3609 70.2835C50.4465 70.2964 50.6834 68.8 50.6189 68.7082C50.738 68.5004 50.9513 68.3971 51.0815 68.1944C51.7287 67.186 52.6205 67.3621 53.086 68.7324C54.0805 69.3091 54.0902 70.2656 53.48 71.1855C53.0917 71.7708 53.0384 72.5627 52.6977 73.1893C52.7328 73.2409 52.7692 73.2908 52.8043 73.3423C53.4449 74.2889 54.0033 75.3053 54.4713 76.377C54.3575 75.1764 54.4934 73.9619 54.8677 72.8334C55.2472 71.7816 55.9583 70.8958 56.5846 69.9866C56.7502 69.7424 56.9752 69.56 57.231 69.4626C57.4868 69.3653 57.7619 69.3572 58.0217 69.4395C58.2815 69.5218 58.5142 69.6908 58.6905 69.925C58.8667 70.1592 58.9786 70.4483 59.0119 70.7555C59.0132 70.769 59.0144 70.7824 59.0157 70.7957C58.9226 70.856 58.8316 70.92 58.7425 70.9877C58.6306 71.0737 58.5438 71.1964 58.4937 71.34C58.4435 71.4835 58.4323 71.6411 58.4614 71.7921C58.4905 71.9431 58.5586 72.0805 58.6568 72.1862C58.7551 72.292 58.8788 72.3612 59.0118 72.3847L59.0255 72.3872C58.9923 72.7724 58.9337 73.1542 58.8502 73.5292C59.6537 77.0994 57.9191 78.3997 55.4425 78.4581C55.3878 78.4903 55.3345 78.5225 55.2799 78.5531C55.7501 80.0845 56.0451 81.6796 56.1574 83.2984C56.2209 84.2535 56.2172 85.2128 56.1462 86.1672L56.1504 86.1333C56.3298 85.0721 56.8225 84.1146 57.5452 83.4224C58.6185 82.4093 60.135 82.0362 61.293 81.2218C61.416 81.131 61.5591 81.0825 61.7054 81.0821C61.8516 81.0817 61.9949 81.1294 62.1184 81.2195C62.2418 81.3096 62.3403 81.4384 62.4021 81.5906C62.464 81.7429 62.4866 81.9124 62.4674 82.079L62.4627 82.1145C62.2901 82.1953 62.122 82.2884 61.9594 82.3932C61.8664 82.4535 61.7754 82.5175 61.6863 82.5852C61.5743 82.6711 61.4876 82.7939 61.4375 82.9374C61.3873 83.0809 61.376 83.2385 61.4051 83.3895C61.4343 83.5405 61.5024 83.6779 61.6006 83.7837C61.6989 83.8894 61.8226 83.9586 61.9556 83.9822L61.9693 83.9846C61.9791 83.9862 61.9875 83.9878 61.9973 83.9895C61.7023 84.7987 61.2884 85.5435 60.7735 86.1913C60.2712 89.3079 58.1135 89.6037 55.8055 88.6961H55.8041C55.5509 89.9605 55.184 91.1913 54.7093 92.3686H50.7983C50.7843 92.3186 50.7717 92.2671 50.7591 92.2172C51.1211 92.2433 51.4845 92.2184 51.8412 92.1431C51.5511 91.7339 51.2609 91.3216 50.9707 90.9125C50.9642 90.9048 50.9582 90.8967 50.9525 90.8883C50.8053 90.6789 50.6567 90.4711 50.5095 90.2617L50.5094 90.2615C50.5016 89.6196 50.5658 88.9791 50.7003 88.3561Z" fill="#F2F2F2"/>
<path d="M-6.44955 116.661C-6.44965 116.7 -6.44304 116.738 -6.43009 116.775C-6.41715 116.811 -6.39812 116.843 -6.37412 116.871C-6.35011 116.898 -6.3216 116.92 -6.29022 116.935C-6.25884 116.95 -6.22521 116.958 -6.19126 116.958H100.87C100.938 116.958 101.004 116.926 101.053 116.871C101.101 116.815 101.128 116.739 101.128 116.661C101.128 116.582 101.101 116.507 101.053 116.451C101.004 116.395 100.938 116.364 100.87 116.364H-6.19125C-6.2252 116.364 -6.25883 116.371 -6.29021 116.386C-6.3216 116.401 -6.35011 116.423 -6.37412 116.451C-6.39812 116.478 -6.41714 116.511 -6.43009 116.547C-6.44303 116.583 -6.44965 116.622 -6.44955 116.661Z" fill="#CCCCCC"/>
<path d="M42.0311 52.9796C42.333 53.3456 41.8754 53.8212 41.5232 53.5075C38.5856 50.8906 35.6481 48.2754 32.7105 45.6618C32.7071 45.6577 32.703 45.6543 32.6986 45.6519C32.4959 45.4939 32.3029 45.32 32.1211 45.1315C29.3872 44.8003 26.3826 43.7047 23.5361 43.2292C21.0226 43.6176 18.5164 44.0807 15.9958 44.4243C13.7973 44.7417 11.5841 44.9063 9.36832 44.9173C7.56409 44.9074 5.6209 44.8949 3.98441 44.0085C2.28322 43.0873 1.3368 41.2746 0.900705 39.4122C0.685666 38.4616 0.545331 37.4908 0.481392 36.5114V30.4386C0.713802 27.7943 1.42304 25.1749 3.34706 23.3299C6.23428 20.5611 10.5567 20.4889 14.2514 20.4117C18.653 20.3152 23.0557 20.5155 27.4368 21.0118C31.0069 21.4202 34.7615 21.8161 38.0633 23.3971C39.4793 24.0769 40.8139 25.0206 41.7891 26.2979C42.8865 27.7449 43.5213 29.579 43.5885 31.4968C43.7635 35.503 42.0096 39.1682 41.0487 42.9503C40.2149 46.2245 39.7453 50.1934 42.0311 52.9796Z" fill="#3484F4"/>
<path d="M20.2385 27.1302H10.424C10.3794 27.1302 10.3353 27.1201 10.2941 27.1005C10.2529 27.0809 10.2154 27.0522 10.1839 27.0159C10.1524 26.9797 10.1274 26.9367 10.1103 26.8893C10.0932 26.842 10.0844 26.7913 10.0844 26.74C10.0844 26.6888 10.0932 26.6381 10.1103 26.5907C10.1274 26.5434 10.1524 26.5004 10.1839 26.4641C10.2154 26.4279 10.2529 26.3992 10.2941 26.3796C10.3353 26.3599 10.3794 26.3499 10.424 26.3499H20.2385C20.3285 26.3499 20.4149 26.391 20.4786 26.4641C20.5422 26.5373 20.578 26.6365 20.578 26.74C20.578 26.8435 20.5422 26.9428 20.4786 27.0159C20.4149 27.0891 20.3285 27.1302 20.2385 27.1302Z" fill="white"/>
<path d="M20.2385 35.4505H10.424C10.3339 35.4505 10.2476 35.4094 10.1839 35.3362C10.1202 35.2631 10.0844 35.1638 10.0844 35.0603C10.0844 34.9569 10.1202 34.8576 10.1839 34.7844C10.2476 34.7113 10.3339 34.6702 10.424 34.6702H20.2385C20.3285 34.6702 20.4149 34.7113 20.4786 34.7844C20.5422 34.8576 20.578 34.9569 20.578 35.0603C20.578 35.1638 20.5422 35.2631 20.4786 35.3362C20.4149 35.4094 20.3285 35.4505 20.2385 35.4505Z" fill="white"/>
<path d="M28.2093 31.293H10.424C10.3339 31.293 10.2476 31.2519 10.1839 31.1788C10.1202 31.1056 10.0844 31.0064 10.0844 30.9029C10.0844 30.7994 10.1202 30.7001 10.1839 30.627C10.2476 30.5538 10.3339 30.5127 10.424 30.5127H28.2093C28.2994 30.5127 28.3858 30.5538 28.4495 30.627C28.5131 30.7001 28.5489 30.7994 28.5489 30.9029C28.5489 31.0064 28.5131 31.1056 28.4495 31.1788C28.3858 31.2519 28.2994 31.293 28.2093 31.293Z" fill="white"/>
<path d="M44.2559 27.4148C45.1656 29.0827 45.6802 31.0024 45.5226 32.9811C45.3867 34.6885 44.7771 36.2942 44.1108 37.8074C43.4203 39.3755 42.6471 40.8982 42.0824 42.5355C41.4625 44.3201 41.2334 46.2523 41.4153 48.1624C41.5269 49.4025 41.7447 50.6258 41.9498 51.8488L42.5761 55.5823L43.1203 55.2183L34.1181 46.2758C33.8026 45.9623 33.3401 46.4893 33.6578 46.8048L42.6599 55.7473C42.7114 55.803 42.7773 55.8381 42.8475 55.8473C42.9178 55.8565 42.9889 55.8394 43.05 55.7985C43.1111 55.7576 43.1592 55.6951 43.1869 55.6203C43.2146 55.5455 43.2206 55.4624 43.204 55.3834C42.836 53.1899 42.4013 50.9953 42.1318 48.7824C41.9769 47.6665 41.9551 46.5316 42.0671 45.4089C42.1774 44.5532 42.3731 43.7149 42.6505 42.9107C43.7301 39.6689 45.7524 36.8329 46.1423 33.3083C46.3865 31.1 45.8371 28.9055 44.8181 27.0372C44.5961 26.6302 44.0325 27.0052 44.2559 27.4148Z" fill="#3F3D56"/>
<path d="M34.6873 43.0027L21.3739 44.8125L14.7172 45.7174C12.6893 45.9931 10.5758 46.3802 8.54948 45.8924C5.13801 45.0711 3.01979 41.5191 2.3534 37.7758C1.94089 35.4586 2.08691 33.0341 2.43395 30.7191C2.61897 29.485 2.86314 28.2637 3.12699 27.0489C3.36214 25.9664 3.53752 24.8007 3.94384 23.7817C4.26806 22.9531 4.75051 22.219 5.35537 21.634C5.96023 21.0489 6.67198 20.6279 7.43781 20.4021C7.91616 20.2895 8.40082 20.2157 8.8882 20.1813C9.43574 20.1182 9.9837 20.06 10.5321 20.007C11.6288 19.9008 12.7268 19.8148 13.8261 19.749C14.3756 19.7161 14.9254 19.6883 15.4753 19.6655C15.8931 19.6479 15.8951 18.8996 15.4753 18.9173C13.1868 19.0135 10.9028 19.1958 8.6233 19.4641C7.69459 19.5741 6.83599 19.7329 5.99768 20.2328C5.27329 20.6681 4.63709 21.2744 4.13074 22.0118C3.61189 22.7727 3.23128 23.6454 3.01147 24.5784C2.71187 25.8181 2.43993 27.0701 2.19185 28.3247C1.69178 30.8536 1.33233 33.4602 1.49932 36.06C1.74631 39.9053 3.34844 44.0079 6.45775 45.8386C8.29385 46.9196 10.3891 46.968 12.401 46.7616C14.6448 46.5314 16.8822 46.1713 19.1192 45.8672L32.9694 43.9844L34.6873 43.7509C35.0983 43.695 35.1033 42.9462 34.6873 43.0027Z" fill="#3F3D56"/>
</g>
<defs>
<clipPath id="clip0_1429_431">
<rect width="68" height="117" fill="white"/>
</clipPath>
</defs>
</svg>
