<svg width="170" height="64" viewBox="0 0 170 64" fill="none" xmlns="http://www.w3.org/2000/svg">
<g clip-path="url(#clip0_1348_835)">
<path d="M26.4087 15.279L13.2033 7.64756L0 15.279V7.64756L13.2054 0.0161133L26.4108 7.64756V15.279H26.4087Z" fill="#A435F0"/>
<path d="M6.91822 21.6867V38.5073C6.91822 42.8533 10.1606 44.9721 13.2054 44.9721C16.2757 44.9721 19.4947 42.798 19.4947 38.4499V21.6867H26.4108V38.909C26.4108 42.9128 25.1529 46.0006 22.6393 48.1194C20.1215 50.2361 16.979 51.2668 13.1459 51.2668C9.31708 51.2668 6.17243 50.2382 3.71621 48.1194C1.25786 46.0028 0 43.0297 0 39.079V21.6867H6.91822ZM86.2122 42.5919L91.3499 45.5607C88.2158 49.1352 84.0364 51.2094 78.784 51.2094C74.2668 51.2094 70.5506 49.8365 67.7501 47.1482C64.9497 44.4578 63.5219 40.8514 63.5219 36.3312V36.1059C63.5219 31.5262 64.9497 27.8645 67.7501 25.0614C70.6101 22.2584 74.2137 20.8855 78.614 20.8855C82.7892 20.8855 86.2164 22.2584 88.8448 25.0614C91.5326 27.8645 92.8478 31.2988 92.8478 35.4195C92.8478 36.7477 92.6969 38.1609 92.6969 38.1609H70.3487C70.7248 42.543 74.0522 45.3737 79.0135 45.3737C81.7332 45.3737 84.1193 44.4578 86.2122 42.5919ZM73.0684 28.5531C71.5938 29.7007 70.746 31.1118 70.5251 32.7864H85.8658C85.8021 31.167 85.0648 29.758 83.7007 28.6105C82.2686 27.3502 80.6113 26.7212 78.6119 26.7212C76.4978 26.7212 74.6089 27.3502 73.0663 28.551L73.0684 28.5531ZM155.843 55.0963C153.038 61.7289 150.102 63.9837 145.599 63.9837H142.478V57.8463H145.002C146.551 57.8463 147.99 57.264 149.362 54.0954L150.735 50.9225L138.9 21.6867H145.933L154.336 42.7428L162.969 21.6867H170L155.845 55.0963H155.843ZM53.34 10.6465H60.2009V50.523H53.34V47.8687C51.7762 49.3116 48.8164 51.152 44.1355 51.152C40.0794 51.152 36.6479 49.7218 33.8474 46.8592C31.1023 43.9414 29.7318 40.3945 29.7318 36.1016C29.7318 31.8109 31.1023 28.2641 33.8474 25.4015C36.6479 22.4857 40.0772 21.0555 44.1355 21.0555C47.5458 21.0555 51.0729 22.2647 53.34 24.2985V10.6465ZM53.8563 36.1059C53.8563 33.5855 52.9958 31.4688 51.2811 29.8112C49.6238 28.1514 47.5097 27.2929 45.0492 27.2929C42.5908 27.2929 40.5914 28.1514 38.9341 29.8112C37.3342 31.4688 36.5331 33.5855 36.5331 36.1059C36.5331 38.6221 37.3363 40.7387 38.9341 42.3985C40.5914 44.0582 42.5908 44.9168 45.0492 44.9168C47.5097 44.9168 49.6238 44.0582 51.2811 42.3985C52.9958 40.7387 53.8563 38.6221 53.8563 36.1059ZM128.236 21.1171C134.202 21.1171 138.241 25.1528 138.241 32.6716V50.523H131.38V33.6428C131.38 29.6964 129.494 27.2355 126.234 27.2355C122.862 27.2355 120.521 29.9833 120.521 33.9297V50.5251H113.717V33.6471C113.717 29.6985 111.833 27.2376 108.571 27.2376C105.373 27.2376 102.97 30.0407 102.97 33.9319V50.5251H96.1688V21.6909H102.97V24.6895C104.183 23.2019 106.616 21.115 110.745 21.115C115.627 21.115 117.718 23.9457 118.46 25.3632C120.317 23.2784 123.024 21.115 128.236 21.115V21.1171Z" fill="black"/>
</g>
<defs>
<clipPath id="clip0_1348_835">
<rect width="170" height="64" fill="white"/>
</clipPath>
</defs>
</svg>
